<?xml version="1.0" standalone="no"?><!-- Generator: Adobe Fireworks CS6, Export SVG Extension by Aaron Beall (http://fireworks.abeall.com) . Version: 0.6.0  --><!DOCTYPE svg PUBLIC "-//W3C//DTD SVG 1.1//EN" "http://www.w3.org/Graphics/SVG/1.1/DTD/svg11.dtd"><svg id="icons" viewBox="0 0 120 520" style="background-color:#ffffff00" version="1.1"	xmlns="http://www.w3.org/2000/svg" xmlns:xlink="http://www.w3.org/1999/xlink" xml:space="preserve"	x="0px" y="0px" width="120px" height="520px">	<g id="Layer%201">		<g>			<path d="M 100 7 L 85 21.9259 L 87.45 24.55 L 100 12 L 112.55 24.55 L 115 21.9259 L 100 7 Z" fill="#4d4d4d"/>			<path d="M 91 25 L 91 25.1481 L 91 33 L 97 33 L 97 28 L 103 28 L 103 33 L 109 33 L 109 25.1481 L 109 25 L 108.855 25 L 100 16 L 91.145 25 L 91 25 Z" fill="#4d4d4d"/>		</g>		<g>			<path d="M 60 7 L 45 21.9259 L 47.45 24.55 L 60 12 L 72.55 24.55 L 75 21.9259 L 60 7 Z" fill="#6dbc43"/>			<path d="M 51 25 L 51 25.1481 L 51 33 L 57 33 L 57 28 L 63 28 L 63 33 L 69 33 L 69 25.1481 L 69 25 L 68.855 25 L 60 16 L 51.145 25 L 51 25 Z" fill="#6dbc43"/>		</g>		<g>			<path d="M 20 7 L 5 21.9259 L 7.45 24.55 L 20 12 L 32.55 24.55 L 35 21.9259 L 20 7 Z" fill="#b6b6b6"/>			<path d="M 11 25 L 11 25.1481 L 11 33 L 17 33 L 17 28 L 23 28 L 23 33 L 29 33 L 29 25.1481 L 29 25 L 28.855 25 L 20 16 L 11.145 25 L 11 25 Z" fill="#b6b6b6"/>		</g>		<g>			<path d="M 65 47 C 67.9844 47 70 49.0781 70 52 L 65 52 L 65 47 ZM 50 49.25 C 50 47.5367 50.5421 47 52.2727 47 L 63 47 L 63 54 L 70 54 L 70 70.75 C 70 72.4633 69.4579 73 67.7273 73 L 52.2727 73 C 50.5421 73 50 72.4633 50 70.75 L 50 49.25 ZM 48 47.5 L 48 72.5 C 48 74.4037 48.5964 75 50.5 75 L 69.5 75 C 71.4036 75 72 74.4037 72 72.5 L 72 52.125 C 72 47.6875 69.8125 45 64.875 45 L 50.5 45 C 48.5964 45 48 45.5963 48 47.5 Z" fill="#6dbc43"/>			<path d="M 54 62 L 54 57 L 52 57 L 56.5625 51 L 61 57 L 59 57 L 59 62 C 59 62.9666 57.9665 64 57 64 L 56 64 C 55.0335 64 54 62.9666 54 62 Z" fill="#6dbc43"/>			<path d="M 61 60 L 61 65 L 59 65 L 63.5 71 L 68 65 L 66 65 L 66 60 C 66 59.0334 64.9665 58 64 58 L 63 58 C 62.0335 58 61 59.0334 61 60 Z" fill="#6dbc43"/>		</g>		<g>			<path d="M 105 47 C 107.9844 47 110 49.0781 110 52 L 105 52 L 105 47 ZM 90 49.25 C 90 47.5367 90.5421 47 92.2727 47 L 103 47 L 103 54 L 110 54 L 110 70.75 C 110 72.4633 109.4579 73 107.7273 73 L 92.2727 73 C 90.5421 73 90 72.4633 90 70.75 L 90 49.25 ZM 88 47.5 L 88 72.5 C 88 74.4037 88.5964 75 90.5 75 L 109.5 75 C 111.4036 75 112 74.4037 112 72.5 L 112 52.125 C 112 47.6875 109.8125 45 104.875 45 L 90.5 45 C 88.5964 45 88 45.5963 88 47.5 Z" fill="#4d4d4d"/>			<path d="M 94 62 L 94 57 L 92 57 L 96.5625 51 L 101 57 L 99 57 L 99 62 C 99 62.9666 97.9665 64 97 64 L 96 64 C 95.0335 64 94 62.9666 94 62 Z" fill="#4d4d4d"/>			<path d="M 101 60 L 101 65 L 99 65 L 103.5 71 L 108 65 L 106 65 L 106 60 C 106 59.0334 104.9665 58 104 58 L 103 58 C 102.0335 58 101 59.0334 101 60 Z" fill="#4d4d4d"/>		</g>		<g>			<path d="M 25 47 C 27.9844 47 30 49.0781 30 52 L 25 52 L 25 47 ZM 10 49.25 C 10 47.5367 10.5421 47 12.2727 47 L 23 47 L 23 54 L 30 54 L 30 70.75 C 30 72.4633 29.4579 73 27.7273 73 L 12.2727 73 C 10.5421 73 10 72.4633 10 70.75 L 10 49.25 ZM 8 47.5 L 8 72.5 C 8 74.4037 8.5964 75 10.5 75 L 29.5 75 C 31.4036 75 32 74.4037 32 72.5 L 32 52.125 C 32 47.6875 29.8125 45 24.875 45 L 10.5 45 C 8.5964 45 8 45.5963 8 47.5 Z" fill="#b6b6b6"/>			<path d="M 14 62 L 14 57 L 12 57 L 16.5625 51 L 21 57 L 19 57 L 19 62 C 19 62.9666 17.9665 64 17 64 L 16 64 C 15.0335 64 14 62.9666 14 62 Z" fill="#b6b6b6"/>			<path d="M 21 60 L 21 65 L 19 65 L 23.5 71 L 28 65 L 26 65 L 26 60 C 26 59.0334 24.9665 58 24 58 L 23 58 C 22.0335 58 21 59.0334 21 60 Z" fill="#b6b6b6"/>		</g>		<g>			<path d="M 11 109 L 13 109 L 13 111 L 11 111 L 11 109 ZM 5 92 L 5 108 C 5 109.7544 6.4138 112 8.1579 112 L 15.2632 112 C 17.0072 112 19 109.7544 19 108 L 19 106 L 17 106 C 16.5501 106.9397 15.9515 108.0294 14.8452 108.0294 L 9 108 C 7.4611 108 7 107.548 7 106 L 7 92 C 7 90.452 7.4611 90 9 90 L 15 90 C 16.5389 90 17 90.452 17 92 L 19 92 C 19 90.2456 17.0072 88 15.2632 88 L 9 88 C 7 88.125 5 90.0625 5 92 Z" fill="#b6b6b6"/>			<path d="M 27 109 L 29 109 L 29 111 L 27 111 L 27 109 ZM 21 92 L 21 94 L 23 94 L 23 92 C 23 90.452 23.3361 90 24.875 90 L 31 90 C 32.5389 90 33 90.452 33 92 L 33 106 C 33 107.548 32.5389 108 31 108 L 25.1548 108.0294 C 24.2521 108.0294 23 108 23 106 L 21 106 L 21 108 C 21 109.9375 23.2559 112 25 112 L 31 112 C 32.7441 112 35 109.7544 35 108 L 35 92 C 35 90.2456 32.7441 88 31 88 L 25 88 C 23.0625 88 21 90.2456 21 92 Z" fill="#b6b6b6"/>			<path d="M 19 94 L 19 97 L 16 97 L 19 94 ZM 10 93 L 10 98 L 15 98 L 15 102 L 24 102 L 24 105 L 30 100 L 24 95 L 24 98 L 20 98 L 20 93 L 10 93 Z" fill="#b6b6b6"/>		</g>		<g>			<path d="M 51 109 L 53 109 L 53 111 L 51 111 L 51 109 ZM 45 92 L 45 108 C 45 109.7544 46.4138 112 48.1579 112 L 55.2632 112 C 57.0072 112 59 109.7544 59 108 L 59 106 L 57 106 C 56.5501 106.9397 55.9515 108.0294 54.8452 108.0294 L 49 108 C 47.4611 108 47 107.548 47 106 L 47 92 C 47 90.452 47.4611 90 49 90 L 55 90 C 56.5389 90 57 90.452 57 92 L 59 92 C 59 90.2456 57.0072 88 55.2632 88 L 49 88 C 47 88.125 45 90.0625 45 92 Z" fill="#6dbc43"/>			<path d="M 67 109 L 69 109 L 69 111 L 67 111 L 67 109 ZM 61 92 L 61 94 L 63 94 L 63 92 C 63 90.452 63.3361 90 64.875 90 L 71 90 C 72.5389 90 73 90.452 73 92 L 73 106 C 73 107.548 72.5389 108 71 108 L 65.1548 108.0294 C 64.2521 108.0294 63 108 63 106 L 61 106 L 61 108 C 61 109.9375 63.2559 112 65 112 L 71 112 C 72.7441 112 75 109.7544 75 108 L 75 92 C 75 90.2456 72.7441 88 71 88 L 65 88 C 63.0625 88 61 90.2456 61 92 Z" fill="#6dbc43"/>			<path d="M 59 94 L 59 97 L 56 97 L 59 94 ZM 50 93 L 50 98 L 55 98 L 55 102 L 64 102 L 64 105 L 70 100 L 64 95 L 64 98 L 60 98 L 60 93 L 50 93 Z" fill="#6dbc43"/>		</g>		<g>			<path d="M 91 109 L 93 109 L 93 111 L 91 111 L 91 109 ZM 85 92 L 85 108 C 85 109.7544 86.4138 112 88.1579 112 L 95.2632 112 C 97.0072 112 99 109.7544 99 108 L 99 106 L 97 106 C 96.5501 106.9397 95.9515 108.0294 94.8452 108.0294 L 89 108 C 87.4611 108 87 107.548 87 106 L 87 92 C 87 90.452 87.4611 90 89 90 L 95 90 C 96.5389 90 97 90.452 97 92 L 99 92 C 99 90.2456 97.0072 88 95.2632 88 L 89 88 C 87 88.125 85 90.0625 85 92 Z" fill="#4d4d4d"/>			<path d="M 107 109 L 109 109 L 109 111 L 107 111 L 107 109 ZM 101 92 L 101 94 L 103 94 L 103 92 C 103 90.452 103.3361 90 104.875 90 L 111 90 C 112.5389 90 113 90.452 113 92 L 113 106 C 113 107.548 112.5389 108 111 108 L 105.1548 108.0294 C 104.2521 108.0294 103 108 103 106 L 101 106 L 101 108 C 101 109.9375 103.2559 112 105 112 L 111 112 C 112.7441 112 115 109.7544 115 108 L 115 92 C 115 90.2456 112.7441 88 111 88 L 105 88 C 103.0625 88 101 90.2456 101 92 Z" fill="#4d4d4d"/>			<path d="M 99 94 L 99 97 L 96 97 L 99 94 ZM 90 93 L 90 98 L 95 98 L 95 102 L 104 102 L 104 105 L 110 100 L 104 95 L 104 98 L 100 98 L 100 93 L 90 93 Z" fill="#4d4d4d"/>		</g>		<path d="M 29 148 L 30 148 L 30 153 L 29 153 L 29 148 ZM 25 148 L 26 148 L 26 153 L 25 153 L 25 148 ZM 27 148 L 28 148 L 28 153 L 27 153 L 27 148 ZM 23 148 L 24 148 L 24 153 L 23 153 L 23 148 ZM 20 148 L 22 148 L 22 153 L 20 153 L 20 148 ZM 17 148 L 18 148 L 18 153 L 17 153 L 17 148 ZM 13 148 L 16 148 L 16 153 L 13 153 L 13 148 ZM 10 148 L 11 148 L 11 153 L 10 153 L 10 148 ZM 17 141 L 17 136 L 15 136 L 20.0694 129 L 25 136 L 23 136 L 23 141 C 23 142.0409 21.6294 143 20.5556 143 L 19.4444 143 C 18.3706 143 17 142.0409 17 141 ZM 8 125 L 8 155 L 32 155 L 32 125 L 8 125 Z" fill="#b6b6b6"/>		<path d="M 69 148 L 70 148 L 70 153 L 69 153 L 69 148 ZM 65 148 L 66 148 L 66 153 L 65 153 L 65 148 ZM 67 148 L 68 148 L 68 153 L 67 153 L 67 148 ZM 63 148 L 64 148 L 64 153 L 63 153 L 63 148 ZM 60 148 L 62 148 L 62 153 L 60 153 L 60 148 ZM 57 148 L 58 148 L 58 153 L 57 153 L 57 148 ZM 53 148 L 56 148 L 56 153 L 53 153 L 53 148 ZM 50 148 L 51 148 L 51 153 L 50 153 L 50 148 ZM 57 141 L 57 136 L 55 136 L 60.0694 129 L 65 136 L 63 136 L 63 141 C 63 142.0409 61.6294 143 60.5556 143 L 59.4444 143 C 58.3706 143 57 142.0409 57 141 ZM 48 125 L 48 155 L 72 155 L 72 125 L 48 125 Z" fill="#6dbc43"/>		<path d="M 109 148 L 110 148 L 110 153 L 109 153 L 109 148 ZM 105 148 L 106 148 L 106 153 L 105 153 L 105 148 ZM 107 148 L 108 148 L 108 153 L 107 153 L 107 148 ZM 103 148 L 104 148 L 104 153 L 103 153 L 103 148 ZM 100 148 L 102 148 L 102 153 L 100 153 L 100 148 ZM 97 148 L 98 148 L 98 153 L 97 153 L 97 148 ZM 93 148 L 96 148 L 96 153 L 93 153 L 93 148 ZM 90 148 L 91 148 L 91 153 L 90 153 L 90 148 ZM 97 141 L 97 136 L 95 136 L 100.0694 129 L 105 136 L 103 136 L 103 141 C 103 142.0409 101.6294 143 100.5556 143 L 99.4444 143 C 98.3706 143 97 142.0409 97 141 ZM 88 125 L 88 155 L 112 155 L 112 125 L 88 125 Z" fill="#4d4d4d"/>		<path d="M 57 224 C 57 223.0334 58.0335 222 59 222 L 61 222 C 61.9665 222 63 223.0334 63 224 L 63 227 L 65 227 L 60 233 L 55 227 L 57 227 L 57 224 ZM 52 210.4993 C 52.959 209.9868 53.9916 209.595 55.075 209.34 C 55.0271 209.5529 55 209.7726 55 210 C 55 211.6569 58.3431 214 60 214 C 61.6569 214 65 211.6569 65 210 C 65 209.7726 64.9729 209.5529 64.925 209.34 C 66.0084 209.595 67.041 209.9868 68 210.4993 L 68 220 L 52 220 L 52 210.4993 ZM 75 220 C 75 211.7156 75 228.2844 75 220 ZM 63 218 L 66 218 L 66 215 C 64.9312 215.1199 63.0909 216.9226 63 218 ZM 57 218 C 56.9091 216.9226 55.0688 215.1199 54 215 L 54 218 L 57 218 Z" fill="#f6f6f6"/>		<path d="M 17 224 C 17 223.0334 18.0335 222 19 222 L 21 222 C 21.9665 222 23 223.0334 23 224 L 23 227 L 25 227 L 20 233 L 15 227 L 17 227 L 17 224 ZM 12 210.4993 C 12.959 209.9868 13.9916 209.595 15.075 209.34 C 15.0271 209.5529 15 209.7726 15 210 C 15 211.6569 18.3431 214 20 214 C 21.6569 214 25 211.6569 25 210 C 25 209.7726 24.9729 209.5529 24.925 209.34 C 26.0084 209.595 27.041 209.9868 28 210.4993 L 28 220 L 12 220 L 12 210.4993 ZM 23 218 L 26 218 L 26 215 C 24.9312 215.1199 23.0909 216.9226 23 218 ZM 17 218 C 16.9091 216.9226 15.0688 215.1199 14 215 L 14 218 L 17 218 Z" fill="#52b7ce"/>		<path d="M 97 224 C 97 223.0334 98.0335 222 99 222 L 101 222 C 101.9665 222 103 223.0334 103 224 L 103 227 L 105 227 L 100 233 L 95 227 L 97 227 L 97 224 ZM 92 210.4993 C 92.959 209.9868 93.9916 209.595 95.075 209.34 C 95.0271 209.5529 95 209.7726 95 210 C 95 211.6569 98.3431 214 100 214 C 101.6569 214 105 211.6569 105 210 C 105 209.7726 104.9729 209.5529 104.925 209.34 C 106.0084 209.595 107.041 209.9868 108 210.4993 L 108 220 L 92 220 L 92 210.4993 ZM 85 220 C 85 228.2844 91.7156 235 100 235 C 108.2844 235 115 228.2844 115 220 C 115 211.7156 108.2844 205 100 205 C 91.7156 205 85 211.7156 85 220 ZM 103 218 L 106 218 L 106 215 C 104.9312 215.1199 103.0909 216.9226 103 218 ZM 97 218 C 96.9091 216.9226 95.0688 215.1199 94 215 L 94 218 L 97 218 Z" fill="#52b7ce"/>		<path d="M 57 176 C 57 176.9666 58.0335 178 59 178 L 61 178 C 61.9665 178 63 176.9666 63 176 L 63 173 L 65 173 L 60 167 L 55 173 L 57 173 L 57 176 ZM 52 189.5007 C 52.959 190.0132 53.9916 190.405 55.075 190.66 C 55.0271 190.4471 55 190.2274 55 190 C 55 188.3431 58.3431 186 60 186 C 61.6569 186 65 188.3431 65 190 C 65 190.2274 64.9729 190.4471 64.925 190.66 C 66.0084 190.405 67.041 190.0132 68 189.5007 L 68 180 L 52 180 L 52 189.5007 ZM 63 182 L 66 182 L 66 185 C 64.9312 184.8801 63.0909 183.0774 63 182 ZM 57 182 C 56.9091 183.0774 55.0688 184.8801 54 185 L 54 182 L 57 182 Z" fill="#b6b6b6"/>		<path d="M 17 176 C 17 176.9666 18.0335 178 19 178 L 21 178 C 21.9665 178 23 176.9666 23 176 L 23 173 L 25 173 L 20 167 L 15 173 L 17 173 L 17 176 ZM 12 189.5007 C 12.959 190.0132 13.9916 190.405 15.075 190.66 C 15.0271 190.4471 15 190.2274 15 190 C 15 188.3431 18.3431 186 20 186 C 21.6569 186 25 188.3431 25 190 C 25 190.2274 24.9729 190.4471 24.925 190.66 C 26.0084 190.405 27.041 190.0132 28 189.5007 L 28 180 L 12 180 L 12 189.5007 ZM 23 182 L 26 182 L 26 185 C 24.9312 184.8801 23.0909 183.0774 23 182 ZM 17 182 C 16.9091 183.0774 15.0688 184.8801 14 185 L 14 182 L 17 182 Z" fill="#6dbd44"/>		<path d="M 97 176 C 97 176.9666 98.0335 178 99 178 L 101 178 C 101.9665 178 103 176.9666 103 176 L 103 173 L 105 173 L 100 167 L 95 173 L 97 173 L 97 176 ZM 92 189.5007 C 92.959 190.0132 93.9916 190.405 95.075 190.66 C 95.0271 190.4471 95 190.2274 95 190 C 95 188.3431 98.3431 186 100 186 C 101.6569 186 105 188.3431 105 190 C 105 190.2274 104.9729 190.4471 104.925 190.66 C 106.0084 190.405 107.041 190.0132 108 189.5007 L 108 180 L 92 180 L 92 189.5007 ZM 85 180 C 85 171.7156 91.7156 165 100 165 C 108.2844 165 115 171.7156 115 180 C 115 188.2844 108.2844 195 100 195 C 91.7156 195 85 188.2844 85 180 ZM 103 182 L 106 182 L 106 185 C 104.9312 184.8801 103.0909 183.0774 103 182 ZM 97 182 C 96.9091 183.0774 95.0688 184.8801 94 185 L 94 182 L 97 182 Z" fill="#4296ba"/>		<path d="M 15 259 C 15 256.9343 16.2529 255.1623 18.04 254.4 C 18.0139 254.2711 18 254.1366 18 254 C 18 252.8954 18.8954 252 20 252 C 21.1046 252 22 252.8954 22 254 C 22 254.1366 21.9861 254.2711 21.96 254.4 C 23.7471 255.1623 25 256.9343 25 259 C 25 259.8971 24.7637 260.7396 24.35 261.4675 L 27 265 L 22 265 C 22 266.1046 21.1046 267 20 267 C 18.8954 267 18 266.1046 18 265 L 13 265 L 15.65 261.4675 C 15.2363 260.7396 15 259.8971 15 259 ZM 6 260 C 6 267.7321 12.2679 274 20 274 C 27.7321 274 34 267.7321 34 260 C 34 252.2679 27.7321 246 20 246 C 12.2679 246 6 252.2679 6 260 ZM 20.995 254.1 L 21 254 C 21 253.4477 20.5523 253 20 253 C 19.4477 253 19 253.4477 19 254 L 19.005 254.1 C 19.3265 254.0348 19.6592 254 20 254 C 20.3408 254 20.6735 254.0348 20.995 254.1 Z" fill="#dddddd"/>		<path d="M 55 259 C 55 256.9343 56.2529 255.1624 58.04 254.4 C 58.0139 254.2711 58 254.1366 58 254 C 58 252.8954 58.8954 252 60 252 C 61.1046 252 62 252.8954 62 254 C 62 254.1366 61.9861 254.2711 61.96 254.4 C 63.7471 255.1624 65 256.9343 65 259 C 65 259.8971 64.7637 260.7396 64.35 261.4675 L 67 265 L 62 265 C 62 266.1046 61.1046 267 60 267 C 58.8954 267 58 266.1046 58 265 L 53 265 L 55.65 261.4675 C 55.2363 260.7396 55 259.8971 55 259 ZM 46 260 C 46 267.7321 52.2679 274 60 274 C 67.7321 274 74 267.7321 74 260 C 74 252.2679 67.7321 246 60 246 C 52.2679 246 46 252.2679 46 260 ZM 60.995 254.1 L 61 254 C 61 253.4477 60.5523 253 60 253 C 59.4477 253 59 253.4477 59 254 L 59.005 254.1 C 59.3265 254.0348 59.6592 254 60 254 C 60.3408 254 60.6735 254.0348 60.995 254.1 Z" fill="#b6b6b6"/>		<path d="M 95 259 C 95 256.9343 96.2529 255.1624 98.04 254.4 C 98.0139 254.2711 98 254.1366 98 254 C 98 252.8954 98.8954 252 100 252 C 101.1046 252 102 252.8954 102 254 C 102 254.1366 101.9861 254.2711 101.96 254.4 C 103.7471 255.1624 105 256.9343 105 259 C 105 259.8971 104.7637 260.7396 104.35 261.4675 L 107 265 L 102 265 C 102 266.1046 101.1046 267 100 267 C 98.8954 267 98 266.1046 98 265 L 93 265 L 95.65 261.4675 C 95.2363 260.7396 95 259.8971 95 259 ZM 86 260 C 86 267.7321 92.2679 274 100 274 C 107.7321 274 114 267.7321 114 260 C 114 252.2679 107.7321 246 100 246 C 92.2679 246 86 252.2679 86 260 ZM 100.995 254.1 L 101 254 C 101 253.4477 100.5523 253 100 253 C 99.4477 253 99 253.4477 99 254 L 99.005 254.1 C 99.3265 254.0348 99.6592 254 100 254 C 100.3408 254 100.6735 254.0348 100.995 254.1 Z" fill="#2fa3e0"/>		<path d="M 27 299 L 27 301 L 13 301 L 13 299 L 27 299 ZM 5 300 C 5 308.2844 11.7156 315 20 315 C 28.2844 315 35 308.2844 35 300 C 35 291.7156 28.2844 285 20 285 C 11.7156 285 5 291.7156 5 300 Z" fill="#fad1d6"/>		<path d="M 107 299 L 107 301 L 93 301 L 93 299 L 107 299 ZM 85 300 C 85 308.2844 91.7156 315 100 315 C 108.2844 315 115 308.2844 115 300 C 115 291.7156 108.2844 285 100 285 C 91.7156 285 85 291.7156 85 300 Z" fill="#b6b6b6"/>		<path d="M 67 299 L 67 301 L 53 301 L 53 299 L 67 299 ZM 45 300 C 45 308.2844 51.7156 315 60 315 C 68.2844 315 75 308.2844 75 300 C 75 291.7156 68.2844 285 60 285 C 51.7156 285 45 291.7156 45 300 Z" fill="#fa6b7c"/>		<path d="M 32 338 L 12.7998 338 L 17.4199 333.3799 C 17.814 332.9858 18 332.5161 18 332 C 18 331.0161 17.187 330 16 330 C 15.4692 330 15.0059 330.1929 14.6201 330.5801 L 6.6621 338.5381 C 6.334 338.8662 6 339.271 6 340 C 6 340.7285 6.2788 341.0801 6.646 341.4473 L 14.6201 349.4199 C 15.0059 349.8066 15.4692 350 16 350 C 17.188 350 18 348.9844 18 348 C 18 347.4844 17.814 347.0137 17.4199 346.6201 L 12.7998 342 L 32 342 C 33.1035 342 34 341.1035 34 340 C 34 338.896 33.1035 338 32 338 Z" fill="#e2e2e2"/>		<path d="M 72 338 L 52.7998 338 L 57.4199 333.3799 C 57.814 332.9858 58 332.5161 58 332 C 58 331.0161 57.187 330 56 330 C 55.4692 330 55.0059 330.1929 54.6201 330.5801 L 46.6621 338.5381 C 46.334 338.8662 46 339.271 46 340 C 46 340.7285 46.2788 341.0801 46.646 341.4473 L 54.6201 349.4199 C 55.0059 349.8066 55.4692 350 56 350 C 57.188 350 58 348.9844 58 348 C 58 347.4844 57.814 347.0137 57.4199 346.6201 L 52.7998 342 L 72 342 C 73.1035 342 74 341.1035 74 340 C 74 338.896 73.1035 338 72 338 Z" fill="#52b7ce"/>		<path d="M 112 338 L 92.7998 338 L 97.4199 333.3799 C 97.814 332.9858 98 332.5161 98 332 C 98 331.0161 97.187 330 96 330 C 95.4692 330 95.0059 330.1929 94.6201 330.5801 L 86.6621 338.5381 C 86.334 338.8662 86 339.271 86 340 C 86 340.7285 86.2788 341.0801 86.646 341.4473 L 94.6201 349.4199 C 95.0059 349.8066 95.4692 350 96 350 C 97.188 350 98 348.9844 98 348 C 98 347.4844 97.814 347.0137 97.4199 346.6201 L 92.7998 342 L 112 342 C 113.1035 342 114 341.1035 114 340 C 114 338.896 113.1035 338 112 338 Z" fill="#b6b6b6"/>		<g>			<path d="M 19 378.3676 C 19 376.5727 20.1193 375.5 21.5 375.5 C 22.8807 375.5 24 376.5727 24 378.3676 C 24 380.1626 22.8807 382 21.5 382 C 20.1193 382 19 380.1626 19 378.3676 ZM 27.4375 385 L 15.5625 385 C 17.6779 383.1329 18.4566 382 21.5 382 C 24.5434 382 25.3221 383.1329 27.4375 385 ZM 13 365 L 13 395 L 25 395 C 28.2448 395 30.875 392.3697 30.875 389.125 L 30.875 370.875 C 30.875 367.6303 28.2448 365 25 365 L 13 365 Z" fill="#dddddd"/>			<path d="M 9 367.25 C 9 365.6469 10.3969 365 12 365 L 12 395 C 10.3969 395 9 394.4365 9 392.8333 L 9 367.25 Z" fill="#dddddd"/>		</g>		<g>			<path d="M 59 378.3676 C 59 376.5727 60.1193 375.5 61.5 375.5 C 62.8807 375.5 64 376.5727 64 378.3676 C 64 380.1626 62.8807 382 61.5 382 C 60.1193 382 59 380.1626 59 378.3676 ZM 67.4375 385 L 55.5625 385 C 57.6779 383.1329 58.4566 382 61.5 382 C 64.5434 382 65.3221 383.1329 67.4375 385 ZM 53 365 L 53 395 L 65 395 C 68.2448 395 70.875 392.3697 70.875 389.125 L 70.875 370.875 C 70.875 367.6303 68.2448 365 65 365 L 53 365 Z" fill="#2fa3e0"/>			<path d="M 49 367.25 C 49 365.6469 50.3969 365 52 365 L 52 395 C 50.3969 395 49 394.4365 49 392.8333 L 49 367.25 Z" fill="#2fa3e0"/>		</g>		<g>			<path d="M 99 378.3676 C 99 376.5727 100.1193 375.5 101.5 375.5 C 102.8807 375.5 104 376.5727 104 378.3676 C 104 380.1626 102.8807 382 101.5 382 C 100.1193 382 99 380.1626 99 378.3676 ZM 107.4375 385 L 95.5625 385 C 97.6779 383.1329 98.4566 382 101.5 382 C 104.5434 382 105.3221 383.1329 107.4375 385 ZM 93 365 L 93 395 L 105 395 C 108.2448 395 110.875 392.3697 110.875 389.125 L 110.875 370.875 C 110.875 367.6303 108.2448 365 105 365 L 93 365 Z" fill="#b6b6b6"/>			<path d="M 89 367.25 C 89 365.6469 90.3969 365 92 365 L 92 395 C 90.3969 395 89 394.4365 89 392.8333 L 89 367.25 Z" fill="#b6b6b6"/>		</g>		<path d="M 29 428 L 31 428 L 31 433 L 29 433 L 29 428 ZM 17 428 L 19 428 L 19 433 L 17 433 L 17 428 ZM 26 428 L 27 428 L 27 433 L 26 433 L 26 428 ZM 22 428 L 23 428 L 23 433 L 22 433 L 22 428 ZM 20 428 L 21 428 L 21 433 L 20 433 L 20 428 ZM 15 428 L 16 428 L 16 433 L 15 433 L 15 428 ZM 12 428 L 13 428 L 13 433 L 12 433 L 12 428 ZM 9 428 L 11 428 L 11 433 L 9 433 L 9 428 ZM 13 417 C 13 413.134 16.134 410 20 410 C 23.866 410 27 413.134 27 417 C 27 420.866 23.866 424 20 424 C 16.134 424 13 420.866 13 417 ZM 7 405 L 7 435 L 33 435 L 33 405 L 7 405 ZM 19 413 L 19 416 L 16 416 L 16 418 L 19 418 L 19 421 L 21 421 L 21 418 L 24 418 L 24 416 L 21 416 L 21 413 L 19 413 Z" fill="#dddddd"/>		<path d="M 69 428 L 71 428 L 71 433 L 69 433 L 69 428 ZM 57 428 L 59 428 L 59 433 L 57 433 L 57 428 ZM 66 428 L 67 428 L 67 433 L 66 433 L 66 428 ZM 62 428 L 63 428 L 63 433 L 62 433 L 62 428 ZM 60 428 L 61 428 L 61 433 L 60 433 L 60 428 ZM 55 428 L 56 428 L 56 433 L 55 433 L 55 428 ZM 52 428 L 53 428 L 53 433 L 52 433 L 52 428 ZM 49 428 L 51 428 L 51 433 L 49 433 L 49 428 ZM 53 417 C 53 413.134 56.134 410 60 410 C 63.866 410 67 413.134 67 417 C 67 420.866 63.866 424 60 424 C 56.134 424 53 420.866 53 417 ZM 47 405 L 47 435 L 73 435 L 73 405 L 47 405 ZM 59 413 L 59 416 L 56 416 L 56 418 L 59 418 L 59 421 L 61 421 L 61 418 L 64 418 L 64 416 L 61 416 L 61 413 L 59 413 Z" fill="#2fa3e0"/>		<path d="M 109 428 L 111 428 L 111 433 L 109 433 L 109 428 ZM 97 428 L 99 428 L 99 433 L 97 433 L 97 428 ZM 106 428 L 107 428 L 107 433 L 106 433 L 106 428 ZM 102 428 L 103 428 L 103 433 L 102 433 L 102 428 ZM 100 428 L 101 428 L 101 433 L 100 433 L 100 428 ZM 95 428 L 96 428 L 96 433 L 95 433 L 95 428 ZM 92 428 L 93 428 L 93 433 L 92 433 L 92 428 ZM 89 428 L 91 428 L 91 433 L 89 433 L 89 428 ZM 93 417 C 93 413.134 96.134 410 100 410 C 103.866 410 107 413.134 107 417 C 107 420.866 103.866 424 100 424 C 96.134 424 93 420.866 93 417 ZM 87 405 L 87 435 L 113 435 L 113 405 L 87 405 ZM 99 413 L 99 416 L 96 416 L 96 418 L 99 418 L 99 421 L 101 421 L 101 418 L 104 418 L 104 416 L 101 416 L 101 413 L 99 413 Z" fill="#b6b6b6"/>		<path d="M 10.8333 460 C 10.8333 454.9373 14.9374 450.8333 20 450.8333 C 25.0626 450.8333 29.1667 454.9373 29.1667 460 C 29.1667 465.0627 25.0626 469.1667 20 469.1667 C 14.9374 469.1667 10.8333 465.0627 10.8333 460 ZM 9 460 C 9 466.0752 13.9248 471 20 471 C 26.0752 471 31 466.0752 31 460 C 31 453.9248 26.0752 449 20 449 C 13.9248 449 9 453.9248 9 460 ZM 21 462 C 21 461.5799 21.1458 460.4583 21.4513 460.2101 C 21.9862 459.8472 22.4253 459.3889 22.7882 458.8542 C 23.132 458.3195 23.3229 457.7274 23.3229 457.0781 C 23.3229 456.1042 23.0174 455.3211 22.4063 454.7482 C 21.7951 454.1753 20.9549 453.8889 19.8854 453.8889 C 18.8924 453.8889 18.0711 454.1563 17.4601 454.6719 C 16.849 455.2065 16.5434 455.9514 16.5625 456.9253 L 16.5816 456.9635 L 18.6059 456.9635 C 18.6059 456.5435 18.7396 456.1997 18.9878 455.9705 C 19.217 455.7414 19.5226 455.6268 19.8854 455.6268 C 20.3055 455.6268 20.6493 455.7604 20.8784 456.0278 C 21.1076 456.2951 21.2222 456.6389 21.2222 457.0972 C 21.2222 457.5174 21.1076 457.8993 20.9167 458.243 C 20.7066 458.5868 20.4393 458.8924 20.1146 459.1789 C 19.5226 459.6372 19.3958 460.1286 19.2049 460.4531 C 19.0138 460.7969 19 461.3125 19 462 L 21 462 ZM 21 463 L 19 463 L 19 465 L 21 465 L 21 463 Z" fill="#b6b6b6"/>		<path d="M 50.8333 460 C 50.8333 454.9373 54.9374 450.8333 60 450.8333 C 65.0626 450.8333 69.1667 454.9373 69.1667 460 C 69.1667 465.0627 65.0626 469.1667 60 469.1667 C 54.9374 469.1667 50.8333 465.0627 50.8333 460 ZM 49 460 C 49 466.0752 53.9248 471 60 471 C 66.0752 471 71 466.0752 71 460 C 71 453.9248 66.0752 449 60 449 C 53.9248 449 49 453.9248 49 460 ZM 61 462 C 61 461.5799 61.1458 460.4583 61.4513 460.2101 C 61.9862 459.8472 62.4253 459.3889 62.7882 458.8542 C 63.132 458.3195 63.3229 457.7274 63.3229 457.0781 C 63.3229 456.1042 63.0174 455.3211 62.4063 454.7482 C 61.7951 454.1753 60.9549 453.8889 59.8854 453.8889 C 58.8924 453.8889 58.0711 454.1563 57.4601 454.6719 C 56.849 455.2065 56.5434 455.9514 56.5625 456.9253 L 56.5816 456.9635 L 58.6059 456.9635 C 58.6059 456.5435 58.7396 456.1997 58.9878 455.9705 C 59.217 455.7414 59.5226 455.6268 59.8854 455.6268 C 60.3055 455.6268 60.6493 455.7604 60.8784 456.0278 C 61.1076 456.2951 61.2222 456.6389 61.2222 457.0972 C 61.2222 457.5174 61.1076 457.8993 60.9167 458.243 C 60.7066 458.5868 60.4393 458.8924 60.1146 459.1789 C 59.5226 459.6372 59.3958 460.1286 59.2049 460.4531 C 59.0138 460.7969 59 461.3125 59 462 L 61 462 ZM 61 463 L 59 463 L 59 465 L 61 465 L 61 463 Z" fill="#2fa3e0"/>		<path d="M 90.8333 460 C 90.8333 454.9373 94.9374 450.8333 100 450.8333 C 105.0626 450.8333 109.1667 454.9373 109.1667 460 C 109.1667 465.0627 105.0626 469.1667 100 469.1667 C 94.9374 469.1667 90.8333 465.0627 90.8333 460 ZM 89 460 C 89 466.0752 93.9248 471 100 471 C 106.0752 471 111 466.0752 111 460 C 111 453.9248 106.0752 449 100 449 C 93.9248 449 89 453.9248 89 460 ZM 101 462 C 101 461.5799 101.1458 460.4583 101.4513 460.2101 C 101.9862 459.8472 102.4253 459.3889 102.7882 458.8542 C 103.132 458.3195 103.3229 457.7274 103.3229 457.0781 C 103.3229 456.1042 103.0174 455.3211 102.4063 454.7482 C 101.7951 454.1753 100.9549 453.8889 99.8854 453.8889 C 98.8924 453.8889 98.0711 454.1563 97.4601 454.6719 C 96.849 455.2065 96.5434 455.9514 96.5625 456.9253 L 96.5816 456.9635 L 98.6059 456.9635 C 98.6059 456.5435 98.7396 456.1997 98.9878 455.9705 C 99.217 455.7414 99.5226 455.6268 99.8854 455.6268 C 100.3055 455.6268 100.6493 455.7604 100.8784 456.0278 C 101.1076 456.2951 101.2222 456.6389 101.2222 457.0972 C 101.2222 457.5174 101.1076 457.8993 100.9167 458.243 C 100.7066 458.5868 100.4393 458.8924 100.1146 459.1789 C 99.5226 459.6372 99.3958 460.1286 99.2049 460.4531 C 99.0138 460.7969 99 461.3125 99 462 L 101 462 ZM 101 463 L 99 463 L 99 465 L 101 465 L 101 463 Z" fill="#b6b6b6"/>		<g>			<rect x="9" y="494" width="22" height="1" fill="#f6f6f6"/>			<rect x="9" y="499" width="22" height="1" fill="#f6f6f6"/>			<rect x="9" y="504" width="22" height="1" fill="#f6f6f6"/>		</g>		<g>			<rect x="49" y="494" width="22" height="1" fill="#ffffff"/>			<rect x="49" y="499" width="22" height="1" fill="#ffffff"/>			<rect x="49" y="504" width="22" height="1" fill="#ffffff"/>		</g>		<g>			<rect x="89" y="494" width="22" height="1" fill="#b6b6b6"/>			<rect x="89" y="499" width="22" height="1" fill="#b6b6b6"/>			<rect x="89" y="504" width="22" height="1" fill="#b6b6b6"/>		</g>	</g></svg>