<?xml version="1.0" standalone="no"?><!-- Generator: Adobe Fireworks CS6, Export SVG Extension by Aaron Beall (http://fireworks.abeall.com) . Version: 0.6.0  --><!DOCTYPE svg PUBLIC "-//W3C//DTD SVG 1.1//EN" "http://www.w3.org/Graphics/SVG/1.1/DTD/svg11.dtd"><svg id="exitButton" viewBox="0 0 21 63" style="background-color:#ffffff00" version="1.1"	xmlns="http://www.w3.org/2000/svg" xmlns:xlink="http://www.w3.org/1999/xlink" xml:space="preserve"	x="0px" y="0px" width="21px" height="63px">	<g id="Layer%201">		<g>			<rect x="9" y="9" width="3" height="3" fill="#dbdbdb"/>			<g>				<rect x="11" y="8" width="2" height="2" fill="#dbdbdb"/>				<rect x="12" y="7" width="2" height="2" fill="#dbdbdb"/>				<rect x="13" y="6" width="2" height="2" fill="#dbdbdb"/>				<rect x="14" y="5" width="2" height="2" fill="#dbdbdb"/>			</g>			<g>				<rect x="8" y="8" width="2" height="2" fill="#dbdbdb"/>				<rect x="7" y="7" width="2" height="2" fill="#dbdbdb"/>				<rect x="6" y="6" width="2" height="2" fill="#dbdbdb"/>				<rect x="5" y="5" width="2" height="2" fill="#dbdbdb"/>			</g>			<g>				<rect x="11" y="11" width="2" height="2" fill="#dbdbdb"/>				<rect x="12" y="12" width="2" height="2" fill="#dbdbdb"/>				<rect x="13" y="13" width="2" height="2" fill="#dbdbdb"/>				<rect x="14" y="14" width="2" height="2" fill="#dbdbdb"/>			</g>			<g>				<rect x="8" y="11" width="2" height="2" fill="#dbdbdb"/>				<rect x="7" y="12" width="2" height="2" fill="#dbdbdb"/>				<rect x="6" y="13" width="2" height="2" fill="#dbdbdb"/>				<rect x="5" y="14" width="2" height="2" fill="#dbdbdb"/>			</g>		</g>		<g>			<rect x="9" y="30" width="3" height="3" fill="#379bdb"/>			<g>				<rect x="11" y="29" width="2" height="2" fill="#379bdb"/>				<rect x="12" y="28" width="2" height="2" fill="#379bdb"/>				<rect x="13" y="27" width="2" height="2" fill="#379bdb"/>				<rect x="14" y="26" width="2" height="2" fill="#379bdb"/>			</g>			<g>				<rect x="8" y="29" width="2" height="2" fill="#379bdb"/>				<rect x="7" y="28" width="2" height="2" fill="#379bdb"/>				<rect x="6" y="27" width="2" height="2" fill="#379bdb"/>				<rect x="5" y="26" width="2" height="2" fill="#379bdb"/>			</g>			<g>				<rect x="11" y="32" width="2" height="2" fill="#379bdb"/>				<rect x="12" y="33" width="2" height="2" fill="#379bdb"/>				<rect x="13" y="34" width="2" height="2" fill="#379bdb"/>				<rect x="14" y="35" width="2" height="2" fill="#379bdb"/>			</g>			<g>				<rect x="8" y="32" width="2" height="2" fill="#379bdb"/>				<rect x="7" y="33" width="2" height="2" fill="#379bdb"/>				<rect x="6" y="34" width="2" height="2" fill="#379bdb"/>				<rect x="5" y="35" width="2" height="2" fill="#379bdb"/>			</g>		</g>		<g>			<rect x="9" y="51" width="3" height="3" fill="#aeaeae"/>			<g>				<rect x="11" y="50" width="2" height="2" fill="#aeaeae"/>				<rect x="12" y="49" width="2" height="2" fill="#aeaeae"/>				<rect x="13" y="48" width="2" height="2" fill="#aeaeae"/>				<rect x="14" y="47" width="2" height="2" fill="#aeaeae"/>			</g>			<g>				<rect x="8" y="50" width="2" height="2" fill="#aeaeae"/>				<rect x="7" y="49" width="2" height="2" fill="#aeaeae"/>				<rect x="6" y="48" width="2" height="2" fill="#aeaeae"/>				<rect x="5" y="47" width="2" height="2" fill="#aeaeae"/>			</g>			<g>				<rect x="11" y="53" width="2" height="2" fill="#aeaeae"/>				<rect x="12" y="54" width="2" height="2" fill="#aeaeae"/>				<rect x="13" y="55" width="2" height="2" fill="#aeaeae"/>				<rect x="14" y="56" width="2" height="2" fill="#aeaeae"/>			</g>			<g>				<rect x="8" y="53" width="2" height="2" fill="#aeaeae"/>				<rect x="7" y="54" width="2" height="2" fill="#aeaeae"/>				<rect x="6" y="55" width="2" height="2" fill="#aeaeae"/>				<rect x="5" y="56" width="2" height="2" fill="#aeaeae"/>			</g>		</g>	</g></svg>