<?xml version="1.0" encoding="utf-8"?>
<!-- Generator: Adobe Illustrator 15.1.0, SVG Export Plug-In . SVG Version: 6.00 Build 0)  -->
<!DOCTYPE svg PUBLIC "-//W3C//DTD SVG 1.0//EN" "http://www.w3.org/TR/2001/REC-SVG-20010904/DTD/svg10.dtd">
<svg version="1.0" id="Layer_1" xmlns="http://www.w3.org/2000/svg" xmlns:xlink="http://www.w3.org/1999/xlink" x="0px" y="0px"
	 width="1369.829px" height="693.913px" viewBox="0 0 1369.829 693.913" enable-background="new 0 0 1369.829 693.913"
	 xml:space="preserve">
<g id="XMLID_1_">
	<g>
		<path fill="#EFF2F7" d="M959.88,297.96c0.17,0.17-0.13,0.8,0,1c-0.33,0-0.67,0-1,0c0-0.33,0-0.66,0-1
			C959.08,298.1,959.71,297.8,959.88,297.96z"/>
		<path fill="#EFF2F7" d="M959.88,337.96c-0.13,0.2,0.17,0.83,0,1c-0.17,0.16-0.8-0.14-1,0c0-0.34,0-0.67,0-1
			C959.21,337.96,959.55,337.96,959.88,337.96z"/>
		<path fill="#F1BAB8" d="M959.88,336.96c0,0.33,0,0.66,0,1c-0.33,0-0.67,0-1,0c0-0.34,0-0.67,0-1
			C959.21,336.96,959.55,336.96,959.88,336.96z"/>
		<path fill="#EE848B" d="M959.88,332.96c0,1.33,0,2.66,0,4c-0.33,0-0.67,0-1,0c0-0.67,0-1.34,0-2c0-0.34,0-0.67,0-1
			c0-0.67,0-1.34,0-2c0-1.33,0-2.67,0-4c0-0.67,0-1.33,0-2c0-0.33,0-0.67,0-1c0-0.67,0-1.33,0-2c0-1.33,0-2.67,0-4
			c0.33,0,0.67,0,1,0c0,0.67,0,1.33,0,2c0,0.33,0,0.67,0,1c0,0.67,0,1.33,0,2c0,1.33,0,2.67,0,4c0,0.67,0,1.33,0,2s0,1.33,0,2
			C959.88,332.29,959.88,332.62,959.88,332.96z"/>
		<path fill="#8087B4" d="M959.88,314.96c0,1.33,0,2.67,0,4c-0.33,0-0.67,0-1,0c0-0.67,0-1.33,0-2c0-0.33,0-0.67,0-1
			c0-1.33,0-2.67,0-4c0-0.33,0-0.67,0-1c0-1.33,0-2.67,0-4c0-0.33,0-0.67,0-1c0-0.67,0-1.33,0-2c0-1.33,0-2.66,0-4
			c0.33,0,0.67,0,1,0c0,0.67,0,1.34,0,2c0,0.34,0,0.67,0,1c0,0.67,0,1.34,0,2c0,0.67,0,1.33,0,2s0,1.33,0,2c0,0.33,0,0.67,0,1
			c0,0.67,0,1.33,0,2s0,1.33,0,2C959.88,314.29,959.88,314.63,959.88,314.96z"/>
		<path fill="#B8CBD3" d="M959.88,298.96c0,0.34,0,0.67,0,1c-0.33,0-0.67,0-1,0c0-0.33,0-0.66,0-1
			C959.21,298.96,959.55,298.96,959.88,298.96z"/>
		<path fill="#B8CBD3" d="M958.88,296.96c0.15,0.23-0.12,0.75,0,1c-0.2-0.13-0.83,0.17-1,0c-0.17-0.16,0.13-0.8,0-1
			C958.02,297.1,958.77,296.8,958.88,296.96z"/>
		<path fill="#F1BAB8" d="M958.88,338.96c0,0.33,0,0.66,0,1c-0.2,0.13-0.83-0.17-1,0c0.13-0.2-0.17-0.84,0-1
			C958.05,338.79,958.68,339.09,958.88,338.96z"/>
		<path fill="#EE848B" d="M958.88,337.96c0,0.33,0,0.66,0,1c-0.2,0.13-0.83-0.17-1,0c0.13-0.2-0.17-0.84,0-1
			C958.05,337.79,958.68,338.09,958.88,337.96z"/>
		<path fill="#E23440" d="M958.88,336.96c0,0.33,0,0.66,0,1c-0.2,0.13-0.83-0.17-1,0c-0.17,0.16,0.13,0.8,0,1
			c-0.2,0.13-0.83-0.17-1,0c-0.17,0.16,0.17,0.83,0,1c-0.17,0.16-0.83-0.17-1,0c-0.17,0.16,0.13,0.8,0,1c-0.33,0-0.67,0-1,0
			s-0.67,0-1,0c-0.67,0-1.33,0-2,0c-1.33,0-2.67,0-4,0c-2.67,0-5.33,0-8,0c-0.33,0-0.66,0-1,0c-0.66,0-1.33,0-2,0
			c-1.33,0-2.66,0-4,0c-2.66,0-5.33,0-8,0c-0.33,0-0.66,0-1,0c-0.66,0-1.33,0-2,0c-1.33,0-2.66,0-4,0c-2.66,0-5.33,0-7.99,0
			c-0.34,0-0.67,0-1,0c-0.67,0-1.34,0-2,0c-1.34,0-2.67,0-4,0c-2.67,0-5.34,0-8,0c-0.34,0-0.67,0-1,0c0-0.34,0-0.67,0-1
			c0-0.34,0-0.67,0-1c0.2-0.14,0.83,0.16,1,0c0.16-0.17-0.17-0.84,0-1c0.16-0.17,0.83,0.16,1,0c0.16-0.17-0.14-0.8,0-1
			c0.2-0.14,0.83,0.16,1,0c0.16-0.17-0.14-0.8,0-1c0.33,0,0.66,0,1,0c0.2-0.14,0.83,0.16,1,0c0.16-0.17-0.14-0.8,0-1
			c0.2-0.14,0.83,0.16,1,0c0.16-0.17-0.14-0.8,0-1c0.2-0.14,0.83,0.16,1,0c0.16-0.17-0.17-0.84,0-1c0.16-0.17,0.83,0.16,1,0
			c0.16-0.17-0.14-0.8,0-1c0.33,0,0.66,0,1,0c0.2-0.13,0.83,0.16,1,0c0.16-0.17-0.14-0.8,0-1c0.2-0.13,0.83,0.16,1,0
			c0.16-0.17-0.14-0.8,0-1c0.2-0.13,0.83,0.17,1,0c0.16-0.17-0.14-0.8,0-1c0.2-0.13,0.83,0.17,1,0c0.16-0.17-0.17-0.83,0-1
			c0.16-0.17,0.801,0.13,1,0c0.2-0.13,0.83,0.17,1,0c0.16-0.17-0.14-0.8,0-1c0.2-0.13,0.83,0.17,1,0c0.16-0.17-0.14-0.8,0-1
			c0.2-0.13,0.83,0.17,1,0c0.16-0.17-0.14-0.8,0-1c0.33,0,0.66,0,1,0c0.2-0.13,0.83,0.17,1,0c0.16-0.17-0.17-0.83,0-1
			c0.16-0.17,0.83,0.17,1,0c0.16-0.17-0.14-0.8,0-1c0.2-0.13,0.83,0.17,1,0c0.16-0.17-0.14-0.8,0-1c0.19-0.13,0.83,0.17,1,0
			c0.16-0.17-0.14-0.8,0-1c0.33,0,0.66,0,1,0c0.25-0.12,0.761,0.15,0.99,0c0.16-0.11-0.13-0.86,0-1c0.17-0.17,0.811,0.13,1,0
			c0-0.33,0-0.67,0-1c0.67,0,1.34,0,2,0c1.34,0,2.67,0,4,0c0.67,0,1.34,0,2,0c0.34,0,0.67,0,1,0c1.34,0,2.67,0,4,0
			c0.34,0,0.67,0,1,0c1.34,0,2.67,0,4,0c0.34,0,0.67,0,1,0c0.67,0,1.34,0,2,0c1.34,0,2.67,0,4,0c0.67,0,1.33,0,2,0
			c0.33,0,0.67,0,1,0c1.33,0,2.67,0,4,0c0.33,0,0.67,0,1,0c1.33,0,2.67,0,4,0c0.33,0,0.67,0,1,0c0.67,0,1.33,0,2,0
			c0,1.33,0,2.67,0,4c0,0.67,0,1.33,0,2c0,0.33,0,0.67,0,1c0,0.67,0,1.33,0,2c0,1.33,0,2.67,0,4c0,0.66,0,1.33,0,2
			c0,0.33,0,0.66,0,1C958.88,335.62,958.88,336.29,958.88,336.96z"/>
		<path fill="#2A3681" d="M958.88,316.96c0,0.67,0,1.33,0,2c-0.67,0-1.33,0-2,0c-0.33,0-0.67,0-1,0c-1.33,0-2.67,0-4,0
			c-0.33,0-0.67,0-1,0c-1.33,0-2.67,0-4,0c-0.33,0-0.67,0-1,0c-0.67,0-1.33,0-2,0c-1.33,0-2.66,0-4,0c-0.66,0-1.33,0-2,0
			c-0.33,0-0.66,0-1,0c-1.33,0-2.66,0-4,0c-0.33,0-0.66,0-1,0c-1.33,0-2.66,0-4,0c-0.33,0-0.66,0-1,0c-0.66,0-1.33,0-2,0
			c-1.33,0-2.66,0-4,0c-0.66,0-1.33,0-2,0c-0.13-0.2,0.17-0.83,0-1c-0.16-0.17-0.8,0.13-1,0c-0.13-0.2,0.17-0.83,0-1
			c-0.16-0.17-0.8,0.13-0.99,0c-0.34,0-0.67,0-1,0c-0.14-0.2,0.16-0.83,0-1c-0.17-0.17-0.8,0.13-1,0c-0.14-0.2,0.16-0.83,0-1
			c-0.17-0.17-0.8,0.13-1,0c-0.14-0.2,0.16-0.83,0-1c-0.17-0.17-0.8,0.13-1,0c-0.14-0.2,0.16-0.83,0-1c-0.17-0.17-0.8,0.13-1,0
			c-0.14-0.2,0.16-0.83,0-1c-0.17-0.17-0.8,0.13-1,0c-0.34,0-0.67,0-1,0c-0.14-0.2,0.16-0.83,0-1c-0.17-0.17-0.8,0.13-1,0
			c-0.14-0.2,0.16-0.83,0-1c-0.17-0.17-0.8,0.13-1,0c-0.14-0.2,0.16-0.83,0-1c-0.17-0.17-0.8,0.13-1,0c-0.14-0.2,0.16-0.83,0-1
			c-0.17-0.17-0.8,0.13-1,0c-0.34,0-0.67,0-1,0c-0.14-0.2,0.16-0.83,0-1c-0.17-0.17-0.8,0.13-1,0c-0.14-0.2,0.16-0.83,0-1
			c-0.17-0.17-0.8,0.14-1,0c-0.14-0.2,0.16-0.83,0-1c-0.17-0.17-0.8,0.14-1,0c-0.14-0.2,0.16-0.83,0-1c-0.17-0.16-0.8,0.14-1,0
			c-0.14-0.2,0.16-0.83,0-1c-0.17-0.16-0.8,0.14-1,0c-0.34,0-0.67,0-1,0c-0.14-0.2,0.16-0.83,0-1c-0.17-0.16-0.84,0.17-1,0
			c-0.17-0.16,0.16-0.83,0-1c-0.17-0.16-0.8,0.14-1,0c-0.13-0.25,0.15-0.77,0-1c-0.109-0.16-0.859,0.14-1,0
			c-0.14-0.14,0.16-0.89,0-1c-0.229-0.15-0.75,0.13-1,0c-0.14-0.2,0.16-0.83,0-1c-0.17-0.16-0.8,0.14-1,0c0-0.33,0-0.66,0-1
			c0-0.33,0-0.66,0-1c0.33,0,0.66,0,1,0c0.33,0,0.66,0,1,0c0.66,0,1.33,0,2,0c1.33,0,2.66,0,4,0c2.66,0,5.33,0,8,0
			c0.33,0,0.66,0,1,0c0.66,0,1.33,0,2,0c1.33,0,2.66,0,4,0c2.66,0,5.33,0,7.99,0c0.34,0,0.67,0,1,0c0.67,0,1.34,0,2,0
			c1.34,0,2.67,0,4,0c2.67,0,5.34,0,8,0c0.34,0,0.67,0,1,0c0.67,0,1.34,0,2,0c1.33,0,2.67,0,4,0c2.67,0,5.33,0,8,0
			c0.33,0,0.67,0,1,0c0.13,0.2-0.17,0.84,0,1c0.16,0.16,0.86-0.17,1,0c0.16,0.19-0.17,0.83,0,1s0.83-0.16,1,0
			c0.17,0.17-0.17,0.84,0,1c0.17,0.17,0.8-0.13,1,0c0,0.34,0,0.67,0,1c0,1.34,0,2.67,0,4c0,0.67,0,1.33,0,2c0,0.33,0,0.67,0,1
			c0,1.33,0,2.67,0,4c0,0.33,0,0.67,0,1c0,1.33,0,2.67,0,4C958.88,316.29,958.88,316.63,958.88,316.96z"/>
		<path fill="#8087B4" d="M958.88,297.96c0,0.34,0,0.67,0,1c-0.2-0.13-0.83,0.17-1,0c-0.17-0.16,0.17-0.83,0-1
			C958.05,298.13,958.68,297.83,958.88,297.96z"/>
		<path fill="#F1BAB8" d="M957.88,339.96c-0.14,0.14,0.16,0.89,0,1c-0.229,0.15-0.75-0.13-1,0c0.13-0.2-0.17-0.84,0-1
			C957.05,339.79,957.68,340.09,957.88,339.96z"/>
		<path fill="#B8CBD3" d="M957.88,295.96c0.13,0.2-0.17,0.84,0,1c-0.2-0.13-0.83,0.17-1,0c-0.17-0.16,0.13-0.8,0-1
			C957.21,295.96,957.55,295.96,957.88,295.96z"/>
		<path fill="#8087B4" d="M957.88,296.96c0.13,0.2-0.17,0.84,0,1c-0.17-0.16-0.83,0.17-1,0s0.16-0.81,0-1
			C957.05,297.13,957.68,296.83,957.88,296.96z"/>
		<path fill="#EE848B" d="M957.88,338.96c-0.17,0.16,0.13,0.8,0,1c-0.2,0.13-0.83-0.17-1,0c0.17-0.17-0.17-0.84,0-1
			C957.05,338.79,957.68,339.09,957.88,338.96z"/>
		<path fill="#EFF2F7" d="M956.88,294.96c0.17,0.17-0.13,0.8,0,1c-0.33,0-0.67,0-1,0c0-0.33,0-0.66,0-1
			C956.08,295.1,956.71,294.8,956.88,294.96z"/>
		<path fill="#EFF2F7" d="M956.88,340.96c-0.13,0.2,0.17,0.83,0,1c-0.17,0.16-0.8-0.14-1,0c0-0.34,0-0.67,0-1
			C956.21,340.96,956.55,340.96,956.88,340.96z"/>
		<path fill="#8087B4" d="M956.88,295.96c0.13,0.2-0.17,0.84,0,1c-0.14-0.17-0.84,0.16-1,0c-0.17-0.16,0.13-0.8,0-1
			C956.21,295.96,956.55,295.96,956.88,295.96z"/>
		<path fill="#EE848B" d="M956.88,339.96c-0.17,0.16,0.13,0.8,0,1c-0.33,0-0.67,0-1,0c0.13-0.2-0.17-0.84,0-1
			C956.05,339.79,956.71,340.12,956.88,339.96z"/>
		<path fill="#F1BAB8" d="M955.88,340.96c0,0.33,0,0.66,0,1c-0.33,0-0.67,0-1,0c0-0.34,0-0.67,0-1
			C955.21,340.96,955.55,340.96,955.88,340.96z"/>
		<path fill="#B8CBD3" d="M955.88,294.96c0,0.34,0,0.67,0,1c-0.33,0-0.67,0-1,0c0-0.33,0-0.66,0-1
			C955.21,294.96,955.55,294.96,955.88,294.96z"/>
		<path fill="#EE848B" d="M954.88,340.96c0,0.33,0,0.66,0,1c-2.67,0-5.33,0-8,0c-1.33,0-2.67,0-4,0c-0.66,0-1.33,0-2,0
			c-0.33,0-0.66,0-1,0c-2.66,0-5.33,0-8,0c-1.33,0-2.66,0-4,0c-0.66,0-1.33,0-2,0c-0.33,0-0.66,0-1,0c-2.66,0-5.33,0-7.99,0
			c-1.34,0-2.67,0-4,0c-0.67,0-1.34,0-2,0c-0.34,0-0.67,0-1,0c-2.67,0-5.34,0-8,0c-1.34,0-2.67,0-4,0c-0.67,0-1.34,0-2,0
			c-0.34,0-0.67,0-1,0c0-0.34,0-0.67,0-1c2.66,0,5.33,0,8,0c1.33,0,2.66,0,4,0c0.66,0,1.33,0,2,0c0.33,0,0.66,0,1,0
			c2.66,0,5.33,0,7.99,0c1.34,0,2.67,0,4,0c0.67,0,1.34,0,2,0c0.34,0,0.67,0,1,0c2.67,0,5.34,0,8,0c1.34,0,2.67,0,4,0
			c0.67,0,1.34,0,2,0c0.34,0,0.67,0,1,0c2.67,0,5.33,0,8,0c1.33,0,2.67,0,4,0c0.67,0,1.33,0,2,0
			C954.21,340.96,954.55,340.96,954.88,340.96z"/>
		<path fill="#8087B4" d="M954.88,294.96c0,0.34,0,0.67,0,1c-2.67,0-5.33,0-8,0c-1.33,0-2.67,0-4,0c-0.66,0-1.33,0-2,0
			c-0.33,0-0.66,0-1,0c-2.66,0-5.33,0-8,0c-1.33,0-2.66,0-4,0c-0.66,0-1.33,0-2,0c-0.33,0-0.66,0-1,0c-2.66,0-5.33,0-7.99,0
			c-1.34,0-2.67,0-4,0c-0.67,0-1.34,0-2,0c-0.34,0-0.67,0-1,0c-2.67,0-5.34,0-8,0c-1.34,0-2.67,0-4,0c-0.67,0-1.34,0-2,0
			c-0.34,0-0.67,0-1,0c0-0.33,0-0.66,0-1c0.66,0,1.33,0,2,0c0.33,0,0.66,0,1,0c0.66,0,1.33,0,2,0c0.33,0,0.66,0,1,0
			c0.66,0,1.33,0,2,0c0.33,0,0.66,0,1,0c0.66,0,1.33,0,2,0c0.33,0,0.66,0,1,0c0.66,0,1.33,0,2,0c0.33,0,0.66,0,1,0
			c2.66,0,5.33,0,7.99,0c1.34,0,2.67,0,4,0c0.67,0,1.34,0,2,0c0.34,0,0.67,0,1,0c2.67,0,5.34,0,8,0c1.34,0,2.67,0,4,0
			c0.67,0,1.34,0,2,0c0.67,0,1.34,0,2,0c0.34,0,0.67,0,1,0c0.67,0,1.33,0,2,0c1.33,0,2.67,0,4,0s2.67,0,4,0c0.67,0,1.33,0,2,0
			C954.21,294.96,954.55,294.96,954.88,294.96z"/>
		<path fill="#8087B4" d="M918.88,317.96c0.17,0.17-0.13,0.8,0,1c-0.33,0-0.66,0-1,0c0.01-0.33,0-0.67,0-1
			C918.08,318.09,918.72,317.79,918.88,317.96z"/>
		<path fill="#E66267" d="M918.88,318.96c0,0.33,0,0.67,0,1c-0.189,0.13-0.83-0.17-1,0c0.17-0.17-0.13-0.8,0-1
			C918.22,318.96,918.55,318.96,918.88,318.96z"/>
		<path fill="#2C5FC7" d="M917.88,316.96c0.17,0.17-0.13,0.8,0,1c-0.33,0-0.66,0-0.99,0c0-0.33,0-0.67,0-1
			C917.08,317.09,917.72,316.79,917.88,316.96z"/>
		<path fill="#EFF2F7" d="M917.88,318.96c-0.13,0.2,0.17,0.83,0,1c-0.16,0.17-0.8-0.13-0.99,0c-0.199,0.13-0.84-0.17-1,0
			c-0.17,0.17,0.13,0.8,0,1c-0.199,0.13-0.84-0.17-1,0c-0.17,0.17,0.13,0.8,0,1c-0.199,0.13-0.84-0.17-1,0c-0.17,0.17,0.13,0.8,0,1
			c-0.199,0.13-0.84-0.17-1,0c-0.17,0.17,0.16,0.83,0,1c-0.17,0.17-0.8-0.13-1,0c-0.199,0.13-0.84-0.17-1,0c-0.17,0.17,0.13,0.8,0,1
			c-0.199,0.13-0.84-0.17-1,0c-0.17,0.17,0.13,0.8,0,1c-0.199,0.13-0.84-0.17-1,0c-0.17,0.17,0.13,0.8,0,1c-0.34,0-0.67,0-1,0
			c-0.199,0.13-0.84-0.17-1,0c-0.17,0.17,0.16,0.83,0,1c-0.17,0.17-0.84-0.17-1,0c-0.17,0.17,0.13,0.8,0,1
			c-0.199,0.13-0.84-0.17-1,0c-0.17,0.17,0.13,0.8,0,1c-0.199,0.13-0.84-0.17-1,0c-0.17,0.17,0.13,0.8,0,1c-0.34,0-0.67,0-1,0
			c-0.199,0.13-0.84-0.17-1,0c-0.17,0.16,0.13,0.8,0,1c-0.199,0.13-0.84-0.17-1,0c-0.17,0.16,0.16,0.83,0,1
			c-0.17,0.16-0.84-0.17-1,0c-0.17,0.16,0.13,0.8,0,1c-0.199,0.13-0.84-0.17-1,0c-0.17,0.16,0.13,0.8,0,1c-0.34,0-0.67,0-1,0
			c-0.199,0.13-0.84-0.17-1,0c-0.17,0.16,0.13,0.8,0,1c-0.199,0.13-0.84-0.17-1,0c-0.17,0.16,0.13,0.8,0,1
			c-0.199,0.13-0.84-0.17-1,0c-0.17,0.16,0.16,0.83,0,1c-0.17,0.16-0.84-0.17-1,0c-0.17,0.16,0.13,0.8,0,1c-0.34,0-0.67,0-1,0
			c-0.14-0.2,0.16-0.84,0-1c-0.13-0.13-0.92,0.14-1,0c-0.1-0.18,0-0.79,0-1c0-0.12,0.08-0.94,0-1c-0.199-0.17-0.77,0.13-1,0
			c0-0.67,0-1.34,0-2c0-0.34,0-0.67,0-1c0-0.67,0-1.34,0-2c0-1.33,0-2.67,0-4c0-0.67,0-1.33,0-2c0-0.33,0-0.67,0-1
			c0-0.67,0-1.33,0-2c0-1.33,0-2.67,0-4c0-0.67,0-1.33,0-2c0-0.33,0-0.67,0-1c0-0.67,0-1.33,0-2c0-1.33,0-2.67,0-4
			c0-2.67,0-5.33,0-8c0.15-0.12,0.9,0.16,1,0c0.11-0.16-0.01-0.8,0-1c0.011-0.14-0.1-0.9,0-1c0.141-0.14,0.811,0.07,1,0
			c0.29-0.11,0.7,0.09,1,0c0.33,0,0.66,0,1,0c0.12,0.25-0.159,0.77,0,1c0.11,0.16,0.86-0.14,1,0c0.141,0.14-0.159,0.9,0,1
			c0.23,0.16,0.75-0.12,1,0c0.13,0.2-0.17,0.84,0,1c0.16,0.17,0.83-0.16,1,0c0.16,0.17-0.17,0.84,0,1c0.16,0.17,0.801-0.13,1,0
			c0.33,0,0.66,0,1,0c0.13,0.2-0.17,0.84,0,1c0.16,0.17,0.801-0.13,1,0c0.13,0.2-0.17,0.84,0,1c0.16,0.17,0.801-0.13,1,0
			c0.13,0.2-0.17,0.83,0,1c0.16,0.17,0.801-0.13,1,0c0.13,0.2-0.17,0.83,0,1c0.16,0.17,0.801-0.13,1,0c0.13,0.2-0.17,0.83,0,1
			c0.16,0.17,0.801-0.13,1,0c0.33,0,0.66,0,1,0c0.13,0.2-0.17,0.83,0,1c0.16,0.17,0.801-0.13,1,0c0.13,0.2-0.17,0.83,0,1
			c0.16,0.17,0.801-0.13,1,0c0.13,0.2-0.17,0.83,0,1c0.16,0.17,0.801-0.13,1,0c0.13,0.2-0.17,0.83,0,1c0.16,0.17,0.801-0.13,1,0
			c0.13,0.2-0.17,0.83,0,1c0.16,0.17,0.801-0.13,1,0c0.33,0,0.66,0,1,0c0.13,0.2-0.17,0.83,0,1c0.16,0.17,0.801-0.13,1,0
			c0.13,0.2-0.17,0.83,0,1c0.16,0.17,0.801-0.13,1,0c0.13,0.2-0.17,0.83,0,1c0.16,0.17,0.801-0.13,1,0c0.13,0.2-0.17,0.83,0,1
			c0.16,0.17,0.801-0.13,1,0c0.13,0.2-0.17,0.83,0,1c0.16,0.17,0.801-0.13,1,0c0.33,0,0.66,0,0.99,0
			C917.88,318.29,917.89,318.63,917.88,318.96z M902.89,316.96c-0.14-0.2,0.16-0.83,0-1c-0.17-0.17-0.8,0.13-1,0
			c-0.14-0.2,0.16-0.83,0-1c-0.17-0.17-0.8,0.13-1,0c-0.34,0-0.67,0-1,0c-0.67,0-1.34,0-2,0c-0.34,0-0.67,0-1,0
			c-0.199,0.13-0.84-0.17-1,0c-0.17,0.17,0.13,0.8,0,1c-0.199,0.13-0.84-0.17-1,0c-0.17,0.17,0.13,0.8,0,1c0,0.33,0,0.67,0,1
			c0,0.67,0,1.33,0,2c0,0.33,0,0.67,0,1c0.12,0.25-0.159,0.77,0,1c0.11,0.16,0.86-0.14,1,0c0.16,0.17-0.14,0.8,0,1
			c0.33,0,0.66,0,1,0c0.33,0,0.66,0,1,0c0.66,0,1.33,0,2,0c0.33,0,0.66,0,1,0c0.2-0.13,0.83,0.17,1,0c0.16-0.17-0.14-0.8,0-1
			c0.2-0.13,0.83,0.17,1,0c0.16-0.17-0.14-0.8,0-1c0-0.33,0-0.67,0-1c0-0.67,0-1.33,0-2C902.89,317.63,902.89,317.29,902.89,316.96z
			"/>
		<path fill="#E66267" d="M917.88,319.96c-0.13,0.14,0.16,0.89,0,1c-0.229,0.15-0.74-0.12-0.99,0c0-0.33,0-0.67,0-1
			C917.08,319.83,917.72,320.13,917.88,319.96z"/>
		<path fill="#E9DEDC" d="M916.89,319.96c0,0.33,0,0.67,0,1c-0.34,0-0.67,0-1,0c0.13-0.2-0.17-0.83,0-1
			C916.05,319.79,916.69,320.09,916.89,319.96z"/>
		<path fill="#E9DEDC" d="M916.89,316.96c0,0.33,0,0.67,0,1c-0.199-0.13-0.84,0.17-1,0c-0.17-0.17,0.13-0.8,0-1
			C916.22,316.96,916.55,316.96,916.89,316.96z"/>
		<path fill="#B8CBD3" d="M915.89,315.96c0.16,0.17-0.14,0.8,0,1c-0.199-0.13-0.84,0.17-1,0c-0.17-0.17,0.13-0.8,0-1
			C915.09,316.09,915.72,315.79,915.89,315.96z"/>
		<path fill="#F1BAB8" d="M915.89,320.96c-0.14,0.2,0.16,0.83,0,1c-0.17,0.17-0.81-0.13-1,0c0.13-0.2-0.17-0.83,0-1
			C915.05,320.79,915.69,321.09,915.89,320.96z"/>
		<path fill="#7DABDC" d="M914.89,314.96c0.16,0.17-0.14,0.8,0,1c-0.199-0.13-0.84,0.17-1,0c-0.17-0.17,0.13-0.8,0-1
			C914.09,315.09,914.72,314.79,914.89,314.96z"/>
		<path fill="#EE848B" d="M914.89,321.96c-0.14,0.2,0.16,0.83,0,1c-0.17,0.17-0.8-0.13-1,0c0.13-0.2-0.17-0.83,0-1
			C914.05,321.79,914.69,322.09,914.89,321.96z"/>
		<path fill="#8087B4" d="M913.89,313.96c0.16,0.17-0.14,0.8,0,1c-0.199-0.13-0.84,0.17-1,0c-0.17-0.17,0.13-0.8,0-1
			C913.09,314.09,913.72,313.79,913.89,313.96z"/>
		<path fill="#E66267" d="M913.89,322.96c-0.14,0.2,0.16,0.83,0,1c-0.17,0.17-0.84-0.17-1,0c0.16-0.17-0.17-0.83,0-1
			C913.05,322.79,913.69,323.09,913.89,322.96z"/>
		<path fill="#7B7D84" d="M912.89,312.96c0.16,0.17-0.14,0.8,0,1c-0.199-0.13-0.84,0.17-1,0c-0.17-0.17,0.13-0.8,0-1
			C912.09,313.09,912.72,312.79,912.89,312.96z"/>
		<path fill="#E66267" d="M912.89,323.96c-0.17,0.17,0.16,0.83,0,1c-0.17,0.17-0.8-0.13-1,0c0-0.33,0-0.67,0-1
			C912.09,323.83,912.72,324.13,912.89,323.96z"/>
		<path fill="#2C5FC7" d="M911.89,311.96c0.16,0.17-0.14,0.8,0,1c-0.34,0-0.67,0-1,0c0-0.33,0-0.67,0-1
			C911.09,312.09,911.72,311.79,911.89,311.96z"/>
		<path fill="#E9DEDC" d="M911.89,323.96c0,0.33,0,0.67,0,1c-0.34,0-0.67,0-1,0c0.13-0.2-0.17-0.83,0-1
			C911.05,323.79,911.69,324.09,911.89,323.96z"/>
		<path fill="#F1BAB8" d="M910.89,324.96c-0.14,0.2,0.16,0.83,0,1c-0.17,0.17-0.8-0.13-1,0c0.13-0.2-0.17-0.83,0-1
			C910.05,324.79,910.69,325.09,910.89,324.96z"/>
		<path fill="#E9DEDC" d="M910.89,311.96c0,0.33,0,0.67,0,1c-0.199-0.13-0.84,0.17-1,0c-0.17-0.17,0.13-0.8,0-1
			C910.22,311.96,910.55,311.96,910.89,311.96z"/>
		<path fill="#B8CBD3" d="M909.89,310.96c0.16,0.17-0.14,0.8,0,1c-0.199-0.13-0.84,0.17-1,0c-0.17-0.17,0.13-0.8,0-1
			C909.09,311.09,909.72,310.79,909.89,310.96z"/>
		<path fill="#EE848B" d="M909.89,325.96c-0.14,0.2,0.16,0.83,0,1c-0.17,0.17-0.8-0.13-1,0c0.13-0.2-0.17-0.83,0-1
			C909.05,325.79,909.69,326.09,909.89,325.96z"/>
		<path fill="#7DABDC" d="M908.89,309.96c0.16,0.17-0.14,0.8,0,1c-0.199-0.13-0.84,0.17-1,0c-0.17-0.17,0.13-0.8,0-1
			C908.09,310.09,908.72,309.79,908.89,309.96z"/>
		<path fill="#E66267" d="M908.89,326.96c-0.14,0.2,0.16,0.83,0,1c-0.17,0.17-0.8-0.13-1,0c0-0.33,0-0.67,0-1
			C908.22,326.96,908.55,326.96,908.89,326.96z"/>
		<path fill="#8087B4" d="M907.89,308.96c0.16,0.17-0.14,0.8,0,1c-0.199-0.13-0.84,0.17-1,0c-0.17-0.17,0.13-0.8,0-1
			C907.09,309.09,907.72,308.79,907.89,308.96z"/>
		<path fill="#E9DEDC" d="M907.89,326.96c0,0.33,0,0.67,0,1c-0.199,0.13-0.84-0.17-1,0c0.16-0.17-0.17-0.83,0-1
			C907.05,326.79,907.69,327.09,907.89,326.96z"/>
		<path fill="#2C5FC7" d="M906.89,307.96c0.16,0.17-0.14,0.8,0,1c-0.199-0.13-0.84,0.17-1,0c-0.17-0.17,0.13-0.8,0-1
			C906.09,308.09,906.72,307.79,906.89,307.96z"/>
		<path fill="#E9DEDC" d="M906.89,327.96c-0.17,0.17,0.16,0.83,0,1c-0.17,0.17-0.8-0.13-1,0c0.13-0.2-0.17-0.83,0-1
			C906.05,327.79,906.72,328.13,906.89,327.96z"/>
		<path fill="#F1BAB8" d="M905.89,328.96c-0.14,0.2,0.16,0.83,0,1c-0.17,0.17-0.8-0.13-1,0c0.13-0.2-0.17-0.83,0-1
			C905.05,328.79,905.69,329.09,905.89,328.96z"/>
		<path fill="#E9DEDC" d="M904.89,306.96c0.16,0.17-0.14,0.8,0,1c-0.199-0.13-0.84,0.17-1,0c-0.17-0.17,0.13-0.8,0-1
			C904.09,307.09,904.72,306.79,904.89,306.96z"/>
		<path fill="#EE848B" d="M904.89,329.96c-0.14,0.2,0.16,0.83,0,1c-0.17,0.16-0.8-0.13-1,0c0.13-0.2-0.17-0.83,0-1
			C904.05,329.79,904.69,330.09,904.89,329.96z"/>
		<path fill="#B8CBD3" d="M903.89,305.96c0.16,0.17-0.14,0.8,0,1c-0.199-0.13-0.84,0.17-1,0c-0.17-0.17,0.13-0.8,0-1
			C903.09,306.1,903.72,305.79,903.89,305.96z"/>
		<path fill="#E66267" d="M903.89,330.96c-0.14,0.2,0.16,0.83,0,1c-0.17,0.16-0.8-0.13-1,0c0-0.33,0-0.67,0-1
			C903.22,330.96,903.55,330.96,903.89,330.96z"/>
		<path fill="#7DABDC" d="M902.89,304.96c0.16,0.17-0.14,0.8,0,1c-0.199-0.13-0.84,0.17-1,0c-0.17-0.17,0.13-0.8,0-1
			C902.09,305.1,902.72,304.79,902.89,304.96z"/>
		<path fill="#E9DEDC" d="M902.89,315.96c0.16,0.17-0.14,0.8,0,1c-0.34,0-0.67,0-1,0c-0.14-0.2,0.16-0.83,0-1
			C902.09,316.09,902.72,315.79,902.89,315.96z"/>
		<path fill="#E9DEDC" d="M902.89,320.96c-0.14,0.2,0.16,0.83,0,1c-0.17,0.17-0.8-0.13-1,0c0.16-0.17-0.14-0.8,0-1
			C902.22,320.96,902.55,320.96,902.89,320.96z"/>
		<path fill="#E9DEDC" d="M902.89,330.96c0,0.33,0,0.67,0,1c-0.34,0-0.67,0-1,0c0.13-0.2-0.17-0.84,0-1
			C902.05,330.79,902.69,331.09,902.89,330.96z"/>
		<path fill="#F9C970" d="M902.89,319.96c0,0.33,0,0.67,0,1c-0.34,0-0.67,0-1,0c0.13-0.2-0.17-0.83,0-1
			C902.05,319.79,902.69,320.09,902.89,319.96z"/>
		<path fill="#F0BE3C" d="M902.89,317.96c0,0.67,0,1.33,0,2c-0.199,0.13-0.84-0.17-1,0c-0.17,0.17,0.13,0.8,0,1
			c-0.14,0.2,0.16,0.83,0,1c-0.17,0.17-0.8-0.13-1,0c-0.199,0.13-0.84-0.17-1,0c-0.17,0.17,0.13,0.8,0,1c-0.67,0-1.34,0-2,0
			c-0.14-0.2,0.16-0.83,0-1c-0.17-0.17-0.8,0.13-1,0c-0.199-0.13-0.84,0.17-1,0c-0.17-0.17,0.13-0.8,0-1c-0.14-0.2,0.16-0.83,0-1
			c-0.17-0.17-0.8,0.13-1,0c0-0.67,0-1.33,0-2c0.2-0.13,0.83,0.17,1,0c0.16-0.17-0.14-0.8,0-1c0.13-0.2-0.17-0.83,0-1
			c0.16-0.17,0.801,0.13,1,0c0.2-0.13,0.83,0.17,1,0c0.16-0.17-0.14-0.8,0-1c0.66,0,1.33,0,2,0c0.13,0.2-0.17,0.83,0,1
			c0.16,0.17,0.801-0.13,1,0c0.2,0.13,0.83-0.17,1,0c0.16,0.17-0.14,0.8,0,1c0.13,0.2-0.17,0.83,0,1
			C902.05,318.13,902.69,317.83,902.89,317.96z"/>
		<path fill="#F9C970" d="M902.89,316.96c0,0.33,0,0.67,0,1c-0.199-0.13-0.84,0.17-1,0c-0.17-0.17,0.13-0.8,0-1
			C902.22,316.96,902.55,316.96,902.89,316.96z"/>
		<path fill="#8087B4" d="M901.89,303.96c0.16,0.17-0.14,0.8,0,1c-0.199-0.13-0.84,0.17-1,0c-0.17-0.16,0.13-0.8,0-1
			C901.09,304.1,901.72,303.8,901.89,303.96z"/>
		<path fill="#E9DEDC" d="M901.89,314.96c0.16,0.17-0.14,0.8,0,1c-0.17-0.17-0.8,0.13-1,0c0-0.33,0-0.67,0-1
			C901.09,315.09,901.72,314.79,901.89,314.96z"/>
		<path fill="#E9DEDC" d="M901.89,321.96c-0.14,0.2,0.16,0.83,0,1c-0.17,0.17-0.8-0.13-1,0c0-0.33,0-0.67,0-1
			C901.09,321.83,901.72,322.13,901.89,321.96z"/>
		<path fill="#F1BAB8" d="M901.89,331.96c-0.14,0.2,0.16,0.83,0,1c-0.17,0.16-0.84-0.17-1,0c0.16-0.17-0.17-0.84,0-1
			C901.05,331.79,901.69,332.09,901.89,331.96z"/>
		<path fill="#2C5FC7" d="M900.89,302.96c0.16,0.17-0.14,0.8,0,1c-0.199-0.13-0.84,0.17-1,0c-0.17-0.16,0.13-0.8,0-1
			C900.09,303.1,900.72,302.8,900.89,302.96z"/>
		<path fill="#F1BAB8" d="M900.89,332.96c-0.17,0.16,0.16,0.83,0,1c-0.17,0.16-0.8-0.14-1,0c0.13-0.2-0.17-0.84,0-1
			C900.05,332.79,900.72,333.12,900.89,332.96z"/>
		<path fill="#F9C970" d="M900.89,321.96c0,0.33,0,0.67,0,1c-0.34,0-0.67,0-1,0c0.13-0.2-0.17-0.83,0-1
			C900.05,321.79,900.69,322.09,900.89,321.96z"/>
		<path fill="#F9C970" d="M900.89,314.96c0,0.33,0,0.67,0,1c-0.199-0.13-0.84,0.17-1,0c-0.17-0.17,0.13-0.8,0-1
			C900.22,314.96,900.55,314.96,900.89,314.96z"/>
		<path fill="#EE848B" d="M899.89,333.96c-0.14,0.2,0.16,0.83,0,1c-0.17,0.16-0.8-0.14-1,0c0.13-0.2-0.17-0.84,0-1
			C899.05,333.79,899.69,334.09,899.89,333.96z"/>
		<path fill="#B8CBD3" d="M898.89,301.96c0.16,0.17-0.14,0.8,0,1c-0.199-0.13-0.84,0.17-1,0c-0.17-0.16,0.16-0.83,0-1
			C898.05,302.13,898.72,301.8,898.89,301.96z"/>
		<path fill="#E66267" d="M898.89,334.96c-0.14,0.2,0.16,0.83,0,1c-0.17,0.16-0.8-0.14-1,0c0-0.34,0-0.67,0-1
			C898.22,334.96,898.55,334.96,898.89,334.96z"/>
		<path fill="#B8CBD3" d="M897.89,300.96c0.16,0.17-0.17,0.84,0,1c-0.17-0.16-0.84,0.17-1,0c-0.17-0.16,0.13-0.8,0-1
			C897.09,301.1,897.72,300.8,897.89,300.96z"/>
		<path fill="#F9C970" d="M897.89,314.96c-0.14,0.2,0.16,0.83,0,1c-0.17,0.17-0.8-0.13-1,0c0-0.33,0-0.67,0-1
			C897.22,314.96,897.55,314.96,897.89,314.96z"/>
		<path fill="#F9C970" d="M897.89,321.96c0.16,0.17-0.14,0.8,0,1c-0.34,0-0.67,0-1,0c0-0.33,0-0.67,0-1
			C897.09,322.09,897.72,321.79,897.89,321.96z"/>
		<path fill="#E9DEDC" d="M897.89,334.96c0,0.33,0,0.66,0,1c-0.34,0-0.67,0-1,0c0.13-0.2-0.17-0.84,0-1
			C897.05,334.79,897.69,335.09,897.89,334.96z"/>
		<path fill="#8087B4" d="M896.89,299.96c0.15,0.23-0.13,0.75,0,1c-0.25-0.12-0.77,0.16-1,0c-0.159-0.1,0.141-0.86,0-1
			C896.03,300.1,896.78,299.8,896.89,299.96z"/>
		<path fill="#F1BAB8" d="M896.89,335.96c-0.14,0.2,0.16,0.83,0,1c-0.17,0.16-0.8-0.14-1,0c0.13-0.2-0.17-0.84,0-1
			C896.05,335.79,896.69,336.09,896.89,335.96z"/>
		<path fill="#E9DEDC" d="M896.89,321.96c0,0.33,0,0.67,0,1c-0.34,0-0.67,0-1,0c-0.14-0.2,0.16-0.83,0-1
			C896.05,322.13,896.69,321.83,896.89,321.96z"/>
		<path fill="#E9DEDC" d="M896.89,314.96c0,0.33,0,0.67,0,1c-0.199,0.13-0.84-0.17-1,0c0.13-0.2-0.17-0.83,0-1
			C896.05,314.79,896.69,315.09,896.89,314.96z"/>
		<path fill="#8087B4" d="M895.89,298.96c0.16,0.11-0.14,0.86,0,1c-0.14-0.14-0.89,0.16-1,0c-0.159-0.23,0.12-0.75,0-1
			C895.14,299.09,895.66,298.81,895.89,298.96z"/>
		<path fill="#F9C970" d="M895.89,316.96c-0.14,0.2,0.16,0.83,0,1c-0.17,0.17-0.8-0.13-1,0c0-0.33,0-0.67,0-1
			C895.22,316.96,895.55,316.96,895.89,316.96z"/>
		<path fill="#F9C970" d="M895.89,319.96c0.16,0.17-0.14,0.8,0,1c-0.34,0-0.67,0-1,0c0-0.33,0-0.67,0-1
			C895.09,320.09,895.72,319.79,895.89,319.96z"/>
		<path fill="#EE848B" d="M895.89,336.96c-0.14,0.2,0.16,0.83,0,1c-0.17,0.16-0.84-0.17-1,0c0.16-0.17-0.17-0.84,0-1
			C895.05,336.79,895.69,337.09,895.89,336.96z"/>
		<path fill="#E9DEDC" d="M895.89,315.96c-0.17,0.17,0.13,0.8,0,1c-0.34,0-0.67,0-1,0c0.13-0.2-0.17-0.83,0-1
			C895.05,315.79,895.69,316.09,895.89,315.96z"/>
		<path fill="#E9DEDC" d="M895.89,320.96c0.13,0.2-0.17,0.83,0,1c-0.14-0.14-0.89,0.16-1,0c-0.159-0.23,0.12-0.75,0-1
			C895.22,320.96,895.55,320.96,895.89,320.96z"/>
		<path fill="#2C5FC7" d="M894.89,297.96c0.16,0.17-0.14,0.8,0,1c-0.34,0-0.67,0-1,0c0-0.33,0-0.66,0-1
			C894.09,298.1,894.72,297.8,894.89,297.96z"/>
		<path fill="#EE848B" d="M894.89,337.96c-0.17,0.16,0.16,0.83,0,1c-0.17,0.16-0.8-0.14-1,0c0.13-0.2-0.17-0.84,0-1
			C894.05,337.79,894.72,338.12,894.89,337.96z"/>
		<path fill="#F1BAB8" d="M894.89,340.96c0,0.33,0,0.66,0,1c-0.34,0-0.67,0-1,0c0-0.34,0-0.67,0-1
			C894.22,340.96,894.55,340.96,894.89,340.96z"/>
		<path fill="#B8CBD3" d="M894.89,294.96c0,0.34,0,0.67,0,1c-0.34,0-0.67,0-1,0c0-0.33,0-0.66,0-1
			C894.22,294.96,894.55,294.96,894.89,294.96z"/>
		<path fill="#EFF2F7" d="M893.89,340.96c0,0.33,0,0.66,0,1c-0.199-0.14-0.84,0.16-1,0c-0.17-0.17,0.13-0.8,0-1
			C893.22,340.96,893.55,340.96,893.89,340.96z"/>
		<path fill="#EE848B" d="M893.89,339.96c0,0.33,0,0.66,0,1c-0.34,0-0.67,0-1,0c0-0.34,0-0.67,0-1
			C893.22,339.96,893.55,339.96,893.89,339.96z"/>
		<path fill="#E66267" d="M893.89,338.96c0,0.33,0,0.66,0,1c-0.34,0-0.67,0-1,0c0-0.34,0-0.67,0-1
			C893.22,338.96,893.55,338.96,893.89,338.96z"/>
		<path fill="#7DABDC" d="M893.89,296.96c0,0.34,0,0.67,0,1c-0.199-0.13-0.84,0.17-1,0c-0.17-0.16,0.13-0.8,0-1
			C893.22,296.96,893.55,296.96,893.89,296.96z"/>
		<path fill="#8087B4" d="M893.89,295.96c0,0.34,0,0.67,0,1c-0.34,0-0.67,0-1,0c0-0.33,0-0.66,0-1
			C893.22,295.96,893.55,295.96,893.89,295.96z"/>
		<path fill="#EFF2F7" d="M893.89,294.96c0,0.34,0,0.67,0,1c-0.34,0-0.67,0-1,0c0.13-0.2-0.17-0.83,0-1
			C893.05,294.8,893.69,295.1,893.89,294.96z"/>
		<path fill="#F1BAB8" d="M892.89,339.96c0,0.33,0,0.66,0,1c-0.199-0.14-0.84,0.16-1,0c-0.029-0.04-0.029-0.97,0-1
			C892.05,339.79,892.69,340.09,892.89,339.96z"/>
		<path fill="#B8CBD3" d="M892.89,295.96c0,0.34,0,0.67,0,1c-0.199-0.13-0.84,0.17-1,0c-0.029-0.03-0.029-0.96,0-1
			C892.05,295.8,892.69,296.1,892.89,295.96z"/>
	</g>
	<g>
	</g>
</g>
</svg>
