<?xml version="1.0" standalone="no"?><!-- Generator: Adobe Fireworks CS6, Export SVG Extension by Aaron Beall (http://fireworks.abeall.com) . Version: 0.6.0  --><!DOCTYPE svg PUBLIC "-//W3C//DTD SVG 1.1//EN" "http://www.w3.org/Graphics/SVG/1.1/DTD/svg11.dtd"><svg id="fundSourcesIcon" viewBox="0 0 64 80" style="background-color:#ffffff00" version="1.1"	xmlns="http://www.w3.org/2000/svg" xmlns:xlink="http://www.w3.org/1999/xlink" xml:space="preserve"	x="0px" y="0px" width="64px" height="80px">	<g id="Layer%201">		<path d="M 5 8.8333 C 5 6.3327 6.3327 5 8.8333 5 L 55.1667 5 C 57.6673 5 59 6.3327 59 8.8333 L 59 31.1667 C 59 33.6673 57.6673 35 55.1667 35 L 8.8333 35 C 6.3327 35 5 33.6673 5 31.1667 L 5 8.8333 Z" fill="#ffffff"/>		<path d="M 7 10.8333 C 7 8.3327 8.3327 7 10.8333 7 L 53.1667 7 C 55.6673 7 57 8.3327 57 10.8333 L 57 29.1667 C 57 31.6673 55.6673 33 53.1667 33 L 10.8333 33 C 8.3327 33 7 31.6673 7 29.1667 L 7 10.8333 ZM 5 8.8333 L 5 31.1667 C 5 33.6673 6.3327 35 8.8333 35 L 55.1667 35 C 57.6673 35 59 33.6673 59 31.1667 L 59 8.8333 C 59 6.3327 57.6673 5 55.1667 5 L 8.8333 5 C 6.3327 5 5 6.3327 5 8.8333 Z" fill="#eeeeee"/>		<path d="M 5 48.8333 C 5 46.3327 6.3327 45 8.8333 45 L 55.1667 45 C 57.6673 45 59 46.3327 59 48.8333 L 59 71.1667 C 59 73.6673 57.6673 75 55.1667 75 L 8.8333 75 C 6.3327 75 5 73.6673 5 71.1667 L 5 48.8333 Z" fill="#ffffff"/>		<path d="M 7 50.8333 C 7 48.3327 8.3327 47 10.8333 47 L 53.1667 47 C 55.6673 47 57 48.3327 57 50.8333 L 57 69.1667 C 57 71.6673 55.6673 73 53.1667 73 L 10.8333 73 C 8.3327 73 7 71.6673 7 69.1667 L 7 50.8333 ZM 5 48.8333 L 5 71.1667 C 5 73.6673 6.3327 75 8.8333 75 L 55.1667 75 C 57.6673 75 59 73.6673 59 71.1667 L 59 48.8333 C 59 46.3327 57.6673 45 55.1667 45 L 8.8333 45 C 6.3327 45 5 46.3327 5 48.8333 Z" fill="#eeeeee"/>	</g>	<g id="Layer%203">		<g>			<path d="M 51 18 L 44.1676 18.1356 C 43.8468 18.1356 43.5834 18.3987 43.5826 18.7204 L 43.5826 19.0145 C 42.9911 18.5104 42.038 18.1325 40.5682 18.1325 L 38.2069 18.1325 C 37.8861 18.1325 37.6229 18.3957 37.6221 18.7172 L 37.6221 23.3611 L 34.3421 18.5338 C 34.1695 18.2629 33.8148 18.041 33.3849 18.041 C 32.9551 18.041 32.6021 18.2638 32.4315 18.5362 L 29.4045 23.324 L 29.4045 18.7204 C 29.4048 18.3987 29.1423 18.1356 28.8214 18.1356 L 26.9297 18.1356 C 26.4792 18.1356 26.3346 18.2958 26.2131 18.4988 L 24.7392 20.8458 L 23.2251 18.4988 C 23.1036 18.2958 22.9589 18.1356 22.5084 18.1356 L 20.5171 18.1356 C 20.1962 18.1356 19.9381 18.3987 19.9435 18.7203 L 19.9435 22.5833 C 19.5126 21.0499 17.2564 20.7802 16.2947 20.6167 C 15.2483 20.4389 15.3662 19.8872 16.4491 19.8819 C 17.6898 19.8759 18.7576 20.3455 19 20.4063 L 19 18.8721 C 19 18.618 18.8575 18.4306 18.5713 18.3633 C 13.8873 17.2623 13 19.1429 13 20.2277 C 13 22.2448 15.7089 22.5567 16.7849 22.7397 C 17.8416 22.9192 17.7594 23.5398 16.4729 23.546 C 14.9989 23.5531 13.3459 23.0723 13.0793 23.0054 L 13.0793 24.6929 C 13.0793 24.9725 13.2361 25.1786 13.5509 25.2527 C 18.0347 26.3067 19.61 24.8456 19.9435 23.6391 L 19.9435 24.8838 C 19.9435 25.2054 20.2059 25.4686 20.5269 25.4686 L 21.6393 25.4686 C 21.9602 25.4686 22.2228 25.2054 22.2228 24.8838 L 22.2228 20.9786 L 23.7747 23.2518 C 23.9473 23.523 24.302 23.7448 24.7318 23.7448 C 25.1617 23.7448 25.5146 23.5218 25.6852 23.2494 L 27.1271 21.0107 L 27.1271 24.8838 C 27.1268 25.2054 27.3893 25.4686 27.7102 25.4688 L 29.9234 25.4693 C 30.2443 25.4693 30.6159 25.3091 30.7373 25.106 L 33.3856 20.902 L 34.5077 22.6692 L 33.7522 22.6692 C 33.3446 22.6692 33.03 22.8926 32.8604 23.1657 L 32.1094 24.3777 L 35.6008 24.3777 L 36.064 25.106 C 36.1854 25.3091 36.557 25.4693 36.878 25.4693 L 39.3198 25.4682 C 39.6406 25.4682 39.8987 25.205 39.8932 24.8834 L 39.9027 19.8813 L 40.4293 19.8813 C 41.8075 19.8813 42.196 20.6058 42.196 21.0687 C 42.196 21.7273 41.6024 22.0048 41.0647 22.1419 C 40.8465 22.199 40.6854 22.3981 40.6854 22.6347 C 40.6854 22.7411 40.718 22.8399 40.7736 22.9216 L 42.1762 24.9569 C 42.2517 25.0671 42.599 25.4688 43.2123 25.4688 C 43.539 25.4688 44.6994 25.4686 45.194 25.4688 L 43.1078 22.6502 C 43.8438 22.276 44.4247 21.687 44.4247 20.7247 C 44.4247 20.5229 44.39 20.298 44.3119 20.0677 L 46.1063 20.0677 L 46.1063 25.4688 L 47.9024 25.4688 C 48.2232 25.4688 48.4838 25.2054 48.4836 24.8838 L 48.4836 20.0677 L 50.3438 20.0677 C 50.8382 20.0677 50.9993 19.6915 50.9992 19.58 C 50.9988 19.5502 50.9995 18.6181 51 18 Z" fill="#009cde"/>			<g>				<rect x="24" y="30" width="1" height="1" fill="#009cde"/>				<rect x="41" y="30" width="1" height="1" fill="#009cde"/>				<rect x="36" y="30" width="1" height="1" fill="#009cde"/>				<rect x="28" y="30" width="1" height="1" fill="#009cde"/>				<rect x="48" y="30" width="1" height="1" fill="#009cde"/>				<rect x="43" y="29" width="1" height="1" fill="#009cde"/>				<rect x="24" y="29" width="1" height="1" fill="#009cde"/>				<rect x="47" y="29" width="1" height="1" fill="#009cde"/>				<rect x="41" y="29" width="1" height="1" fill="#009cde"/>				<rect x="36" y="29" width="1" height="1" fill="#009cde"/>				<rect x="30" y="29" width="1" height="1" fill="#009cde"/>				<rect x="28" y="29" width="1" height="1" fill="#009cde"/>				<rect x="49" y="29" width="1" height="1" fill="#009cde"/>				<rect x="42" y="29" width="1" height="1" fill="#009cde"/>				<rect x="39" y="29" width="1" height="1" fill="#009cde"/>				<rect x="34" y="29" width="1" height="1" fill="#009cde"/>				<rect x="24" y="28" width="1" height="1" fill="#009cde"/>				<rect x="46" y="28" width="1" height="1" fill="#009cde"/>				<rect x="41" y="28" width="1" height="1" fill="#009cde"/>				<rect x="36" y="28" width="1" height="1" fill="#009cde"/>				<rect x="30" y="28" width="1" height="1" fill="#009cde"/>				<rect x="25" y="28" width="1" height="1" fill="#009cde"/>				<rect x="47" y="28" width="1" height="1" fill="#009cde"/>				<rect x="42" y="27" width="1" height="1" fill="#009cde"/>				<rect x="42" y="30" width="1" height="1" fill="#009cde"/>				<rect x="37" y="28" width="1" height="1" fill="#009cde"/>				<rect x="31" y="27" width="1" height="1" fill="#009cde"/>				<rect x="31" y="30" width="1" height="1" fill="#009cde"/>				<rect x="26" y="29" width="1" height="1" fill="#009cde"/>				<rect x="48" y="29" width="1" height="1" fill="#009cde"/>				<rect x="43" y="27" width="1" height="1" fill="#009cde"/>				<rect x="43" y="30" width="1" height="1" fill="#009cde"/>				<rect x="38" y="29" width="1" height="1" fill="#009cde"/>				<rect x="32" y="27" width="1" height="1" fill="#009cde"/>				<rect x="32" y="30" width="1" height="1" fill="#009cde"/>				<rect x="27" y="28" width="1" height="1" fill="#009cde"/>				<rect x="49" y="28" width="1" height="1" fill="#009cde"/>				<rect x="44" y="27" width="1" height="1" fill="#009cde"/>				<rect x="44" y="30" width="1" height="1" fill="#009cde"/>				<rect x="39" y="30" width="1" height="1" fill="#009cde"/>				<rect x="33" y="27" width="1" height="1" fill="#009cde"/>				<rect x="33" y="30" width="1" height="1" fill="#009cde"/>				<rect x="28" y="28" width="1" height="1" fill="#009cde"/>				<rect x="50" y="28" width="1" height="1" fill="#009cde"/>				<rect x="39" y="28" width="1" height="1" fill="#009cde"/>				<rect x="34" y="28" width="1" height="1" fill="#009cde"/>				<rect x="24" y="27" width="1" height="1" fill="#009cde"/>				<rect x="46" y="27" width="1" height="1" fill="#009cde"/>				<rect x="41" y="27" width="1" height="1" fill="#009cde"/>				<rect x="36" y="27" width="1" height="1" fill="#009cde"/>				<rect x="28" y="27" width="1" height="1" fill="#009cde"/>				<rect x="50" y="27" width="1" height="1" fill="#009cde"/>				<rect x="39" y="27" width="1" height="1" fill="#009cde"/>			</g>			<g>				<g>					<rect x="19" y="11" width="1" height="3" fill="#dde750"/>					<rect x="18" y="12" width="3" height="1" fill="#dde750"/>					<rect x="18" y="11" width="1" height="1" fill="#f3f6bf"/>					<rect x="18" y="13" width="1" height="1" fill="#f3f6bf"/>					<rect x="20" y="13" width="1" height="1" fill="#f3f6bf"/>					<rect x="20" y="11" width="1" height="1" fill="#f3f6bf"/>				</g>				<g>					<rect x="37" y="11" width="1" height="3" fill="#dde750"/>					<rect x="36" y="12" width="3" height="1" fill="#dde750"/>					<rect x="36" y="11" width="1" height="1" fill="#f3f6bf"/>					<rect x="36" y="13" width="1" height="1" fill="#f3f6bf"/>					<rect x="38" y="13" width="1" height="1" fill="#f3f6bf"/>					<rect x="38" y="11" width="1" height="1" fill="#f3f6bf"/>				</g>				<g>					<rect x="24" y="14" width="1" height="3" fill="#009cde"/>					<rect x="23" y="15" width="3" height="1" fill="#009cde"/>					<rect x="23" y="14" width="1" height="1" fill="#9fdaf3"/>					<rect x="23" y="16" width="1" height="1" fill="#9fdaf3"/>					<rect x="25" y="16" width="1" height="1" fill="#9fdaf3"/>					<rect x="25" y="14" width="1" height="1" fill="#9fdaf3"/>				</g>				<g>					<rect x="26" y="8" width="1" height="3" fill="#71c5e8"/>					<rect x="25" y="9" width="3" height="1" fill="#71c5e8"/>					<rect x="25" y="8" width="1" height="1" fill="#9dd7ef"/>					<rect x="25" y="10" width="1" height="1" fill="#9dd7ef"/>					<rect x="27" y="10" width="1" height="1" fill="#9dd7ef"/>					<rect x="27" y="8" width="1" height="1" fill="#9dd7ef"/>				</g>				<g>					<rect x="41" y="10" width="1" height="3" fill="#71c5e8"/>					<rect x="40" y="11" width="3" height="1" fill="#71c5e8"/>					<rect x="40" y="10" width="1" height="1" fill="#9dd7ef"/>					<rect x="40" y="12" width="1" height="1" fill="#9dd7ef"/>					<rect x="42" y="12" width="1" height="1" fill="#9dd7ef"/>					<rect x="42" y="10" width="1" height="1" fill="#9dd7ef"/>				</g>				<g>					<g>						<path d="M 28.3462 12.6621 C 28.3462 12.0554 28.837 11.5635 29.4421 11.5635 C 30.0478 11.5635 30.5385 12.0554 30.5385 12.6621 C 30.5385 13.2687 30.0478 13.7607 29.4421 13.7607 C 28.837 13.7607 28.3462 13.2687 28.3462 12.6621 Z" fill="#e0004d"/>					</g>					<rect x="29" y="11" width="1" height="3" fill="#e0004d"/>					<rect x="28" y="12" width="3" height="1" fill="#e0004d"/>					<rect x="28" y="11" width="1" height="1" fill="#f9cfdd"/>					<rect x="28" y="13" width="1" height="1" fill="#f9cfdd"/>					<rect x="30" y="13" width="1" height="1" fill="#f9cfdd"/>					<rect x="30" y="11" width="1" height="1" fill="#f9cfdd"/>				</g>				<g>					<rect x="34" y="9" width="1" height="3" fill="#e0004d"/>					<rect x="33" y="10" width="3" height="1" fill="#e0004d"/>					<rect x="33" y="9" width="1" height="1" fill="#f9cfdd"/>					<rect x="33" y="11" width="1" height="1" fill="#f9cfdd"/>					<rect x="35" y="11" width="1" height="1" fill="#f9cfdd"/>					<rect x="35" y="9" width="1" height="1" fill="#f9cfdd"/>				</g>				<g>					<rect x="34" y="14" width="1" height="3" fill="#b9d9eb"/>					<rect x="33" y="15" width="3" height="1" fill="#b9d9eb"/>					<rect x="33" y="14" width="1" height="1" fill="#e9f3f9"/>					<rect x="33" y="16" width="1" height="1" fill="#e9f3f9"/>					<rect x="35" y="16" width="1" height="1" fill="#e9f3f9"/>					<rect x="35" y="14" width="1" height="1" fill="#e9f3f9"/>				</g>			</g>			<rect x="29" y="23" width="1" height="1" fill="#0fa2e0"/>			<rect x="37" y="23" width="1" height="1" fill="#0fa2e0"/>		</g>	</g>	<g id="Layer%204">		<g>			<path d="M 40.0073 72 L 40.6251 71.9837 L 41.2348 71.9393 L 41.8326 71.8625 L 42.4262 71.7572 L 43.0035 71.6237 L 43.5729 71.4617 L 44.1301 71.2714 L 44.6753 71.0569 L 45.2081 70.8141 L 45.7251 70.551 L 46.2258 70.2594 L 46.7144 69.9477 L 47.1827 69.6118 L 47.635 69.2556 L 48.0711 68.879 L 48.487 68.4784 L 48.8869 68.0614 L 49.2623 67.6242 L 49.6177 67.1708 L 49.9528 66.7014 L 50.2637 66.2116 L 50.5545 65.7095 L 50.817 65.1914 L 51.0592 64.6571 L 51.2732 64.1108 L 51.463 63.5519 L 51.6246 62.9813 L 51.7578 62.4024 L 51.8628 61.8073 L 51.9395 61.2083 L 51.9839 60.5971 L 52 59.9778 L 51.9839 59.3624 L 51.9395 58.7553 L 51.8628 58.1562 L 51.7578 57.5693 L 51.6246 56.9904 L 51.463 56.4237 L 51.2732 55.8651 L 51.0592 55.3226 L 50.817 54.7924 L 50.5545 54.2742 L 50.2637 53.7764 L 49.9528 53.2865 L 49.6177 52.8169 L 49.2623 52.3676 L 48.8869 51.9305 L 48.487 51.5136 L 48.0711 51.1168 L 47.635 50.7404 L 47.1827 50.3842 L 46.7144 50.0482 L 46.2258 49.7365 L 45.7251 49.4491 L 45.2081 49.186 L 44.6753 48.9431 L 44.1301 48.7286 L 43.5729 48.5383 L 43.0035 48.3764 L 42.4262 48.2429 L 41.8326 48.1376 L 41.2348 48.0607 L 40.6251 48.0162 L 40.0073 48 L 39.3934 48.0162 L 38.7838 48.0607 L 38.1862 48.1376 L 37.5966 48.2429 L 37.0192 48.3764 L 36.4499 48.5383 L 35.8966 48.7286 L 35.3516 48.9431 L 34.8225 49.186 L 34.3097 49.4491 L 33.809 49.7365 L 33.3244 50.0482 L 32.8561 50.3842 L 32.4039 50.7404 L 31.9718 51.1168 L 31.5558 51.5136 L 31.1601 51.9305 L 30.7846 52.3676 L 30.4293 52.8169 L 30.0981 53.2865 L 29.7871 53.7764 L 29.5006 54.2742 L 29.2341 54.7924 L 28.9958 55.3226 L 28.7817 55.8651 L 28.5961 56.4237 L 28.4345 56.9904 L 28.3013 57.5693 L 28.1962 58.1562 L 28.1195 58.7553 L 28.0751 59.3624 L 28.059 59.9778 L 28.0751 60.5971 L 28.1195 61.2083 L 28.1962 61.8073 L 28.3013 62.4024 L 28.4345 62.9813 L 28.5961 63.5519 L 28.7817 64.1108 L 28.9958 64.6571 L 29.2341 65.1914 L 29.5006 65.7095 L 29.7871 66.2116 L 30.0981 66.7014 L 30.4293 67.1708 L 30.7846 67.6242 L 31.1601 68.0614 L 31.5558 68.4784 L 31.9718 68.879 L 32.4039 69.2556 L 32.8561 69.6118 L 33.3244 69.9477 L 33.809 70.2594 L 34.3097 70.551 L 34.8225 70.8141 L 35.3516 71.0569 L 35.8966 71.2714 L 36.4499 71.4617 L 37.0192 71.6237 L 37.5966 71.7572 L 38.1862 71.8625 L 38.7838 71.9393 L 39.3934 71.9837 L 40.0073 72 L 40.0073 72 L 40.0073 72 Z" fill="#f9ba29"/>			<path d="M 23.9927 72 L 24.6066 71.9837 L 25.2162 71.9393 L 25.8139 71.8625 L 26.4033 71.7572 L 26.9809 71.6237 L 27.5501 71.4617 L 28.1033 71.2714 L 28.6485 71.0569 L 29.1775 70.8141 L 29.6903 70.551 L 30.1911 70.2594 L 30.6756 69.9477 L 31.144 69.6118 L 31.5962 69.2556 L 32.0282 68.879 L 32.4442 68.4784 L 32.84 68.0614 L 33.2154 67.6242 L 33.5708 67.1708 L 33.902 66.7014 L 34.2128 66.2116 L 34.4995 65.7095 L 34.7659 65.1914 L 35.0042 64.6571 L 35.2184 64.1108 L 35.404 63.5519 L 35.5654 62.9813 L 35.6988 62.4024 L 35.8036 61.8073 L 35.8805 61.2083 L 35.925 60.5971 L 35.941 59.9778 L 35.925 59.3624 L 35.8805 58.7553 L 35.8036 58.1562 L 35.6988 57.5693 L 35.5654 56.9904 L 35.404 56.4237 L 35.2184 55.8651 L 35.0042 55.3226 L 34.7659 54.7924 L 34.4995 54.2742 L 34.2128 53.7764 L 33.902 53.2865 L 33.5708 52.8169 L 33.2154 52.3676 L 32.84 51.9305 L 32.4442 51.5136 L 32.0282 51.1168 L 31.5962 50.7404 L 31.144 50.3842 L 30.6756 50.0482 L 30.1911 49.7365 L 29.6903 49.4491 L 29.1775 49.186 L 28.6485 48.9431 L 28.1033 48.7286 L 27.5501 48.5383 L 26.9809 48.3764 L 26.4033 48.2429 L 25.8139 48.1376 L 25.2162 48.0607 L 24.6066 48.0162 L 23.9927 48 L 23.375 48.0162 L 22.7652 48.0607 L 22.1675 48.1376 L 21.5739 48.2429 L 20.9966 48.3764 L 20.4272 48.5383 L 19.87 48.7286 L 19.3248 48.9431 L 18.7919 49.186 L 18.275 49.4491 L 17.7743 49.7365 L 17.2857 50.0482 L 16.8173 50.3842 L 16.365 50.7404 L 15.9289 51.1168 L 15.513 51.5136 L 15.1132 51.9305 L 14.7377 52.3676 L 14.3824 52.8169 L 14.0472 53.2865 L 13.7362 53.7764 L 13.4456 54.2742 L 13.183 54.7924 L 12.9408 55.3226 L 12.7268 55.8651 L 12.537 56.4237 L 12.3755 56.9904 L 12.2423 57.5693 L 12.1373 58.1562 L 12.0606 58.7553 L 12.0161 59.3624 L 12 59.9778 L 12.0161 60.5971 L 12.0606 61.2083 L 12.1373 61.8073 L 12.2423 62.4024 L 12.3755 62.9813 L 12.537 63.5519 L 12.7268 64.1108 L 12.9408 64.6571 L 13.183 65.1914 L 13.4456 65.7095 L 13.7362 66.2116 L 14.0472 66.7014 L 14.3824 67.1708 L 14.7377 67.6242 L 15.1132 68.0614 L 15.513 68.4784 L 15.9289 68.879 L 16.365 69.2556 L 16.8173 69.6118 L 17.2857 69.9477 L 17.7743 70.2594 L 18.275 70.551 L 18.7919 70.8141 L 19.3248 71.0569 L 19.87 71.2714 L 20.4272 71.4617 L 20.9966 71.6237 L 21.5739 71.7572 L 22.1675 71.8625 L 22.7652 71.9393 L 23.375 71.9837 L 23.9927 72 L 23.9927 72 L 23.9927 72 Z" fill="#ff2814"/>			<path d="M 30.5988 52.6025 L 36.9587 52.6025 L 36.9587 51.9507 L 31.148 51.9507 L 30.5988 52.6025 L 30.5988 52.6025 L 30.5988 52.6025 Z" fill="#f9ba29"/>			<path d="M 29.6459 54.0516 L 36.9587 54.0516 L 36.9587 53.3999 L 30.0295 53.3999 L 29.6459 54.0516 L 29.6459 54.0516 L 29.6459 54.0516 Z" fill="#f9ba29"/>			<path d="M 28.9352 55.4967 L 36.9587 55.4967 L 36.9587 54.8449 L 29.2179 54.8449 L 28.9352 55.4967 L 28.9352 55.4967 L 28.9352 55.4967 Z" fill="#f9ba29"/>			<path d="M 28.4466 56.9457 L 36.9587 56.9457 L 36.9587 56.2941 L 28.6485 56.2941 L 28.4466 56.9457 L 28.4466 56.9457 L 28.4466 56.9457 Z" fill="#f9ba29"/>			<path d="M 28.7293 63.9487 L 36.9787 63.9487 L 36.9787 63.297 L 28.5274 63.297 L 28.7293 63.9487 L 28.7293 63.9487 L 28.7293 63.9487 Z" fill="#f9ba29"/>			<path d="M 29.339 65.3978 L 36.9787 65.3978 L 36.9787 64.7462 L 29.0361 64.7462 L 29.339 65.3978 L 29.339 65.3978 L 29.339 65.3978 Z" fill="#f9ba29"/>			<path d="M 30.195 66.8431 L 36.9787 66.8431 L 36.9787 66.1913 L 29.7871 66.1913 L 30.195 66.8431 L 30.195 66.8431 L 30.195 66.8431 Z" fill="#f9ba29"/>			<path d="M 31.3742 68.2921 L 36.9787 68.2921 L 36.9787 67.6363 L 30.8048 67.6363 L 31.3742 68.2921 L 31.3742 68.2921 L 31.3742 68.2921 Z" fill="#f9ba29"/>			<path d="M 28.1599 58.391 L 36.9587 58.391 L 36.9587 57.7392 L 28.2851 57.7392 L 28.1599 58.391 L 28.1599 58.391 L 28.1599 58.391 Z" fill="#f9ba29"/>			<path d="M 33.5224 62.5037 L 36.8779 62.5037 L 36.8779 61.8519 L 33.6435 61.8519 L 33.5224 62.5037 L 33.5224 62.5037 L 33.5224 62.5037 Z" fill="#f9ba29"/>			<path d="M 33.7888 61.0586 L 36.8779 61.0586 L 36.8779 60.4027 L 33.9101 60.4027 L 33.7888 61.0586 L 33.7888 61.0586 L 33.7888 61.0586 Z" fill="#f9ba29"/>			<path d="M 27.9378 60.4027 L 28.8101 60.4027 L 28.8101 61.0586 L 27.9783 61.0586 L 27.9378 60.4027 L 27.9378 60.4027 L 27.9378 60.4027 Z" fill="#f9ba29"/>			<path d="M 26.3105 59.6135 L 26.2539 59.6094 L 26.1975 59.6012 L 26.1449 59.5932 L 26.0924 59.5851 L 26.044 59.577 L 25.9916 59.5689 L 25.939 59.5608 L 25.8825 59.5528 L 25.826 59.5446 L 25.7614 59.5405 L 25.6887 59.5365 L 25.612 59.5325 L 25.5271 59.5325 L 25.4343 59.5365 L 25.3293 59.5446 L 25.2123 59.5528 L 25.1315 59.5649 L 25.0547 59.577 L 24.9861 59.6012 L 24.9255 59.6256 L 24.8689 59.6539 L 24.8165 59.6863 L 24.7761 59.7268 L 24.7398 59.7632 L 24.7155 59.8077 L 24.6953 59.8523 L 24.6873 59.9008 L 24.6873 59.9495 L 24.6994 60.002 L 24.7155 60.0546 L 24.7479 60.1073 L 24.7882 60.1599 L 24.8689 60.2367 L 24.9659 60.2976 L 25.079 60.3501 L 25.2001 60.3947 L 25.3293 60.4351 L 25.4625 60.4797 L 25.5958 60.5282 L 25.7251 60.581 L 25.8462 60.6496 L 25.9592 60.7346 L 26.0602 60.8359 L 26.1449 60.9613 L 26.2096 61.1151 L 26.25 61.2974 L 26.2662 61.516 L 26.25 61.7709 L 26.2217 61.9612 L 26.1732 62.1271 L 26.1086 62.281 L 26.0278 62.4145 L 25.935 62.5319 L 25.83 62.633 L 25.7169 62.7222 L 25.5918 62.7992 L 25.4625 62.8597 L 25.3293 62.9125 L 25.192 62.9529 L 25.0508 62.9853 L 24.9134 63.0096 L 24.7802 63.0217 L 24.6469 63.0299 L 24.5217 63.0339 L 24.3481 63.0339 L 24.1866 63.0299 L 24.0452 63.0299 L 23.912 63.0257 L 23.7908 63.0217 L 23.6818 63.0136 L 23.5849 63.0056 L 23.492 62.9935 L 23.4072 62.9853 L 23.3305 62.9692 L 23.2538 62.9571 L 23.1851 62.9367 L 23.1165 62.9206 L 23.0519 62.8964 L 22.9873 62.8721 L 22.9187 62.8476 L 23.1003 61.9532 L 23.1368 61.9612 L 23.1811 61.9733 L 23.2376 61.9896 L 23.3063 62.0057 L 23.379 62.0219 L 23.4598 62.0382 L 23.5486 62.0583 L 23.6455 62.0746 L 23.7464 62.0907 L 23.8513 62.1068 L 23.9604 62.1192 L 24.0735 62.1313 L 24.1906 62.1353 L 24.3077 62.1393 L 24.4248 62.1393 L 24.5419 62.1353 L 24.659 62.111 L 24.7519 62.0786 L 24.8245 62.034 L 24.881 61.9775 L 24.9214 61.9208 L 24.9538 61.8559 L 24.974 61.7912 L 24.9901 61.7305 L 24.9981 61.6131 L 24.9618 61.512 L 24.8932 61.431 L 24.7922 61.3621 L 24.6712 61.3014 L 24.5298 61.2407 L 24.3723 61.184 L 24.2149 61.1193 L 24.0534 61.0465 L 23.8999 60.9613 L 23.7585 60.856 L 23.6293 60.7306 L 23.5283 60.5768 L 23.4557 60.3947 L 23.4194 60.176 L 23.4234 59.9171 L 23.4436 59.7591 L 23.4719 59.6094 L 23.5123 59.4718 L 23.5606 59.3422 L 23.6252 59.2208 L 23.698 59.1155 L 23.7828 59.0143 L 23.8837 58.9254 L 24.0008 58.8484 L 24.13 58.7837 L 24.2754 58.7229 L 24.4369 58.6784 L 24.6187 58.642 L 24.8165 58.6136 L 25.0345 58.5974 L 25.2728 58.5933 L 25.4222 58.5933 L 25.5594 58.5974 L 25.6847 58.6015 L 25.7977 58.6055 L 25.8987 58.6136 L 25.9916 58.6218 L 26.0723 58.6298 L 26.1449 58.6379 L 26.2136 58.646 L 26.2701 58.6581 L 26.3226 58.6662 L 26.3711 58.6743 L 26.4115 58.6824 L 26.4479 58.6864 L 26.4841 58.6946 L 26.5165 58.6987 L 26.3105 59.6135 L 26.3105 59.6135 L 26.3105 59.6135 Z" fill="#ffffff"/>			<path d="M 26.3105 59.6135 L 26.3105 59.6135 L 26.2539 59.6094 L 26.1975 59.6012 L 26.1449 59.5932 L 26.0924 59.5851 L 26.044 59.577 L 25.9916 59.5689 L 25.939 59.5608 L 25.8825 59.5528 L 25.826 59.5446 L 25.7614 59.5405 L 25.6887 59.5365 L 25.612 59.5325 L 25.5271 59.5325 L 25.4343 59.5365 L 25.3293 59.5446 L 25.2123 59.5528 L 25.2123 59.5528 L 25.1315 59.5649 L 25.0547 59.577 L 24.9861 59.6012 L 24.9255 59.6256 L 24.8689 59.6539 L 24.8165 59.6863 L 24.7761 59.7268 L 24.7398 59.7632 L 24.7155 59.8077 L 24.6953 59.8523 L 24.6873 59.9008 L 24.6873 59.9495 L 24.6994 60.002 L 24.7155 60.0546 L 24.7479 60.1073 L 24.7882 60.1599 L 24.7882 60.1599 L 24.8689 60.2367 L 24.9659 60.2976 L 25.079 60.3501 L 25.2001 60.3947 L 25.3293 60.4351 L 25.4625 60.4797 L 25.5958 60.5282 L 25.7251 60.581 L 25.8462 60.6496 L 25.9592 60.7346 L 26.0602 60.8359 L 26.1449 60.9613 L 26.2096 61.1151 L 26.25 61.2974 L 26.2662 61.516 L 26.25 61.7709 L 26.25 61.7709 L 26.2217 61.9612 L 26.1732 62.1271 L 26.1086 62.281 L 26.0278 62.4145 L 25.935 62.5319 L 25.83 62.633 L 25.7169 62.7222 L 25.5918 62.7992 L 25.4625 62.8597 L 25.3293 62.9125 L 25.192 62.9529 L 25.0508 62.9853 L 24.9134 63.0096 L 24.7802 63.0217 L 24.6469 63.0299 L 24.5217 63.0339 L 24.5217 63.0339 L 24.3481 63.0339 L 24.1866 63.0299 L 24.0452 63.0299 L 23.912 63.0257 L 23.7908 63.0217 L 23.6818 63.0136 L 23.5849 63.0056 L 23.492 62.9935 L 23.4072 62.9853 L 23.3305 62.9692 L 23.2538 62.9571 L 23.1851 62.9367 L 23.1165 62.9206 L 23.0519 62.8964 L 22.9873 62.8721 L 22.9187 62.8476 L 23.1003 61.9532 L 23.1003 61.9532 L 23.1368 61.9612 L 23.1811 61.9733 L 23.2376 61.9896 L 23.3063 62.0057 L 23.379 62.0219 L 23.4598 62.0382 L 23.5486 62.0583 L 23.6455 62.0746 L 23.7464 62.0907 L 23.8513 62.1068 L 23.9604 62.1192 L 24.0735 62.1313 L 24.1906 62.1353 L 24.3077 62.1393 L 24.4248 62.1393 L 24.5419 62.1353 L 24.5419 62.1353 L 24.659 62.111 L 24.7519 62.0786 L 24.8245 62.034 L 24.881 61.9775 L 24.9214 61.9208 L 24.9538 61.8559 L 24.974 61.7912 L 24.9901 61.7305 L 24.9901 61.7305 L 24.9981 61.6131 L 24.9618 61.512 L 24.8932 61.431 L 24.7922 61.3621 L 24.6712 61.3014 L 24.5298 61.2407 L 24.3723 61.184 L 24.2149 61.1193 L 24.0534 61.0465 L 23.8999 60.9613 L 23.7585 60.856 L 23.6293 60.7306 L 23.5283 60.5768 L 23.4557 60.3947 L 23.4194 60.176 L 23.4234 59.9171 L 23.4234 59.9171 L 23.4436 59.7591 L 23.4719 59.6094 L 23.5123 59.4718 L 23.5606 59.3422 L 23.6252 59.2208 L 23.698 59.1155 L 23.7828 59.0143 L 23.8837 58.9254 L 24.0008 58.8484 L 24.13 58.7837 L 24.2754 58.7229 L 24.4369 58.6784 L 24.6187 58.642 L 24.8165 58.6136 L 25.0345 58.5974 L 25.2728 58.5933 L 25.2728 58.5933 L 25.4222 58.5933 L 25.5594 58.5974 L 25.6847 58.6015 L 25.7977 58.6055 L 25.8987 58.6136 L 25.9916 58.6218 L 26.0723 58.6298 L 26.1449 58.6379 L 26.2136 58.646 L 26.2701 58.6581 L 26.3226 58.6662 L 26.3711 58.6743 L 26.4115 58.6824 L 26.4479 58.6864 L 26.4841 58.6946 L 26.5165 58.6987 L 26.3105 59.6135 L 26.3105 59.6135 Z" stroke="#ffffff" stroke-width="1" fill="none"/>			<path d="M 27.2675 57.6988 L 28.386 57.6988 L 28.2205 58.6784 L 28.8949 58.6784 L 28.7494 59.5932 L 28.0388 59.573 L 27.6512 61.8316 L 27.6471 61.9126 L 27.6673 61.9815 L 27.7078 62.034 L 27.7602 62.0786 L 27.8328 62.1068 L 27.9136 62.1313 L 28.0024 62.1474 L 28.0994 62.1554 L 28.1882 62.1514 L 28.2689 62.1433 L 28.3417 62.1313 L 28.4062 62.115 L 28.4587 62.0989 L 28.495 62.0868 L 28.5194 62.0786 L 28.5274 62.0746 L 28.386 62.8275 L 28.3579 62.8476 L 28.3295 62.8639 L 28.3013 62.88 L 28.273 62.8964 L 28.2447 62.9085 L 28.2124 62.9206 L 28.1761 62.9328 L 28.1398 62.9449 L 28.0994 62.9571 L 28.059 62.965 L 28.0105 62.9732 L 27.9621 62.9813 L 27.9096 62.9893 L 27.849 62.9975 L 27.7844 63.0056 L 27.7157 63.0136 L 27.4089 63.0136 L 27.2473 63.0014 L 27.106 62.9853 L 26.9768 62.961 L 26.8678 62.9328 L 26.7749 62.8964 L 26.6983 62.8558 L 26.6295 62.8072 L 26.577 62.7547 L 26.5368 62.6979 L 26.5084 62.6291 L 26.4882 62.5602 L 26.4761 62.4834 L 26.472 62.3984 L 26.472 62.3092 L 26.4841 62.2163 L 26.4962 62.115 L 27.2675 57.6988 L 27.2675 57.6988 L 27.2675 57.6988 Z" fill="#ffffff"/>			<path d="M 27.2675 57.6988 L 28.386 57.6988 L 28.2205 58.6784 L 28.8949 58.6784 L 28.7494 59.5932 L 28.0388 59.573 L 27.6512 61.8316 L 27.6512 61.8316 L 27.6471 61.9126 L 27.6673 61.9815 L 27.7078 62.034 L 27.7602 62.0786 L 27.8328 62.1068 L 27.9136 62.1313 L 28.0024 62.1474 L 28.0994 62.1554 L 28.0994 62.1554 L 28.1882 62.1514 L 28.2689 62.1433 L 28.3417 62.1313 L 28.4062 62.115 L 28.4587 62.0989 L 28.495 62.0868 L 28.5194 62.0786 L 28.5274 62.0746 L 28.386 62.8275 L 28.386 62.8275 L 28.3579 62.8476 L 28.3295 62.8639 L 28.3013 62.88 L 28.273 62.8964 L 28.2447 62.9085 L 28.2124 62.9206 L 28.1761 62.9328 L 28.1398 62.9449 L 28.0994 62.9571 L 28.059 62.965 L 28.0105 62.9732 L 27.9621 62.9813 L 27.9096 62.9893 L 27.849 62.9975 L 27.7844 63.0056 L 27.7157 63.0136 L 27.4089 63.0136 L 27.4089 63.0136 L 27.2473 63.0014 L 27.106 62.9853 L 26.9768 62.961 L 26.8678 62.9328 L 26.7749 62.8964 L 26.6983 62.8558 L 26.6295 62.8072 L 26.577 62.7547 L 26.5368 62.6979 L 26.5084 62.6291 L 26.4882 62.5602 L 26.4761 62.4834 L 26.472 62.3984 L 26.472 62.3092 L 26.4841 62.2163 L 26.4962 62.115 L 27.2675 57.6988 L 27.2675 57.6988 Z" stroke="#ffffff" stroke-width="1" fill="none"/>			<path d="M 29.7871 61.1193 L 29.775 61.188 L 29.7711 61.2608 L 29.7791 61.3378 L 29.7953 61.4147 L 29.8236 61.4917 L 29.8558 61.5645 L 29.9003 61.6413 L 29.9488 61.7102 L 30.0052 61.7791 L 30.0659 61.8398 L 30.1305 61.9005 L 30.2032 61.949 L 30.2758 61.9936 L 30.3566 62.03 L 30.4373 62.0583 L 30.5181 62.0746 L 30.6231 62.0907 L 30.724 62.1029 L 30.829 62.115 L 30.934 62.1232 L 31.039 62.1271 L 31.148 62.1271 L 31.253 62.1232 L 31.3621 62.115 L 31.4711 62.0989 L 31.5801 62.0786 L 31.6931 62.0543 L 31.8022 62.0179 L 31.9152 61.9733 L 32.0322 61.9247 L 32.1454 61.8601 L 32.2625 61.7912 L 32.1009 62.7869 L 32.0364 62.8193 L 31.9718 62.8518 L 31.9071 62.8761 L 31.8466 62.9003 L 31.786 62.9206 L 31.7214 62.9407 L 31.6568 62.9571 L 31.5882 62.9692 L 31.5154 62.9813 L 31.4347 62.9893 L 31.35 62.9975 L 31.2571 63.0056 L 31.1521 63.0096 L 31.043 63.0096 L 30.9179 63.0136 L 30.7846 63.0136 L 30.5867 63.0096 L 30.3848 62.9893 L 30.1829 62.961 L 29.981 62.9125 L 29.7832 62.8518 L 29.5934 62.7747 L 29.4116 62.6736 L 29.2421 62.5562 L 29.0846 62.4187 L 28.9473 62.2527 L 28.8302 62.0664 L 28.7333 61.8519 L 28.6647 61.6131 L 28.6202 61.3418 L 28.6081 61.0423 L 28.6284 60.7103 L 28.6444 60.581 L 28.6687 60.4311 L 28.701 60.2733 L 28.7455 60.1031 L 28.806 59.9292 L 28.8787 59.7551 L 28.9716 59.577 L 29.0846 59.407 L 29.2138 59.2451 L 29.3713 59.0912 L 29.5489 58.9536 L 29.7509 58.8322 L 29.9851 58.731 L 30.2475 58.6581 L 30.5383 58.6095 L 30.8654 58.5933 L 31.0228 58.5974 L 31.1884 58.6136 L 31.3539 58.642 L 31.5195 58.6824 L 31.681 58.7432 L 31.8386 58.816 L 31.9839 58.9131 L 32.1172 59.0265 L 32.2383 59.1642 L 32.3391 59.3261 L 32.4199 59.5123 L 32.4765 59.7268 L 32.5089 59.9696 L 32.5128 60.2448 L 32.4847 60.5525 L 32.4239 60.8926 L 32.4039 61.1394 L 29.4602 61.1394 L 29.6459 60.342 L 31.4145 60.342 L 31.4226 60.2409 L 31.4186 60.1437 L 31.4104 60.0546 L 31.3943 59.9738 L 31.366 59.8968 L 31.3378 59.8279 L 31.2975 59.7672 L 31.2571 59.7106 L 31.2086 59.662 L 31.1561 59.6215 L 31.0956 59.5851 L 31.035 59.5528 L 30.9704 59.5284 L 30.9058 59.5123 L 30.8371 59.5001 L 30.7644 59.492 L 30.6877 59.496 L 30.615 59.5082 L 30.5463 59.5244 L 30.4777 59.5487 L 30.409 59.581 L 30.3485 59.6175 L 30.2879 59.662 L 30.2354 59.7106 L 30.1829 59.7672 L 30.1345 59.8279 L 30.09 59.8927 L 30.0538 59.9616 L 30.0173 60.0345 L 29.9892 60.1155 L 29.9649 60.1963 L 29.9488 60.2813 L 29.7871 61.1193 L 29.7871 61.1193 L 29.7871 61.1193 Z" fill="#ffffff"/>			<path d="M 29.7871 61.1193 L 29.7871 61.1193 L 29.775 61.188 L 29.7711 61.2608 L 29.7791 61.3378 L 29.7953 61.4147 L 29.8236 61.4917 L 29.8558 61.5645 L 29.9003 61.6413 L 29.9488 61.7102 L 30.0052 61.7791 L 30.0659 61.8398 L 30.1305 61.9005 L 30.2032 61.949 L 30.2758 61.9936 L 30.3566 62.03 L 30.4373 62.0583 L 30.5181 62.0746 L 30.5181 62.0746 L 30.6231 62.0907 L 30.724 62.1029 L 30.829 62.115 L 30.934 62.1232 L 31.039 62.1271 L 31.148 62.1271 L 31.253 62.1232 L 31.3621 62.115 L 31.4711 62.0989 L 31.5801 62.0786 L 31.6931 62.0543 L 31.8022 62.0179 L 31.9152 61.9733 L 32.0322 61.9247 L 32.1454 61.8601 L 32.2625 61.7912 L 32.1009 62.7869 L 32.1009 62.7869 L 32.0364 62.8193 L 31.9718 62.8518 L 31.9071 62.8761 L 31.8466 62.9003 L 31.786 62.9206 L 31.7214 62.9407 L 31.6568 62.9571 L 31.5882 62.9692 L 31.5154 62.9813 L 31.4347 62.9893 L 31.35 62.9975 L 31.2571 63.0056 L 31.1521 63.0096 L 31.043 63.0096 L 30.9179 63.0136 L 30.7846 63.0136 L 30.7846 63.0136 L 30.5867 63.0096 L 30.3848 62.9893 L 30.1829 62.961 L 29.981 62.9125 L 29.7832 62.8518 L 29.5934 62.7747 L 29.4116 62.6736 L 29.2421 62.5562 L 29.0846 62.4187 L 28.9473 62.2527 L 28.8302 62.0664 L 28.7333 61.8519 L 28.6647 61.6131 L 28.6202 61.3418 L 28.6081 61.0423 L 28.6284 60.7103 L 28.6284 60.7103 L 28.6444 60.581 L 28.6687 60.4311 L 28.701 60.2733 L 28.7455 60.1031 L 28.806 59.9292 L 28.8787 59.7551 L 28.9716 59.577 L 29.0846 59.407 L 29.2138 59.2451 L 29.3713 59.0912 L 29.5489 58.9536 L 29.7509 58.8322 L 29.9851 58.731 L 30.2475 58.6581 L 30.5383 58.6095 L 30.8654 58.5933 L 30.8654 58.5933 L 31.0228 58.5974 L 31.1884 58.6136 L 31.3539 58.642 L 31.5195 58.6824 L 31.681 58.7432 L 31.8386 58.816 L 31.9839 58.9131 L 32.1172 59.0265 L 32.2383 59.1642 L 32.3391 59.3261 L 32.4199 59.5123 L 32.4765 59.7268 L 32.5089 59.9696 L 32.5128 60.2448 L 32.4847 60.5525 L 32.4239 60.8926 L 32.4039 61.1394 L 29.8878 61.1394 L 30.0735 60.342 L 31.4145 60.342 L 31.4145 60.342 L 31.4226 60.2409 L 31.4186 60.1437 L 31.4104 60.0546 L 31.3943 59.9738 L 31.366 59.8968 L 31.3378 59.8279 L 31.2975 59.7672 L 31.2571 59.7106 L 31.2086 59.662 L 31.1561 59.6215 L 31.0956 59.5851 L 31.035 59.5528 L 30.9704 59.5284 L 30.9058 59.5123 L 30.8371 59.5001 L 30.7644 59.492 L 30.7644 59.492 L 30.6877 59.496 L 30.615 59.5082 L 30.5463 59.5244 L 30.4777 59.5487 L 30.409 59.581 L 30.3485 59.6175 L 30.2879 59.662 L 30.2354 59.7106 L 30.1829 59.7672 L 30.1345 59.8279 L 30.09 59.8927 L 30.0538 59.9616 L 30.0173 60.0345 L 29.9892 60.1155 L 29.9649 60.1963 L 29.9488 60.2813 L 29.7871 61.1193 L 29.7871 61.1193 Z" stroke="#ffffff" stroke-width="1" fill="none"/>			<path d="M 39.4177 58.9213 L 39.3653 58.8929 L 39.3128 58.8686 L 39.2563 58.8403 L 39.1957 58.8119 L 39.1352 58.7876 L 39.0665 58.7634 L 38.9978 58.7391 L 38.9251 58.7148 L 38.8485 58.6946 L 38.7717 58.6784 L 38.6869 58.6622 L 38.6021 58.65 L 38.5092 58.642 L 38.4163 58.6339 L 38.3194 58.6339 L 38.2186 58.6339 L 38.1175 58.6339 L 38.0125 58.642 L 37.9035 58.6541 L 37.7905 58.6743 L 37.6774 58.7067 L 37.5644 58.7512 L 37.4512 58.8079 L 37.3381 58.8808 L 37.2293 58.9698 L 37.1243 59.075 L 37.0232 59.2046 L 36.9263 59.3543 L 36.8376 59.5325 L 36.7526 59.7349 L 36.676 59.9616 L 36.6115 60.2206 L 36.5873 60.3662 L 36.571 60.5079 L 36.5628 60.6496 L 36.567 60.7874 L 36.5791 60.9249 L 36.6073 61.0544 L 36.6436 61.1758 L 36.6881 61.2974 L 36.7486 61.4067 L 36.8213 61.512 L 36.9061 61.6049 L 37.003 61.6899 L 37.1122 61.7627 L 37.2372 61.8237 L 37.3746 61.8762 L 37.5281 61.9126 L 37.5805 61.9247 L 37.641 61.9369 L 37.7137 61.945 L 37.7945 61.9532 L 37.8832 61.9612 L 37.9762 61.9612 L 38.0772 61.9612 L 38.1781 61.9532 L 38.2831 61.9409 L 38.3881 61.9208 L 38.4889 61.8925 L 38.59 61.8601 L 38.6909 61.8155 L 38.7838 61.7627 L 38.8685 61.6981 L 38.9493 61.6252 L 38.7677 62.7061 L 38.7435 62.7262 L 38.7192 62.7505 L 38.6869 62.7789 L 38.6506 62.8032 L 38.6061 62.8357 L 38.5495 62.8639 L 38.485 62.8922 L 38.4123 62.9164 L 38.3194 62.9449 L 38.2144 62.965 L 38.0933 62.9813 L 37.9519 62.9975 L 37.7945 63.0056 L 37.6128 63.0096 L 37.4068 63.0056 L 37.1806 62.9935 L 36.995 62.9732 L 36.8092 62.9328 L 36.6236 62.8721 L 36.4378 62.7911 L 36.2601 62.694 L 36.0905 62.5723 L 35.9289 62.4309 L 35.7796 62.2688 L 35.6462 62.0868 L 35.5333 61.8843 L 35.4364 61.6577 L 35.3637 61.4107 L 35.3153 61.1394 L 35.299 60.852 L 35.3071 60.5364 L 35.3516 60.2005 L 35.3838 60.0345 L 35.4201 59.8725 L 35.4606 59.7147 L 35.5009 59.5649 L 35.5454 59.4232 L 35.5978 59.2815 L 35.6504 59.148 L 35.7068 59.0225 L 35.7675 58.8969 L 35.8281 58.7796 L 35.8966 58.6662 L 35.9692 58.561 L 36.0421 58.4598 L 36.1227 58.3626 L 36.2035 58.2736 L 36.2883 58.1886 L 36.3812 58.1076 L 36.4741 58.0307 L 36.571 57.9619 L 36.672 57.8971 L 36.781 57.8363 L 36.89 57.7838 L 37.003 57.7352 L 37.1201 57.6907 L 37.2454 57.6502 L 37.3704 57.6178 L 37.4997 57.5895 L 37.6371 57.5652 L 37.7742 57.5449 L 37.9198 57.5288 L 38.0651 57.5207 L 38.2186 57.5166 L 38.3478 57.5207 L 38.4729 57.5288 L 38.594 57.5408 L 38.7151 57.5571 L 38.8282 57.5733 L 38.9372 57.5975 L 39.0423 57.6178 L 39.1391 57.6421 L 39.232 57.6664 L 39.3128 57.6907 L 39.3895 57.7149 L 39.4542 57.7392 L 39.5106 57.7595 L 39.559 57.7757 L 39.5956 57.7919 L 39.6196 57.8 L 39.4177 58.9213 L 39.4177 58.9213 L 39.4177 58.9213 Z" fill="#ffffff"/>			<path d="M 39.4177 58.9213 L 39.4177 58.9213 L 39.3653 58.8929 L 39.3128 58.8686 L 39.2563 58.8403 L 39.1957 58.8119 L 39.1352 58.7876 L 39.0665 58.7634 L 38.9978 58.7391 L 38.9251 58.7148 L 38.8485 58.6946 L 38.7717 58.6784 L 38.6869 58.6622 L 38.6021 58.65 L 38.5092 58.642 L 38.4163 58.6339 L 38.3194 58.6339 L 38.2186 58.6339 L 38.2186 58.6339 L 38.1175 58.6339 L 38.0125 58.642 L 37.9035 58.6541 L 37.7905 58.6743 L 37.6774 58.7067 L 37.5644 58.7512 L 37.4512 58.8079 L 37.3381 58.8808 L 37.2293 58.9698 L 37.1243 59.075 L 37.0232 59.2046 L 36.9263 59.3543 L 36.8376 59.5325 L 36.7526 59.7349 L 36.676 59.9616 L 36.6115 60.2206 L 36.6115 60.2206 L 36.5873 60.3662 L 36.571 60.5079 L 36.5628 60.6496 L 36.567 60.7874 L 36.5791 60.9249 L 36.6073 61.0544 L 36.6436 61.1758 L 36.6881 61.2974 L 36.7486 61.4067 L 36.8213 61.512 L 36.9061 61.6049 L 37.003 61.6899 L 37.1122 61.7627 L 37.2372 61.8237 L 37.3746 61.8762 L 37.5281 61.9126 L 37.5281 61.9126 L 37.5805 61.9247 L 37.641 61.9369 L 37.7137 61.945 L 37.7945 61.9532 L 37.8832 61.9612 L 37.9762 61.9612 L 38.0772 61.9612 L 38.1781 61.9532 L 38.2831 61.9409 L 38.3881 61.9208 L 38.4889 61.8925 L 38.59 61.8601 L 38.6909 61.8155 L 38.7838 61.7627 L 38.8685 61.6981 L 38.9493 61.6252 L 38.7677 62.7061 L 38.7677 62.7061 L 38.7435 62.7262 L 38.7192 62.7505 L 38.6869 62.7789 L 38.6506 62.8032 L 38.6061 62.8357 L 38.5495 62.8639 L 38.485 62.8922 L 38.4123 62.9164 L 38.3194 62.9449 L 38.2144 62.965 L 38.0933 62.9813 L 37.9519 62.9975 L 37.7945 63.0056 L 37.6128 63.0096 L 37.4068 63.0056 L 37.1806 62.9935 L 37.1806 62.9935 L 36.995 62.9732 L 36.8092 62.9328 L 36.6236 62.8721 L 36.4378 62.7911 L 36.2601 62.694 L 36.0905 62.5723 L 35.9289 62.4309 L 35.7796 62.2688 L 35.6462 62.0868 L 35.5333 61.8843 L 35.4364 61.6577 L 35.3637 61.4107 L 35.3153 61.1394 L 35.299 60.852 L 35.3071 60.5364 L 35.3516 60.2005 L 35.3516 60.2005 L 35.3838 60.0345 L 35.4201 59.8725 L 35.4606 59.7147 L 35.5009 59.5649 L 35.5454 59.4232 L 35.5978 59.2815 L 35.6504 59.148 L 35.7068 59.0225 L 35.7675 58.8969 L 35.8281 58.7796 L 35.8966 58.6662 L 35.9692 58.561 L 36.0421 58.4598 L 36.1227 58.3626 L 36.2035 58.2736 L 36.2883 58.1886 L 36.3812 58.1076 L 36.4741 58.0307 L 36.571 57.9619 L 36.672 57.8971 L 36.781 57.8363 L 36.89 57.7838 L 37.003 57.7352 L 37.1201 57.6907 L 37.2454 57.6502 L 37.3704 57.6178 L 37.4997 57.5895 L 37.6371 57.5652 L 37.7742 57.5449 L 37.9198 57.5288 L 38.0651 57.5207 L 38.2186 57.5166 L 38.2186 57.5166 L 38.3478 57.5207 L 38.4729 57.5288 L 38.594 57.5408 L 38.7151 57.5571 L 38.8282 57.5733 L 38.9372 57.5975 L 39.0423 57.6178 L 39.1391 57.6421 L 39.232 57.6664 L 39.3128 57.6907 L 39.3895 57.7149 L 39.4542 57.7392 L 39.5106 57.7595 L 39.559 57.7757 L 39.5956 57.7919 L 39.6196 57.8 L 39.4177 58.9213 L 39.4177 58.9213 Z" stroke="#ffffff" stroke-width="1" fill="none"/>			<path d="M 49.3592 63.0136 L 48.2407 63.0136 L 48.3215 62.5644 L 48.3215 62.5238 L 48.257 62.6048 L 48.1883 62.6776 L 48.1196 62.7425 L 48.0469 62.7992 L 47.9742 62.8518 L 47.9016 62.8964 L 47.8289 62.9328 L 47.7521 62.9692 L 47.6755 62.9975 L 47.5986 63.0178 L 47.522 63.0381 L 47.4412 63.0502 L 47.3604 63.0623 L 47.2838 63.0703 L 47.203 63.0745 L 47.1222 63.0745 L 46.9123 63.0581 L 46.7184 63.0136 L 46.5407 62.9449 L 46.3793 62.8518 L 46.2337 62.7344 L 46.1047 62.5968 L 45.9915 62.447 L 45.8947 62.277 L 45.8139 62.0947 L 45.7493 61.9047 L 45.7049 61.7062 L 45.6725 61.4999 L 45.6604 61.2933 L 45.6646 61.0827 L 45.6846 60.8763 L 45.7209 60.6699 L 45.7815 60.4311 L 45.8544 60.2044 L 45.9391 59.9981 L 46.04 59.8037 L 46.145 59.6215 L 46.2661 59.4596 L 46.3914 59.3139 L 46.5246 59.1803 L 46.6659 59.0629 L 46.8154 58.9617 L 46.9689 58.8727 L 47.1222 58.8039 L 47.2838 58.7471 L 47.4452 58.7108 L 47.6068 58.6864 L 47.7723 58.6784 L 47.8895 58.6824 L 48.0024 58.6946 L 48.1075 58.7148 L 48.2043 58.7432 L 48.2973 58.7755 L 48.3781 58.8119 L 48.4589 58.8565 L 48.5315 58.901 L 48.596 58.9495 L 48.6566 59.0022 L 48.709 59.0548 L 48.7576 59.1075 L 48.7979 59.1601 L 48.8343 59.2126 L 48.8666 59.2613 L 48.8908 59.3099 L 48.8908 59.3099 L 49.1736 57.719 L 50.2718 57.719 L 49.3592 63.0136 L 49.3592 63.0136 L 49.3592 63.0136 Z" fill="#ffffff"/>			<path d="M 49.3592 63.0136 L 48.2407 63.0136 L 48.3215 62.5644 L 48.3215 62.5238 L 48.3215 62.5238 L 48.257 62.6048 L 48.1883 62.6776 L 48.1196 62.7425 L 48.0469 62.7992 L 47.9742 62.8518 L 47.9016 62.8964 L 47.8289 62.9328 L 47.7521 62.9692 L 47.6755 62.9975 L 47.5986 63.0178 L 47.522 63.0381 L 47.4412 63.0502 L 47.3604 63.0623 L 47.2838 63.0703 L 47.203 63.0745 L 47.1222 63.0745 L 47.1222 63.0745 L 46.9123 63.0581 L 46.7184 63.0136 L 46.5407 62.9449 L 46.3793 62.8518 L 46.2337 62.7344 L 46.1047 62.5968 L 45.9915 62.447 L 45.8947 62.277 L 45.8139 62.0947 L 45.7493 61.9047 L 45.7049 61.7062 L 45.6725 61.4999 L 45.6604 61.2933 L 45.6646 61.0827 L 45.6846 60.8763 L 45.7209 60.6699 L 45.7209 60.6699 L 45.7815 60.4311 L 45.8544 60.2044 L 45.9391 59.9981 L 46.04 59.8037 L 46.145 59.6215 L 46.2661 59.4596 L 46.3914 59.3139 L 46.5246 59.1803 L 46.6659 59.0629 L 46.8154 58.9617 L 46.9689 58.8727 L 47.1222 58.8039 L 47.2838 58.7471 L 47.4452 58.7108 L 47.6068 58.6864 L 47.7723 58.6784 L 47.7723 58.6784 L 47.8895 58.6824 L 48.0024 58.6946 L 48.1075 58.7148 L 48.2043 58.7432 L 48.2973 58.7755 L 48.3781 58.8119 L 48.4589 58.8565 L 48.5315 58.901 L 48.596 58.9495 L 48.6566 59.0022 L 48.709 59.0548 L 48.7576 59.1075 L 48.7979 59.1601 L 48.8343 59.2126 L 48.8666 59.2613 L 48.8908 59.3099 L 48.8908 59.3099 L 49.1736 57.719 L 50.2718 57.719 L 49.3592 63.0136 L 49.3592 63.0136 Z" stroke="#ffffff" stroke-width="1" fill="none"/>			<path d="M 47.5301 62.034 L 47.6431 62.0261 L 47.7481 62.0018 L 47.845 61.9733 L 47.9379 61.9287 L 48.0227 61.8802 L 48.1035 61.8195 L 48.1801 61.7508 L 48.2488 61.6778 L 48.3094 61.597 L 48.3659 61.5078 L 48.4183 61.4147 L 48.4628 61.3175 L 48.5031 61.2164 L 48.5355 61.1112 L 48.5637 61.0019 L 48.5839 60.8926 L 48.6042 60.7792 L 48.6163 60.6618 L 48.6163 60.5525 L 48.6121 60.4393 L 48.6002 60.334 L 48.5839 60.2327 L 48.5557 60.1356 L 48.5234 60.0424 L 48.4831 59.9616 L 48.4346 59.8846 L 48.382 59.8198 L 48.3215 59.7632 L 48.2528 59.7147 L 48.1801 59.6822 L 48.1035 59.662 L 48.0187 59.6539 L 47.9095 59.662 L 47.8087 59.6782 L 47.7158 59.7106 L 47.6228 59.7511 L 47.542 59.8037 L 47.4614 59.8685 L 47.3928 59.9374 L 47.3241 60.0142 L 47.2635 60.1031 L 47.2069 60.1963 L 47.1545 60.2934 L 47.11 60.3987 L 47.0697 60.5079 L 47.0374 60.6172 L 47.005 60.7346 L 46.981 60.852 L 46.9608 61.0302 L 46.9689 61.2244 L 46.9971 61.4228 L 47.0495 61.6131 L 47.1303 61.7791 L 47.2353 61.9126 L 47.3685 62.0018 L 47.5301 62.034 L 47.5301 62.034 L 47.5301 62.034 Z" fill="#f9ba29"/>			<path d="M 22.7328 62.115 L 22.5713 63.0136 L 21.5538 63.0136 L 21.5821 62.8476 L 21.6023 62.6979 L 21.6184 62.5847 L 21.6346 62.5238 L 21.578 62.5887 L 21.5134 62.6533 L 21.4368 62.714 L 21.352 62.7708 L 21.255 62.8275 L 21.154 62.8761 L 21.049 62.9246 L 20.94 62.965 L 20.8229 63.0014 L 20.7059 63.0299 L 20.5887 63.0542 L 20.4676 63.0703 L 20.3505 63.0784 L 20.2334 63.0824 L 20.1203 63.0703 L 20.0113 63.0542 L 19.87 63.0178 L 19.7407 62.9774 L 19.6278 62.9246 L 19.5268 62.8639 L 19.438 62.7992 L 19.3572 62.7262 L 19.2925 62.6494 L 19.236 62.5684 L 19.1875 62.4834 L 19.1472 62.3942 L 19.1149 62.3053 L 19.0906 62.2163 L 19.0745 62.1232 L 19.0623 62.03 L 19.0543 61.9409 L 19.0543 61.8519 L 19.0664 61.6941 L 19.0906 61.5442 L 19.131 61.4025 L 19.1834 61.265 L 19.2481 61.1354 L 19.3208 61.018 L 19.4056 60.9048 L 19.5026 60.8035 L 19.6035 60.7103 L 19.7166 60.6254 L 19.8336 60.5485 L 19.9547 60.4837 L 20.084 60.4271 L 20.2173 60.3826 L 20.3546 60.3461 L 20.4958 60.3219 L 20.504 60.3219 L 20.5241 60.3177 L 20.5525 60.3137 L 20.5969 60.3097 L 20.6452 60.3016 L 20.7018 60.2976 L 20.7623 60.2894 L 20.831 60.2813 L 20.8996 60.2733 L 20.9683 60.2651 L 21.041 60.2612 L 21.1056 60.253 L 21.1702 60.249 L 21.2308 60.2448 L 21.2874 60.2409 L 21.3317 60.2409 L 21.4246 60.2409 L 21.5215 60.2448 L 21.6104 60.249 L 21.6992 60.249 L 21.7719 60.253 L 21.8285 60.257 L 21.8687 60.2612 L 21.8809 60.2612 L 21.889 60.2327 L 21.9132 60.1599 L 21.9334 60.0749 L 21.9415 59.9981 L 21.9253 59.9089 L 21.889 59.8279 L 21.8406 59.7551 L 21.7759 59.6944 L 21.6992 59.6418 L 21.6143 59.6053 L 21.5175 59.581 L 21.4124 59.573 L 21.2995 59.5689 L 21.1783 59.5649 L 21.0531 59.5649 L 20.9238 59.5689 L 20.7906 59.577 L 20.6614 59.5891 L 20.5323 59.6012 L 20.407 59.6175 L 20.2859 59.6337 L 20.1687 59.6539 L 20.0638 59.6742 L 19.9669 59.6944 L 19.878 59.7187 L 19.8053 59.7429 L 19.7489 59.7713 L 19.7044 59.7956 L 19.9912 58.82 L 20.0799 58.7837 L 20.1687 58.7512 L 20.2656 58.7229 L 20.3626 58.7027 L 20.4595 58.6824 L 20.5645 58.6662 L 20.6695 58.65 L 20.7785 58.642 L 20.8916 58.6339 L 21.0086 58.6298 L 21.1298 58.6257 L 21.255 58.6257 L 21.3842 58.6257 L 21.5175 58.6257 L 21.6588 58.6298 L 21.8001 58.6339 L 21.9132 58.642 L 22.0343 58.6622 L 22.1595 58.6905 L 22.2887 58.7269 L 22.4139 58.7755 L 22.535 58.8322 L 22.6562 58.901 L 22.7693 58.9779 L 22.8701 59.067 L 22.959 59.1642 L 23.0398 59.2734 L 23.1003 59.3948 L 23.1407 59.5244 L 23.1649 59.662 L 23.1649 59.8159 L 23.1407 59.9778 L 22.7328 62.115 L 22.7328 62.115 L 22.7328 62.115 Z" fill="#ffffff"/>			<path d="M 22.7328 62.115 L 22.5713 63.0136 L 21.5538 63.0136 L 21.5538 63.0136 L 21.5821 62.8476 L 21.6023 62.6979 L 21.6184 62.5847 L 21.6346 62.5238 L 21.6346 62.5238 L 21.578 62.5887 L 21.5134 62.6533 L 21.4368 62.714 L 21.352 62.7708 L 21.255 62.8275 L 21.154 62.8761 L 21.049 62.9246 L 20.94 62.965 L 20.8229 63.0014 L 20.7059 63.0299 L 20.5887 63.0542 L 20.4676 63.0703 L 20.3505 63.0784 L 20.2334 63.0824 L 20.1203 63.0703 L 20.0113 63.0542 L 20.0113 63.0542 L 19.87 63.0178 L 19.7407 62.9774 L 19.6278 62.9246 L 19.5268 62.8639 L 19.438 62.7992 L 19.3572 62.7262 L 19.2925 62.6494 L 19.236 62.5684 L 19.1875 62.4834 L 19.1472 62.3942 L 19.1149 62.3053 L 19.0906 62.2163 L 19.0745 62.1232 L 19.0623 62.03 L 19.0543 61.9409 L 19.0543 61.8519 L 19.0543 61.8519 L 19.0664 61.6941 L 19.0906 61.5442 L 19.131 61.4025 L 19.1834 61.265 L 19.2481 61.1354 L 19.3208 61.018 L 19.4056 60.9048 L 19.5026 60.8035 L 19.6035 60.7103 L 19.7166 60.6254 L 19.8336 60.5485 L 19.9547 60.4837 L 20.084 60.4271 L 20.2173 60.3826 L 20.3546 60.3461 L 20.4958 60.3219 L 20.4958 60.3219 L 20.504 60.3219 L 20.5241 60.3177 L 20.5525 60.3137 L 20.5969 60.3097 L 20.6452 60.3016 L 20.7018 60.2976 L 20.7623 60.2894 L 20.831 60.2813 L 20.8996 60.2733 L 20.9683 60.2651 L 21.041 60.2612 L 21.1056 60.253 L 21.1702 60.249 L 21.2308 60.2448 L 21.2874 60.2409 L 21.3317 60.2409 L 21.3317 60.2409 L 21.4246 60.2409 L 21.5215 60.2448 L 21.6104 60.249 L 21.6992 60.249 L 21.7719 60.253 L 21.8285 60.257 L 21.8687 60.2612 L 21.8809 60.2612 L 21.8809 60.2612 L 21.889 60.2327 L 21.9132 60.1599 L 21.9334 60.0749 L 21.9415 59.9981 L 21.9415 59.9981 L 21.9253 59.9089 L 21.889 59.8279 L 21.8406 59.7551 L 21.7759 59.6944 L 21.6992 59.6418 L 21.6143 59.6053 L 21.5175 59.581 L 21.4124 59.573 L 21.4124 59.573 L 21.2995 59.5689 L 21.1783 59.5649 L 21.0531 59.5649 L 20.9238 59.5689 L 20.7906 59.577 L 20.6614 59.5891 L 20.5323 59.6012 L 20.407 59.6175 L 20.2859 59.6337 L 20.1687 59.6539 L 20.0638 59.6742 L 19.9669 59.6944 L 19.878 59.7187 L 19.8053 59.7429 L 19.7489 59.7713 L 19.7044 59.7956 L 19.9912 58.82 L 19.9912 58.82 L 20.0799 58.7837 L 20.1687 58.7512 L 20.2656 58.7229 L 20.3626 58.7027 L 20.4595 58.6824 L 20.5645 58.6662 L 20.6695 58.65 L 20.7785 58.642 L 20.8916 58.6339 L 21.0086 58.6298 L 21.1298 58.6257 L 21.255 58.6257 L 21.3842 58.6257 L 21.5175 58.6257 L 21.6588 58.6298 L 21.8001 58.6339 L 21.8001 58.6339 L 21.9132 58.642 L 22.0343 58.6622 L 22.1595 58.6905 L 22.2887 58.7269 L 22.4139 58.7755 L 22.535 58.8322 L 22.6562 58.901 L 22.7693 58.9779 L 22.8701 59.067 L 22.959 59.1642 L 23.0398 59.2734 L 23.1003 59.3948 L 23.1407 59.5244 L 23.1649 59.662 L 23.1649 59.8159 L 23.1407 59.9778 L 22.7328 62.115 L 22.7328 62.115 Z" stroke="#ffffff" stroke-width="1" fill="none"/>			<path d="M 21.7598 61.0586 L 21.7557 61.0383 L 21.7395 61.018 L 21.7153 61.0059 L 21.675 60.9977 L 21.6305 60.9898 L 21.578 60.9856 L 21.5175 60.9856 L 21.4569 60.9856 L 21.3923 60.9898 L 21.3236 60.9977 L 21.259 61.0059 L 21.1944 61.014 L 21.1339 61.022 L 21.0773 61.0343 L 21.0289 61.0465 L 20.9845 61.0586 L 20.9561 61.0666 L 20.9238 61.0787 L 20.8795 61.095 L 20.8351 61.1151 L 20.7825 61.1394 L 20.7301 61.1679 L 20.6736 61.1961 L 20.621 61.2286 L 20.5645 61.269 L 20.512 61.3094 L 20.4636 61.3581 L 20.4191 61.4067 L 20.3788 61.4592 L 20.3505 61.516 L 20.3263 61.5806 L 20.3142 61.6455 L 20.3101 61.783 L 20.3302 61.8925 L 20.3708 61.9733 L 20.4232 62.034 L 20.4837 62.0746 L 20.5525 62.0989 L 20.617 62.111 L 20.6816 62.115 L 20.8027 62.111 L 20.9117 62.0989 L 21.0169 62.0826 L 21.1096 62.0583 L 21.1904 62.03 L 21.2671 61.9936 L 21.3357 61.9572 L 21.3964 61.9126 L 21.4489 61.8722 L 21.4973 61.8237 L 21.5377 61.7791 L 21.57 61.7305 L 21.5983 61.6819 L 21.6225 61.6334 L 21.6426 61.5888 L 21.6547 61.5442 L 21.6871 61.427 L 21.7153 61.2933 L 21.7395 61.1637 L 21.7598 61.0586 L 21.7598 61.0586 L 21.7598 61.0586 Z" fill="#ff2814"/>			<path d="M 14.237 63.0136 L 13.1387 63.0136 L 14.0553 57.6988 L 15.9652 57.6988 L 16.147 60.852 L 17.4674 57.6988 L 19.4622 57.6988 L 18.5253 63.0136 L 17.427 63.0136 L 18.1215 59.0427 L 18.0772 59.0427 L 16.4336 63.0136 L 15.194 63.0136 L 15.1859 62.8476 L 15.1577 62.4064 L 15.1214 61.7791 L 15.081 61.0586 L 15.0406 60.334 L 15.0042 59.6984 L 14.9759 59.237 L 14.9679 59.0427 L 14.9557 59.0427 L 14.9316 59.0427 L 14.9074 59.0427 L 14.9074 59.0427 L 14.237 63.0136 L 14.237 63.0136 L 14.237 63.0136 Z" fill="#ffffff"/>			<path d="M 14.237 63.0136 L 13.1387 63.0136 L 14.0553 57.6988 L 15.9652 57.6988 L 16.147 60.852 L 17.4674 57.6988 L 19.4622 57.6988 L 18.5253 63.0136 L 17.427 63.0136 L 18.1215 59.0427 L 18.0772 59.0427 L 16.4336 63.0136 L 15.194 63.0136 L 15.194 63.0136 L 15.1859 62.8476 L 15.1577 62.4064 L 15.1214 61.7791 L 15.081 61.0586 L 15.0406 60.334 L 15.0042 59.6984 L 14.9759 59.237 L 14.9679 59.0427 L 14.9679 59.0427 L 14.9557 59.0427 L 14.9316 59.0427 L 14.9074 59.0427 L 14.9074 59.0427 L 14.237 63.0136 L 14.237 63.0136 Z" stroke="#ffffff" stroke-width="1" fill="none"/>			<path d="M 42.7734 62.115 L 42.6078 63.0136 L 41.5943 63.0136 L 41.6023 62.8476 L 41.6064 62.7019 L 41.6064 62.5926 L 41.6144 62.5441 L 41.562 62.6048 L 41.5014 62.6655 L 41.4288 62.7222 L 41.348 62.7789 L 41.2632 62.8315 L 41.1661 62.88 L 41.0653 62.9286 L 40.9644 62.9692 L 40.8552 63.0014 L 40.7423 63.0339 L 40.6291 63.0542 L 40.5161 63.0703 L 40.399 63.0784 L 40.286 63.0824 L 40.1768 63.0703 L 40.0678 63.0542 L 39.9225 63.0178 L 39.7933 62.9774 L 39.6803 62.9246 L 39.5753 62.8639 L 39.4864 62.7992 L 39.4097 62.7262 L 39.345 62.6494 L 39.2886 62.5684 L 39.2402 62.4834 L 39.2039 62.3942 L 39.1715 62.3053 L 39.1512 62.2163 L 39.1352 62.1232 L 39.1231 62.03 L 39.1149 61.9409 L 39.1149 61.8519 L 39.1231 61.6941 L 39.1473 61.5442 L 39.1836 61.4025 L 39.236 61.265 L 39.2966 61.1354 L 39.3734 61.018 L 39.4582 60.9048 L 39.5511 60.8035 L 39.6559 60.7103 L 39.7651 60.6254 L 39.882 60.5485 L 40.0073 60.4837 L 40.1326 60.4271 L 40.2658 60.3826 L 40.399 60.3461 L 40.5364 60.3219 L 40.5443 60.3219 L 40.5646 60.3177 L 40.5928 60.3137 L 40.6333 60.3097 L 40.6857 60.3016 L 40.7423 60.2976 L 40.8028 60.2894 L 40.8673 60.2813 L 40.9362 60.2733 L 41.0087 60.2651 L 41.0774 60.2612 L 41.1461 60.253 L 41.2106 60.249 L 41.2672 60.2448 L 41.3237 60.2409 L 41.3682 60.2409 L 41.4651 60.2409 L 41.562 60.2448 L 41.6547 60.249 L 41.7436 60.249 L 41.8205 60.253 L 41.885 60.257 L 41.9213 60.2612 L 41.9376 60.2612 L 41.9455 60.2327 L 41.9576 60.1599 L 41.9697 60.0749 L 41.9779 59.9981 L 41.9616 59.9089 L 41.9295 59.8279 L 41.8768 59.7551 L 41.8163 59.6944 L 41.7436 59.6418 L 41.6589 59.6053 L 41.5699 59.581 L 41.473 59.573 L 41.3601 59.5689 L 41.239 59.5649 L 41.1137 59.5649 L 40.9845 59.5689 L 40.8512 59.577 L 40.722 59.5891 L 40.5928 59.6012 L 40.4677 59.6175 L 40.3466 59.6337 L 40.2295 59.6539 L 40.1244 59.6742 L 40.0275 59.6944 L 39.9386 59.7187 L 39.8659 59.7429 L 39.8094 59.7713 L 39.7651 59.7956 L 40.0478 58.82 L 40.1365 58.7837 L 40.2295 58.7512 L 40.3222 58.7229 L 40.4192 58.7027 L 40.5201 58.6824 L 40.6212 58.6662 L 40.726 58.65 L 40.8352 58.642 L 40.9481 58.6339 L 41.0653 58.6298 L 41.1824 58.6257 L 41.3075 58.6257 L 41.4327 58.6257 L 41.562 58.6257 L 41.6992 58.6298 L 41.8365 58.6339 L 41.9495 58.642 L 42.0708 58.6622 L 42.1959 58.6905 L 42.3251 58.7269 L 42.4504 58.7755 L 42.5755 58.8322 L 42.6966 58.901 L 42.8097 58.9779 L 42.9106 59.067 L 43.0035 59.1642 L 43.0843 59.2734 L 43.1448 59.3948 L 43.1893 59.5244 L 43.2175 59.662 L 43.2175 59.8159 L 43.1972 59.9778 L 42.7734 62.115 L 42.7734 62.115 L 42.7734 62.115 Z" fill="#ffffff"/>			<path d="M 42.6078 63.042 L 42.632 63.0178 L 42.7976 62.1192 L 42.7492 62.111 L 42.5836 63.0096 L 42.6078 62.9853 L 42.6078 63.042 L 42.6279 63.0381 L 42.632 63.0178 L 42.6078 63.042 L 42.6078 63.042 L 42.6078 63.042 Z" fill="#ffffff"/>			<path d="M 41.5699 63.0136 L 41.5943 63.042 L 42.6078 63.042 L 42.6078 62.9853 L 41.5943 62.9853 L 41.6183 63.0136 L 41.5699 63.0136 L 41.5659 63.042 L 41.5943 63.042 L 41.5699 63.0136 L 41.5699 63.0136 L 41.5699 63.0136 Z" fill="#ffffff"/>			<path d="M 41.6346 62.5602 L 41.5983 62.528 L 41.582 62.5926 L 41.5781 62.7019 L 41.5781 62.8476 L 41.5699 63.0136 L 41.6183 63.0136 L 41.6265 62.8476 L 41.6346 62.7019 L 41.6305 62.5926 L 41.6305 62.5602 L 41.5943 62.528 L 41.6346 62.5602 L 41.6346 62.5602 L 41.6346 62.5602 Z" fill="#ffffff"/>			<path d="M 40.0639 63.0784 L 40.0639 63.0784 L 40.1768 63.0946 L 40.286 63.1067 L 40.399 63.1027 L 40.5161 63.0946 L 40.6333 63.0784 L 40.7462 63.0581 L 40.8594 63.0257 L 40.9723 62.9935 L 41.0734 62.9529 L 41.1782 62.9043 L 41.2753 62.8558 L 41.3601 62.7992 L 41.4448 62.7425 L 41.5175 62.6858 L 41.582 62.6209 L 41.6346 62.5602 L 41.5943 62.528 L 41.5417 62.5887 L 41.4851 62.6454 L 41.4125 62.7019 L 41.3358 62.7586 L 41.2511 62.8072 L 41.154 62.8558 L 41.0571 62.9043 L 40.9563 62.9449 L 40.8512 62.9774 L 40.7381 63.0096 L 40.6251 63.0299 L 40.5161 63.046 L 40.399 63.0542 L 40.286 63.0581 L 40.1768 63.046 L 40.072 63.0299 L 40.072 63.0299 L 40.0639 63.0784 L 40.0639 63.0784 L 40.0639 63.0784 Z" fill="#ffffff"/>			<path d="M 39.0867 61.8519 L 39.0867 61.8519 L 39.0907 61.9409 L 39.0988 62.03 L 39.1109 62.1271 L 39.127 62.2203 L 39.1473 62.3092 L 39.1794 62.4024 L 39.216 62.4955 L 39.2684 62.5805 L 39.325 62.6655 L 39.3895 62.7425 L 39.4703 62.8193 L 39.5632 62.8842 L 39.6682 62.9489 L 39.7851 63.0014 L 39.9186 63.042 L 40.0639 63.0784 L 40.072 63.0299 L 39.9265 62.9935 L 39.8014 62.9529 L 39.6924 62.9003 L 39.5874 62.8436 L 39.5024 62.7789 L 39.4298 62.7101 L 39.3653 62.633 L 39.3087 62.5562 L 39.2644 62.4712 L 39.2281 62.3863 L 39.1957 62.3013 L 39.1755 62.2121 L 39.1594 62.1192 L 39.1473 62.03 L 39.1391 61.9409 L 39.1431 61.8519 L 39.1431 61.8519 L 39.0867 61.8519 L 39.0867 61.8519 L 39.0867 61.8519 Z" fill="#ffffff"/>			<path d="M 40.5364 60.2976 L 40.5364 60.2976 L 40.395 60.3219 L 40.2576 60.3583 L 40.1244 60.4027 L 39.9952 60.4594 L 39.8699 60.5243 L 39.7488 60.6051 L 39.6398 60.6902 L 39.5348 60.7874 L 39.4379 60.8885 L 39.3531 61.0019 L 39.2723 61.1233 L 39.2118 61.2568 L 39.1594 61.3946 L 39.1231 61.5402 L 39.0988 61.6941 L 39.0867 61.8519 L 39.1431 61.8519 L 39.1473 61.6941 L 39.1715 61.5482 L 39.2078 61.4107 L 39.2602 61.2732 L 39.3208 61.1476 L 39.3934 61.0343 L 39.4782 60.9209 L 39.5672 60.8198 L 39.6722 60.7306 L 39.7812 60.6457 L 39.8943 60.5728 L 40.0194 60.5079 L 40.1405 60.4514 L 40.2737 60.4068 L 40.403 60.3704 L 40.5364 60.3461 L 40.5364 60.3461 L 40.5364 60.2976 L 40.5364 60.2976 L 40.5364 60.2976 Z" fill="#ffffff"/>			<path d="M 41.3682 60.2126 L 41.3682 60.2126 L 41.3237 60.2126 L 41.2672 60.2206 L 41.2106 60.2247 L 41.1461 60.2287 L 41.0774 60.2367 L 41.0087 60.2409 L 40.9362 60.249 L 40.8673 60.257 L 40.8028 60.2651 L 40.7423 60.2733 L 40.6857 60.2773 L 40.6333 60.2854 L 40.5928 60.2894 L 40.5604 60.2934 L 40.5443 60.2976 L 40.5364 60.2976 L 40.5364 60.3461 L 40.5443 60.3461 L 40.5685 60.342 L 40.5928 60.338 L 40.6333 60.334 L 40.6857 60.3258 L 40.7423 60.3219 L 40.8028 60.3137 L 40.8673 60.3055 L 40.9362 60.2976 L 41.0087 60.2894 L 41.0774 60.2854 L 41.1461 60.2773 L 41.2106 60.2733 L 41.2672 60.2691 L 41.3237 60.2691 L 41.3682 60.2691 L 41.3682 60.2691 L 41.3682 60.2126 L 41.3682 60.2126 L 41.3682 60.2126 Z" fill="#ffffff"/>			<path d="M 41.9132 60.257 L 41.9376 60.2367 L 41.9213 60.2367 L 41.885 60.2327 L 41.8205 60.2287 L 41.7436 60.2206 L 41.6547 60.2206 L 41.562 60.2206 L 41.4651 60.2126 L 41.3682 60.2126 L 41.3682 60.2691 L 41.4651 60.2691 L 41.562 60.2691 L 41.6547 60.2773 L 41.7436 60.2773 L 41.8205 60.2773 L 41.885 60.2813 L 41.9213 60.2854 L 41.9376 60.2854 L 41.9616 60.2651 L 41.9376 60.2854 L 41.9576 60.2894 L 41.9616 60.2651 L 41.9132 60.257 L 41.9132 60.257 L 41.9132 60.257 Z" fill="#ffffff"/>			<path d="M 41.9537 59.9981 L 41.9495 59.9981 L 41.9455 60.0749 L 41.9334 60.1559 L 41.9213 60.2287 L 41.9132 60.257 L 41.9616 60.2651 L 41.9697 60.2367 L 41.9819 60.1638 L 41.994 60.0749 L 42.0061 59.9981 L 42.0021 59.9981 L 41.9537 59.9981 L 41.9537 59.9981 L 41.9537 59.9981 Z" fill="#ffffff"/>			<path d="M 41.473 59.5972 L 41.473 59.6012 L 41.5659 59.6053 L 41.6507 59.6297 L 41.7315 59.666 L 41.8002 59.7147 L 41.8566 59.7713 L 41.9052 59.8401 L 41.9376 59.913 L 41.9537 59.9981 L 42.0021 59.9981 L 41.9858 59.9049 L 41.9537 59.8159 L 41.8971 59.7389 L 41.8326 59.6742 L 41.7557 59.6175 L 41.667 59.581 L 41.5741 59.5567 L 41.473 59.5446 L 41.473 59.5487 L 41.473 59.5972 L 41.473 59.5972 L 41.473 59.5972 Z" fill="#ffffff"/>			<path d="M 39.7409 59.7916 L 39.7812 59.8159 L 39.8215 59.7956 L 39.8741 59.7672 L 39.9428 59.7429 L 40.0315 59.7187 L 40.1284 59.6984 L 40.2334 59.6782 L 40.3506 59.6579 L 40.4677 59.6418 L 40.5928 59.6256 L 40.722 59.6135 L 40.8512 59.6012 L 40.9845 59.5932 L 41.1137 59.5932 L 41.239 59.5932 L 41.3601 59.5932 L 41.473 59.5972 L 41.473 59.5487 L 41.3601 59.5446 L 41.239 59.5365 L 41.1137 59.5365 L 40.9845 59.5446 L 40.8512 59.5528 L 40.722 59.5649 L 40.5928 59.577 L 40.4677 59.5932 L 40.3424 59.6094 L 40.2253 59.6297 L 40.1205 59.6499 L 40.0234 59.6701 L 39.9346 59.6944 L 39.8578 59.7187 L 39.7972 59.747 L 39.7488 59.7754 L 39.7893 59.7996 L 39.7409 59.7916 L 39.7409 59.7916 L 39.7409 59.7916 Z" fill="#ffffff"/>			<path d="M 40.0397 58.7958 L 40.0234 58.816 L 39.7409 59.7916 L 39.7893 59.7996 L 40.072 58.8241 L 40.0557 58.8444 L 40.0397 58.7958 L 40.0275 58.7998 L 40.0234 58.816 L 40.0397 58.7958 L 40.0397 58.7958 L 40.0397 58.7958 Z" fill="#ffffff"/>			<path d="M 41.8365 58.6095 L 41.8365 58.6095 L 41.6992 58.6015 L 41.562 58.5974 L 41.4327 58.5974 L 41.3075 58.5974 L 41.1824 58.5974 L 41.0653 58.6055 L 40.9481 58.6095 L 40.8352 58.6177 L 40.726 58.6257 L 40.617 58.642 L 40.5161 58.6581 L 40.4151 58.6784 L 40.3182 58.6987 L 40.2213 58.7269 L 40.1284 58.7593 L 40.0397 58.7958 L 40.0557 58.8444 L 40.1447 58.8079 L 40.2374 58.7755 L 40.3263 58.7471 L 40.4232 58.7269 L 40.5243 58.7067 L 40.6251 58.6905 L 40.726 58.6743 L 40.8352 58.6662 L 40.9481 58.6581 L 41.0653 58.6541 L 41.1824 58.6541 L 41.3075 58.6541 L 41.4327 58.6541 L 41.562 58.6541 L 41.6992 58.6581 L 41.8365 58.6581 L 41.8365 58.6581 L 41.8365 58.6095 L 41.8365 58.6095 L 41.8365 58.6095 Z" fill="#ffffff"/>			<path d="M 43.2215 59.9817 L 43.2215 59.9817 L 43.2417 59.8159 L 43.2417 59.662 L 43.2135 59.5203 L 43.1691 59.3868 L 43.1045 59.2613 L 43.0235 59.148 L 42.9267 59.0468 L 42.8258 58.9577 L 42.7087 58.8808 L 42.5876 58.8079 L 42.4583 58.7512 L 42.3331 58.7027 L 42.1998 58.6662 L 42.0748 58.6379 L 41.9495 58.6177 L 41.8365 58.6095 L 41.8365 58.6581 L 41.9495 58.6662 L 42.0666 58.6864 L 42.1919 58.7148 L 42.317 58.7512 L 42.4422 58.7998 L 42.5634 58.8565 L 42.6845 58.9213 L 42.7934 58.9982 L 42.8945 59.0873 L 42.9832 59.1803 L 43.064 59.2855 L 43.1206 59.403 L 43.1649 59.5284 L 43.1933 59.662 L 43.1933 59.8159 L 43.173 59.9738 L 43.173 59.9738 L 43.2215 59.9817 L 43.2215 59.9817 L 43.2215 59.9817 Z" fill="#ffffff"/>			<path d="M 42.7976 62.1192 L 42.7976 62.1192 L 43.2215 59.9817 L 43.173 59.9738 L 42.7492 62.111 L 42.7492 62.111 L 42.7976 62.1192 L 42.7976 62.1192 L 42.7976 62.1192 Z" fill="#ffffff"/>			<path d="M 41.796 61.0586 L 41.7881 61.0343 L 41.772 61.014 L 41.7436 61.0019 L 41.7033 60.9898 L 41.6589 60.9856 L 41.6064 60.9816 L 41.5457 60.9816 L 41.4851 60.9856 L 41.4206 60.9937 L 41.3559 61.0019 L 41.2914 61.0099 L 41.2308 61.018 L 41.1703 61.0302 L 41.1177 61.0383 L 41.0653 61.0505 L 41.0247 61.0586 L 40.9966 61.0626 L 40.9644 61.0747 L 40.9239 61.0869 L 40.8794 61.103 L 40.827 61.1273 L 40.7786 61.1516 L 40.722 61.18 L 40.6696 61.2164 L 40.617 61.2529 L 40.5646 61.2974 L 40.5201 61.3418 L 40.4756 61.3946 L 40.4395 61.4511 L 40.4111 61.512 L 40.3869 61.5767 L 40.3748 61.6455 L 40.3708 61.783 L 40.3909 61.8925 L 40.4232 61.9733 L 40.4717 62.034 L 40.5322 62.0746 L 40.6009 62.0989 L 40.6696 62.111 L 40.7381 62.115 L 40.8594 62.111 L 40.9723 62.0989 L 41.0774 62.0786 L 41.1703 62.0503 L 41.2592 62.0179 L 41.3358 61.9815 L 41.4085 61.9409 L 41.473 61.8925 L 41.5296 61.8477 L 41.5781 61.7952 L 41.6225 61.7466 L 41.6589 61.6941 L 41.687 61.6455 L 41.7073 61.597 L 41.7234 61.5482 L 41.7355 61.5038 L 41.7518 61.3904 L 41.772 61.2732 L 41.7881 61.1597 L 41.796 61.0586 L 41.796 61.0586 L 41.796 61.0586 Z" fill="#f9ba29"/>			<path d="M 50.1144 62.4591 L 50.1225 62.366 L 50.1547 62.2567 L 50.2113 62.1596 L 50.28 62.0746 L 50.3647 62.0057 L 50.4616 61.9572 L 50.5666 61.9247 L 50.6796 61.9126 L 50.7928 61.9247 L 50.8978 61.9572 L 50.9947 62.0057 L 51.0794 62.0746 L 51.1481 62.1596 L 51.2047 62.2567 L 51.2369 62.366 L 51.245 62.4591 L 51.1239 62.4591 L 51.1197 62.3863 L 51.0955 62.2971 L 51.0552 62.2163 L 51.0026 62.1474 L 50.9381 62.0907 L 50.8612 62.0503 L 50.7725 62.0219 L 50.6796 62.0137 L 50.5869 62.0219 L 50.4979 62.0503 L 50.4213 62.0907 L 50.3566 62.1474 L 50.3042 62.2163 L 50.2637 62.2971 L 50.2394 62.3863 L 50.2315 62.4591 L 50.1144 62.4591 L 50.1144 62.4591 L 50.1144 62.4591 Z" fill="#ffffff"/>			<path d="M 50.4777 62.4591 L 50.4777 62.2163 L 50.6998 62.2163 L 50.7483 62.2203 L 50.7928 62.2285 L 50.8251 62.2406 L 50.8533 62.2567 L 50.8736 62.281 L 50.8896 62.3053 L 50.8978 62.3335 L 50.9017 62.362 L 50.8978 62.3984 L 50.8896 62.4267 L 50.8775 62.4509 L 50.8694 62.4591 L 50.6998 62.4591 L 50.7159 62.4551 L 50.7443 62.4509 L 50.7685 62.443 L 50.7886 62.4348 L 50.8049 62.4227 L 50.813 62.4105 L 50.8209 62.3902 L 50.8209 62.362 L 50.817 62.3417 L 50.8088 62.3256 L 50.7967 62.3174 L 50.7846 62.3092 L 50.7644 62.3053 L 50.7443 62.3013 L 50.7241 62.3013 L 50.6998 62.3013 L 50.5787 62.3013 L 50.5787 62.4591 L 50.4777 62.4591 L 50.4777 62.4591 L 50.4777 62.4591 Z" fill="#ffffff"/>			<path d="M 50.1144 62.4591 L 50.1102 62.4834 L 50.1225 62.6008 L 50.1547 62.7101 L 50.2113 62.8072 L 50.28 62.8882 L 50.3647 62.9571 L 50.4616 63.0096 L 50.5666 63.042 L 50.6796 63.0542 L 50.7928 63.042 L 50.8978 63.0096 L 50.9947 62.9571 L 51.0794 62.8882 L 51.1481 62.8072 L 51.2047 62.7101 L 51.2369 62.6008 L 51.249 62.4834 L 51.245 62.4591 L 51.1239 62.4591 L 51.1279 62.4834 L 51.1197 62.5805 L 51.0955 62.6697 L 51.0552 62.7465 L 51.0026 62.8151 L 50.9381 62.8721 L 50.8612 62.9164 L 50.7725 62.9449 L 50.6796 62.9529 L 50.5869 62.9449 L 50.4979 62.9164 L 50.4213 62.8721 L 50.3566 62.8151 L 50.3042 62.7465 L 50.2637 62.6697 L 50.2394 62.5805 L 50.2315 62.4834 L 50.2315 62.4591 L 50.1144 62.4591 L 50.1144 62.4591 L 50.1144 62.4591 Z" fill="#ffffff"/>			<path d="M 50.4777 62.4591 L 50.4777 62.7061 L 50.5787 62.7061 L 50.5787 62.5037 L 50.6796 62.5037 L 50.8009 62.7061 L 50.8815 62.7061 L 50.7604 62.5037 L 50.7886 62.5037 L 50.817 62.4955 L 50.8412 62.4874 L 50.8612 62.4712 L 50.8694 62.4591 L 50.6998 62.4591 L 50.6796 62.4631 L 50.5787 62.4631 L 50.5787 62.4591 L 50.4777 62.4591 L 50.4777 62.4591 L 50.4777 62.4591 Z" fill="#ffffff"/>			<path d="M 50.1102 62.4834 L 50.1102 62.4834 L 50.1225 62.366 L 50.1547 62.2567 L 50.2113 62.1596 L 50.28 62.0746 L 50.3647 62.0057 L 50.4616 61.9572 L 50.5666 61.9247 L 50.6796 61.9126 L 50.6796 61.9126 L 50.7928 61.9247 L 50.8978 61.9572 L 50.9947 62.0057 L 51.0794 62.0746 L 51.1481 62.1596 L 51.2047 62.2567 L 51.2369 62.366 L 51.249 62.4834 L 51.249 62.4834 L 51.2369 62.6008 L 51.2047 62.7101 L 51.1481 62.8072 L 51.0794 62.8882 L 50.9947 62.9571 L 50.8978 63.0096 L 50.7928 63.042 L 50.6796 63.0542 L 50.6796 63.0542 L 50.5666 63.042 L 50.4616 63.0096 L 50.3647 62.9571 L 50.28 62.8882 L 50.2113 62.8072 L 50.1547 62.7101 L 50.1225 62.6008 L 50.1102 62.4834 L 50.1102 62.4834 ZM 50.5787 62.7061 L 50.4777 62.7061 L 50.4777 62.2163 L 50.6998 62.2163 L 50.6998 62.2163 L 50.7483 62.2203 L 50.7928 62.2285 L 50.8251 62.2406 L 50.8533 62.2567 L 50.8736 62.281 L 50.8896 62.3053 L 50.8978 62.3335 L 50.9017 62.362 L 50.9017 62.362 L 50.8978 62.3984 L 50.8896 62.4267 L 50.8775 62.4509 L 50.8612 62.4712 L 50.8412 62.4874 L 50.817 62.4955 L 50.7886 62.5037 L 50.7604 62.5037 L 50.8815 62.7061 L 50.8009 62.7061 L 50.6796 62.5037 L 50.5787 62.5037 L 50.5787 62.7061 L 50.5787 62.7061 ZM 50.6796 62.4631 L 50.6796 62.4631 L 50.7159 62.4551 L 50.7443 62.4509 L 50.7685 62.443 L 50.7886 62.4348 L 50.8049 62.4227 L 50.813 62.4105 L 50.8209 62.3902 L 50.8209 62.362 L 50.8209 62.362 L 50.817 62.3417 L 50.8088 62.3256 L 50.7967 62.3174 L 50.7846 62.3092 L 50.7644 62.3053 L 50.7443 62.3013 L 50.7241 62.3013 L 50.6998 62.3013 L 50.5787 62.3013 L 50.5787 62.4631 L 50.6796 62.4631 L 50.6796 62.4631 ZM 50.6796 62.9529 L 50.6796 62.9529 L 50.7725 62.9449 L 50.8612 62.9164 L 50.9381 62.8721 L 51.0026 62.8151 L 51.0552 62.7465 L 51.0955 62.6697 L 51.1197 62.5805 L 51.1279 62.4834 L 51.1279 62.4834 L 51.1197 62.3863 L 51.0955 62.2971 L 51.0552 62.2163 L 51.0026 62.1474 L 50.9381 62.0907 L 50.8612 62.0503 L 50.7725 62.0219 L 50.6796 62.0137 L 50.6796 62.0137 L 50.5869 62.0219 L 50.4979 62.0503 L 50.4213 62.0907 L 50.3566 62.1474 L 50.3042 62.2163 L 50.2637 62.2971 L 50.2394 62.3863 L 50.2315 62.4834 L 50.2315 62.4834 L 50.2394 62.5805 L 50.2637 62.6697 L 50.3042 62.7465 L 50.3566 62.8151 L 50.4213 62.8721 L 50.4979 62.9164 L 50.5869 62.9449 L 50.6796 62.9529 L 50.6796 62.9529 Z" stroke="#ffffff" stroke-width="1" fill="none"/>			<path d="M 43.0762 63.0136 L 44.2149 63.0136 L 44.2149 63.0136 L 44.6229 60.7103 L 44.6388 60.6214 L 44.6632 60.5322 L 44.6874 60.4433 L 44.7196 60.3543 L 44.7601 60.2651 L 44.8085 60.1802 L 44.8609 60.0992 L 44.9256 60.0223 L 44.9983 59.9535 L 45.0789 59.8887 L 45.1718 59.8279 L 45.2768 59.7794 L 45.394 59.7389 L 45.5232 59.7066 L 45.6646 59.6822 L 45.822 59.6742 L 45.8786 59.6742 L 45.9107 59.6742 L 45.9228 59.6742 L 45.9228 59.6742 L 46.1047 58.6339 L 45.9915 58.642 L 45.8825 58.6541 L 45.7815 58.6743 L 45.6846 58.7027 L 45.5959 58.735 L 45.5111 58.7755 L 45.4303 58.82 L 45.3537 58.8686 L 45.281 58.9254 L 45.2123 58.982 L 45.1476 59.0468 L 45.0831 59.1115 L 45.0225 59.1803 L 44.962 59.2572 L 44.9014 59.3301 L 44.8448 59.4111 L 44.9659 58.6784 L 43.8314 58.6784 L 43.0762 63.0136 L 43.0762 63.0136 L 43.0762 63.0136 L 43.0762 63.0136 Z" fill="#ffffff"/>			<path d="M 43.0762 63.0136 L 44.2149 63.0136 L 44.2149 63.0136 L 44.6229 60.7103 L 44.6229 60.7103 L 44.6388 60.6214 L 44.6632 60.5322 L 44.6874 60.4433 L 44.7196 60.3543 L 44.7601 60.2651 L 44.8085 60.1802 L 44.8609 60.0992 L 44.9256 60.0223 L 44.9983 59.9535 L 45.0789 59.8887 L 45.1718 59.8279 L 45.2768 59.7794 L 45.394 59.7389 L 45.5232 59.7066 L 45.6646 59.6822 L 45.822 59.6742 L 45.822 59.6742 L 45.8786 59.6742 L 45.9107 59.6742 L 45.9228 59.6742 L 45.9228 59.6742 L 46.1047 58.6339 L 46.1047 58.6339 L 45.9915 58.642 L 45.8825 58.6541 L 45.7815 58.6743 L 45.6846 58.7027 L 45.5959 58.735 L 45.5111 58.7755 L 45.4303 58.82 L 45.3537 58.8686 L 45.281 58.9254 L 45.2123 58.982 L 45.1476 59.0468 L 45.0831 59.1115 L 45.0225 59.1803 L 44.962 59.2572 L 44.9014 59.3301 L 44.8448 59.4111 L 44.9659 58.6784 L 43.8314 58.6784 L 43.0762 63.0136 L 43.0762 63.0136 L 43.0762 63.0136 Z" stroke="#ffffff" stroke-width="1" fill="none"/>			<path d="M 32.3836 63.0136 L 33.5224 63.0136 L 33.5426 63.0136 L 33.9301 60.7103 L 33.9462 60.6214 L 33.9665 60.5364 L 33.9867 60.4514 L 34.0149 60.3704 L 34.0473 60.2894 L 34.0876 60.2126 L 34.136 60.1396 L 34.1926 60.0709 L 34.2573 60.01 L 34.33 59.9495 L 34.4187 59.9008 L 34.5156 59.8564 L 34.6288 59.8198 L 34.7538 59.7875 L 34.8912 59.7672 L 35.0487 59.7551 L 35.0608 59.7551 L 35.077 59.7591 L 35.0971 59.7632 L 35.1173 59.7632 L 35.1376 59.7672 L 35.1537 59.7713 L 35.1658 59.7754 L 35.1698 59.7754 L 35.1739 59.7591 L 35.186 59.7106 L 35.2021 59.6377 L 35.2224 59.5487 L 35.2506 59.4434 L 35.2787 59.3301 L 35.3153 59.2167 L 35.3516 59.1034 L 35.3838 59.0265 L 35.4243 58.9495 L 35.4646 58.8727 L 35.5049 58.8039 L 35.5414 58.7432 L 35.5696 58.6946 L 35.5898 58.6662 L 35.5978 58.6541 L 35.5938 58.6541 L 35.5775 58.65 L 35.5575 58.646 L 35.5293 58.642 L 35.5009 58.642 L 35.4685 58.6379 L 35.4403 58.6339 L 35.4122 58.6339 L 35.2869 58.642 L 35.1739 58.6541 L 35.0689 58.6743 L 34.972 58.6987 L 34.8791 58.731 L 34.7943 58.7715 L 34.7175 58.8119 L 34.6448 58.8606 L 34.5762 58.9131 L 34.5116 58.9738 L 34.4511 59.0346 L 34.3905 59.1034 L 34.33 59.1722 L 34.2734 59.2492 L 34.2128 59.3301 L 34.1523 59.4111 L 34.2976 58.6784 L 33.1388 58.6784 L 32.3836 63.0136 L 32.3836 63.0136 L 32.3836 63.0136 L 32.3836 63.0136 Z" fill="#ffffff"/>			<path d="M 32.3836 63.0136 L 33.5224 63.0136 L 33.5426 63.0136 L 33.9301 60.7103 L 33.9301 60.7103 L 33.9462 60.6214 L 33.9665 60.5364 L 33.9867 60.4514 L 34.0149 60.3704 L 34.0473 60.2894 L 34.0876 60.2126 L 34.136 60.1396 L 34.1926 60.0709 L 34.2573 60.01 L 34.33 59.9495 L 34.4187 59.9008 L 34.5156 59.8564 L 34.6288 59.8198 L 34.7538 59.7875 L 34.8912 59.7672 L 35.0487 59.7551 L 35.0487 59.7551 L 35.0608 59.7551 L 35.077 59.7591 L 35.0971 59.7632 L 35.1173 59.7632 L 35.1376 59.7672 L 35.1537 59.7713 L 35.1658 59.7754 L 35.1698 59.7754 L 35.1698 59.7754 L 35.1739 59.7591 L 35.186 59.7106 L 35.2021 59.6377 L 35.2224 59.5487 L 35.2506 59.4434 L 35.2787 59.3301 L 35.3153 59.2167 L 35.3516 59.1034 L 35.3516 59.1034 L 35.3838 59.0265 L 35.4243 58.9495 L 35.4646 58.8727 L 35.5049 58.8039 L 35.5414 58.7432 L 35.5696 58.6946 L 35.5898 58.6662 L 35.5978 58.6541 L 35.5978 58.6541 L 35.5938 58.6541 L 35.5775 58.65 L 35.5575 58.646 L 35.5293 58.642 L 35.5009 58.642 L 35.4685 58.6379 L 35.4403 58.6339 L 35.4122 58.6339 L 35.4122 58.6339 L 35.2869 58.642 L 35.1739 58.6541 L 35.0689 58.6743 L 34.972 58.6987 L 34.8791 58.731 L 34.7943 58.7715 L 34.7175 58.8119 L 34.6448 58.8606 L 34.5762 58.9131 L 34.5116 58.9738 L 34.4511 59.0346 L 34.3905 59.1034 L 34.33 59.1722 L 34.2734 59.2492 L 34.2128 59.3301 L 34.1523 59.4111 L 34.2976 58.6784 L 33.1388 58.6784 L 32.3836 63.0136 L 32.3836 63.0136 L 32.3836 63.0136 Z" stroke="#ffffff" stroke-width="1" fill="none"/>			<path d="M 50.1225 67.2721 L 50.1225 67.2558 L 50.1547 67.1505 L 50.2113 67.0576 L 50.28 66.9766 L 50.3647 66.9117 L 50.4616 66.8632 L 50.5666 66.8349 L 50.6796 66.8228 L 50.7928 66.8349 L 50.8978 66.8632 L 50.9947 66.9117 L 51.0794 66.9766 L 51.1481 67.0576 L 51.2047 67.1505 L 51.2369 67.2558 L 51.2369 67.2721 L 51.1197 67.2721 L 51.0955 67.1872 L 51.0552 67.1101 L 51.0026 67.0413 L 50.9381 66.9848 L 50.8612 66.9402 L 50.7725 66.9117 L 50.6796 66.9038 L 50.5869 66.9117 L 50.4979 66.9402 L 50.4213 66.9848 L 50.3566 67.0413 L 50.3042 67.1101 L 50.2637 67.1872 L 50.2394 67.2721 L 50.1225 67.2721 L 50.1225 67.2721 L 50.1225 67.2721 Z" fill="#f9ba29"/>			<path d="M 50.4777 67.2721 L 50.4777 67.1304 L 50.6998 67.1304 L 50.7483 67.1304 L 50.7928 67.1384 L 50.8251 67.1466 L 50.8533 67.1627 L 50.8736 67.183 L 50.8896 67.2073 L 50.8978 67.2357 L 50.9017 67.2721 L 50.8209 67.2721 L 50.8209 67.2518 L 50.817 67.2315 L 50.8088 67.2154 L 50.7967 67.2073 L 50.7846 67.1993 L 50.7644 67.1951 L 50.7443 67.1911 L 50.7241 67.1911 L 50.6998 67.1911 L 50.5787 67.1911 L 50.5787 67.2721 L 50.4777 67.2721 L 50.4777 67.2721 L 50.4777 67.2721 Z" fill="#f9ba29"/>			<path d="M 50.1102 67.3611 L 50.1225 67.2721 L 50.2394 67.2721 L 50.2394 67.2761 L 50.2315 67.3611 L 50.1102 67.3611 L 50.1102 67.3611 L 50.1102 67.3611 Z" fill="#f9ba29"/>			<path d="M 50.4777 67.3611 L 50.4777 67.2721 L 50.5787 67.2721 L 50.5787 67.3529 L 50.6796 67.3529 L 50.7159 67.345 L 50.7443 67.3408 L 50.7685 67.3328 L 50.7886 67.3247 L 50.8049 67.3125 L 50.813 67.3004 L 50.8209 67.2801 L 50.8209 67.2721 L 50.9017 67.2721 L 50.9017 67.2721 L 50.8978 67.3004 L 50.8896 67.3247 L 50.8775 67.345 L 50.8612 67.3611 L 50.4777 67.3611 L 50.4777 67.3611 L 50.4777 67.3611 Z" fill="#f9ba29"/>			<path d="M 51.1279 67.3611 L 51.1197 67.2761 L 51.1197 67.2721 L 51.2369 67.2721 L 51.249 67.3611 L 51.1279 67.3611 L 51.1279 67.3611 L 51.1279 67.3611 Z" fill="#f9ba29"/>			<path d="M 50.1102 67.3611 L 50.1102 67.3732 L 50.1225 67.4907 L 50.1547 67.5999 L 50.2113 67.697 L 50.28 67.782 L 50.3647 67.8509 L 50.4616 67.8994 L 50.5666 67.9319 L 50.6796 67.944 L 50.7928 67.9319 L 50.8978 67.8994 L 50.9947 67.8509 L 51.0794 67.782 L 51.1481 67.697 L 51.2047 67.5999 L 51.2369 67.4907 L 51.249 67.3732 L 51.249 67.3611 L 51.1279 67.3611 L 51.1279 67.3732 L 51.1197 67.4704 L 51.0955 67.5595 L 51.0552 67.6363 L 51.0026 67.7052 L 50.9381 67.7619 L 50.8612 67.8063 L 50.7725 67.8346 L 50.6796 67.8427 L 50.5869 67.8346 L 50.4979 67.8063 L 50.4213 67.7619 L 50.3566 67.7052 L 50.3042 67.6363 L 50.2637 67.5595 L 50.2394 67.4704 L 50.2315 67.3732 L 50.2315 67.3611 L 50.1102 67.3611 L 50.1102 67.3611 L 50.1102 67.3611 Z" fill="#f9ba29"/>			<path d="M 50.4777 67.3611 L 50.4777 67.5959 L 50.5787 67.5959 L 50.5787 67.3935 L 50.6796 67.3935 L 50.8009 67.5959 L 50.8815 67.5959 L 50.7604 67.3935 L 50.7886 67.3935 L 50.817 67.3854 L 50.8412 67.3772 L 50.8612 67.3611 L 50.8612 67.3611 L 50.4777 67.3611 L 50.4777 67.3611 L 50.4777 67.3611 Z" fill="#f9ba29"/>			<rect x="29" y="60" width="1" height="2" fill="#ffffff"/>		</g>	</g></svg>