<?xml version="1.0" standalone="no"?><!-- Generator: Adobe Fireworks CS6, Export SVG Extension by Aaron Beall (http://fireworks.abeall.com) . Version: 0.6.0  --><!DOCTYPE svg PUBLIC "-//W3C//DTD SVG 1.1//EN" "http://www.w3.org/Graphics/SVG/1.1/DTD/svg11.dtd"><svg id="" viewBox="0 0 200 87" style="background-color:#ffffff00" version="1.1"	xmlns="http://www.w3.org/2000/svg" xmlns:xlink="http://www.w3.org/1999/xlink" xml:space="preserve"	x="0px" y="0px" width="200px" height="87px">	<g id="Layer%201">		<path d="M 83.0814 58.0353 C 84.5329 58.0353 86.7254 57.0695 88.4402 55.7483 C 88.4402 55.7483 112.2191 32.0241 113.2633 30.9832 C 114.3076 29.9424 117.4324 29.1667 117.4324 29.1667 L 88.439 2.375 C 86.7243 1.0546 84.5325 0.0896 83.0814 0.0896 L 81.4837 0.0896 L 8.6585 0.0896 C 3.8763 0.0896 0 3.954 0 8.7205 L 0 49.25 C 0 54.0165 3.8763 58.0353 8.6585 58.0353 L 81.0843 58.0353 L 83.0814 58.0353 Z" fill="#6dbc43"/>		<path d="M 116.7473 29 C 115.2928 29 113.0957 29.9709 111.3775 31.2992 C 111.3775 31.2992 89.9424 53.05 86.5492 55.8675 C 84.9275 57.2141 82.1918 57.6808 82.1918 57.6808 L 111.3786 84.7024 C 113.0969 86.0298 115.2932 87 116.7473 87 L 118.3483 87 L 191.3238 87 C 196.1159 87 200 83.115 200 78.3235 L 200 37.832 C 200 33.0402 196.1159 29 191.3238 29 L 118.7485 29 L 116.7473 29 Z" fill="#2fa3db"/>		<g>			<path d="M 32.5966 38.4236 L 27.555 19.6446 L 27.555 40.0916 C 27.555 41.2892 27.2868 42.1873 26.7505 42.7861 C 26.2141 43.3849 25.5025 43.6843 24.6158 43.6843 C 23.7577 43.6843 23.0567 43.3884 22.5134 42.797 C 21.9696 42.2052 21.6981 41.3036 21.6981 40.0916 L 21.6981 15.2851 C 21.6981 13.9165 22.0554 12.9935 22.7708 12.516 C 23.4858 12.0385 24.4512 11.7994 25.6671 11.7994 L 27.6408 11.7994 C 28.8278 11.7994 29.6897 11.9063 30.226 12.1202 C 30.7623 12.334 31.1592 12.7189 31.4167 13.2749 C 31.6741 13.831 31.9671 14.7365 32.2963 15.9908 L 36.8659 33.1629 L 41.4356 15.9908 C 41.7644 14.7365 42.0577 13.831 42.3152 13.2749 C 42.5726 12.7189 42.9695 12.334 43.5059 12.1202 C 44.0422 11.9063 44.9039 11.7994 46.0912 11.7994 L 48.065 11.7994 C 49.2805 11.7994 50.2455 12.0385 50.9608 12.516 C 51.6763 12.9935 52.0336 13.9165 52.0336 15.2851 L 52.0336 40.0916 C 52.0336 41.2892 51.7652 42.1873 51.2292 42.7861 C 50.6925 43.3849 49.974 43.6843 49.0729 43.6843 C 48.2288 43.6843 47.5353 43.3849 46.9923 42.7861 C 46.4485 42.1873 46.1771 41.2892 46.1771 40.0916 L 46.1771 19.6446 L 41.1352 38.4236 C 40.806 39.7211 40.5379 40.6725 40.3307 41.2783 C 40.1232 41.8849 39.7407 42.437 39.1829 42.9358 C 38.6251 43.4347 37.8528 43.6843 36.8659 43.6843 C 36.1221 43.6843 35.4929 43.5237 34.978 43.2033 C 34.4631 42.8826 34.0625 42.4727 33.7766 41.9735 C 33.4903 41.4747 33.265 40.9221 33.1008 40.3164 C 32.9362 39.7106 32.7683 39.0795 32.5966 38.4236 Z" fill="#ffffff"/>			<path d="M 72.3202 33.2485 L 60.8639 33.2485 C 60.878 34.5743 61.1463 35.7435 61.6682 36.7556 C 62.1905 37.7681 62.884 38.5305 63.7492 39.0438 C 64.6148 39.557 65.5693 39.8136 66.6135 39.8136 C 67.3141 39.8136 67.9542 39.7316 68.5334 39.5675 C 69.1127 39.4042 69.674 39.1476 70.2177 38.7977 C 70.7611 38.4485 71.2616 38.0745 71.7195 37.6751 C 72.177 37.2762 72.7707 36.7342 73.5002 36.0499 C 73.8005 35.7933 74.2296 35.665 74.7874 35.665 C 75.3881 35.665 75.8741 35.8291 76.2462 36.1568 C 76.618 36.485 76.804 36.948 76.804 37.5468 C 76.804 38.0745 76.5965 38.6911 76.1819 39.3964 C 75.7669 40.1025 75.1412 40.7798 74.3045 41.4284 C 73.4678 42.0769 72.4166 42.615 71.1508 43.0428 C 69.885 43.4705 68.4297 43.6843 66.7852 43.6843 C 63.0233 43.6843 60.0986 42.615 58.0105 40.4766 C 55.9221 38.3381 54.8783 35.4371 54.8783 31.7729 C 54.8783 30.0481 55.1358 28.4474 55.6506 26.9722 C 56.1656 25.4962 56.9164 24.2314 57.9033 23.1762 C 58.8902 22.1213 60.1056 21.3126 61.5504 20.7488 C 62.9949 20.1858 64.5969 19.9043 66.3561 19.9043 C 68.6442 19.9043 70.6074 20.3857 72.2449 21.3476 C 73.8828 22.3103 75.1092 23.5541 75.9244 25.0794 C 76.7397 26.6051 77.1473 28.1589 77.1473 29.7413 C 77.1473 31.2099 76.7253 32.1613 75.8815 32.596 C 75.0374 33.0315 73.8504 33.2485 72.3202 33.2485 ZM 60.8639 29.9338 L 71.4835 29.9338 C 71.3403 27.938 70.8005 26.4449 69.8636 25.4535 C 68.927 24.4628 67.6932 23.9674 66.163 23.9674 C 64.7041 23.9674 63.5062 24.4698 62.5693 25.4753 C 61.6327 26.4799 61.064 27.9664 60.8639 29.9338 Z" fill="#ffffff"/>		</g>		<g>			<path d="M 130.4184 58.2605 L 124.571 58.2605 L 124.571 67.1825 C 124.571 68.4583 124.27 69.4258 123.668 70.0848 C 123.0661 70.7438 122.3063 71.0737 121.3893 71.0737 C 120.4285 71.0737 119.6546 70.7477 119.0675 70.0954 C 118.4796 69.4434 118.1857 68.4869 118.1857 67.2255 L 118.1857 42.932 C 118.1857 41.5275 118.5085 40.5241 119.1535 39.9222 C 119.7984 39.3202 120.8225 39.0192 122.2273 39.0192 L 130.4184 39.0192 C 132.8403 39.0192 134.7032 39.2057 136.0079 39.5782 C 137.2978 39.9366 138.4118 40.5316 139.3506 41.3626 C 140.2891 42.194 141.0025 43.2115 141.4895 44.4154 C 141.9765 45.6193 142.2204 46.9737 142.2204 48.4786 C 142.2204 51.6894 141.2315 54.1222 139.2537 55.7772 C 137.2759 57.433 134.3311 58.2605 130.4184 58.2605 ZM 128.8705 43.8134 L 124.571 43.8134 L 124.571 53.4448 L 128.8705 53.4448 C 130.3754 53.4448 131.6328 53.2873 132.6433 52.9719 C 133.6537 52.6568 134.4241 52.1408 134.9541 51.424 C 135.4841 50.7075 135.7499 49.7686 135.7499 48.6076 C 135.7499 47.2177 135.3411 46.0853 134.5242 45.2108 C 133.6072 44.2794 131.7224 43.8134 128.8705 43.8134 Z" fill="#ffffff"/>			<path d="M 158.0988 67.7629 C 156.68 68.8668 155.308 69.6943 153.9822 70.2462 C 152.6564 70.7978 151.1695 71.0737 149.5215 71.0737 C 148.0167 71.0737 146.694 70.7763 145.555 70.1814 C 144.4156 69.5872 143.5377 68.7808 142.9216 67.7629 C 142.3049 66.7455 141.9969 65.642 141.9969 64.4521 C 141.9969 62.8472 142.5058 61.4783 143.5236 60.3459 C 144.541 59.2139 145.938 58.454 147.7157 58.067 C 148.0878 57.981 149.0126 57.7876 150.4886 57.4866 C 151.9645 57.1856 153.2294 56.91 154.2832 56.6591 C 155.3362 56.4081 156.4791 56.1036 157.7119 55.7452 C 157.64 54.1973 157.3288 53.0614 156.7769 52.3375 C 156.225 51.6143 155.0821 51.252 153.3482 51.252 C 151.8574 51.252 150.7356 51.4599 149.9836 51.8754 C 149.2308 52.2913 148.5858 52.9148 148.0487 53.7458 C 147.5109 54.5772 147.1318 55.1252 146.9089 55.3903 C 146.687 55.6561 146.2109 55.7882 145.4799 55.7882 C 144.8201 55.7882 144.2506 55.5771 143.7706 55.1542 C 143.2903 54.7312 143.0507 54.1902 143.0507 53.5308 C 143.0507 52.4989 143.4157 51.4959 144.1466 50.521 C 144.878 49.5465 146.017 48.744 147.5648 48.1132 C 149.1127 47.4827 151.0405 47.1672 153.3482 47.1672 C 155.9279 47.1672 157.9558 47.4717 159.4317 48.0807 C 160.9077 48.6905 161.9505 49.654 162.5595 50.9725 C 163.1693 52.2913 163.4734 54.0398 163.4734 56.2182 C 163.4734 57.5941 163.4702 58.7624 163.4624 59.7224 C 163.4554 60.6828 163.4444 61.7507 163.4304 62.9257 C 163.4304 64.0296 163.6133 65.1796 163.9784 66.3765 C 164.3442 67.5734 164.5271 68.3434 164.5271 68.6874 C 164.5271 69.2894 164.2441 69.8374 163.6774 70.3322 C 163.1114 70.8263 162.4704 71.0737 161.7535 71.0737 C 161.1516 71.0737 160.5566 70.7907 159.9696 70.2243 C 159.3817 69.6583 158.7579 68.8379 158.0988 67.7629 ZM 157.7119 59.271 C 156.852 59.5864 155.602 59.9198 153.9603 60.2709 C 152.3194 60.6219 151.1835 60.8799 150.5534 61.0448 C 149.9226 61.2098 149.3206 61.5318 148.7476 62.0119 C 148.1738 62.4926 147.8877 63.1622 147.8877 64.0222 C 147.8877 64.911 148.2238 65.6666 148.8977 66.2905 C 149.5716 66.9135 150.4526 67.2255 151.5424 67.2255 C 152.7032 67.2255 153.7742 66.9714 154.7561 66.4625 C 155.738 65.9535 156.4579 65.298 156.9168 64.4951 C 157.4469 63.6067 157.7119 62.1448 157.7119 60.1094 L 157.7119 59.271 Z" fill="#ffffff"/>			<path d="M 172.0643 71.8047 L 172.6017 70.4933 L 165.3784 52.3054 C 164.934 51.2594 164.712 50.4995 164.712 50.0266 C 164.712 49.525 164.841 49.0591 165.099 48.6291 C 165.357 48.1992 165.7115 47.8552 166.1629 47.5972 C 166.6144 47.3392 167.0838 47.2102 167.5713 47.2102 C 168.4167 47.2102 169.0546 47.4788 169.4846 48.0166 C 169.9146 48.5537 170.2941 49.3245 170.624 50.3275 L 175.59 64.7746 L 180.298 51.338 C 180.6706 50.249 181.0075 49.3961 181.3085 48.7796 C 181.6094 48.1636 181.9284 47.7477 182.2649 47.5327 C 182.6019 47.3177 183.0783 47.2102 183.6947 47.2102 C 184.1388 47.2102 184.5652 47.3287 184.9737 47.5648 C 185.3822 47.8016 185.6976 48.1206 185.9196 48.5216 C 186.142 48.9231 186.253 49.346 186.253 49.7901 C 186.1956 50.0625 186.1025 50.4495 185.9735 50.951 C 185.8445 51.4529 185.6866 51.9614 185.5006 52.4774 L 177.8473 72.5141 C 177.1879 74.277 176.543 75.66 175.9125 76.6634 C 175.2816 77.6664 174.4471 78.4368 173.4077 78.9747 C 172.3688 79.5118 170.968 79.7807 169.2051 79.7807 C 167.4853 79.7807 166.1954 79.5942 165.3355 79.2217 C 164.4756 78.8488 164.0456 78.1683 164.0456 77.1794 C 164.0456 76.5055 164.2496 75.986 164.6581 75.6209 C 165.0666 75.255 165.672 75.0725 166.4749 75.0725 C 166.7899 75.0725 167.0983 75.1155 167.3993 75.2015 C 167.7718 75.2875 168.0942 75.3305 168.3667 75.3305 C 169.0402 75.3305 169.5706 75.23 169.9575 75.0295 C 170.3445 74.8286 170.692 74.4811 171 73.987 C 171.3084 73.4921 171.6629 72.7647 172.0643 71.8047 Z" fill="#ffffff"/>		</g>	</g></svg>