<?xml version="1.0" standalone="no"?><!-- Generator: Adobe Fireworks CS6, Export SVG Extension by Aaron Beall (http://fireworks.abeall.com) . Version: 0.6.0  --><!-- Author: E Gagolinan by request of A Abon  --><!DOCTYPE svg PUBLIC "-//W3C//DTD SVG 1.1//EN" "http://www.w3.org/Graphics/SVG/1.1/DTD/svg11.dtd"><svg id="misc_icons" viewBox="0 0 52 78" style="background-color:#ffffff00" version="1.1"	xmlns="http://www.w3.org/2000/svg" xmlns:xlink="http://www.w3.org/1999/xlink" xml:space="preserve"	x="0px" y="0px" width="52px" height="78px">	<g id="Layer%201">		<path d="M 17.6498 9.3751 C 18.1171 9.8759 18.1165 10.6872 17.6495 11.1876 L 12.5771 16.6245 C 12.1102 17.1252 11.3528 17.1252 10.8859 16.6245 L 8.3502 13.9068 C 7.8833 13.4059 7.8833 12.5943 8.3502 12.094 C 8.8174 11.5934 9.5742 11.5934 10.0411 12.094 L 11.7318 13.9062 L 15.9588 9.3751 C 16.4259 8.875 17.183 8.875 17.6498 9.3751 ZM 5 13 C 5 17.4183 8.5817 21 13 21 C 17.4183 21 21 17.4183 21 13 C 21 8.5817 17.4183 5 13 5 C 8.5817 5 5 8.5817 5 13 Z" fill="#8cc63f"/>		<path d="M 43.6498 9.3751 C 44.1171 9.8759 44.1165 10.6872 43.6495 11.1876 L 38.5771 16.6245 C 38.1102 17.1252 37.3528 17.1252 36.8859 16.6245 L 34.3502 13.9068 C 33.8833 13.4059 33.8833 12.5943 34.3502 12.094 C 34.8174 11.5934 35.5742 11.5934 36.0411 12.094 L 37.7318 13.9062 L 41.9588 9.3751 C 42.4259 8.875 43.183 8.875 43.6498 9.3751 ZM 31 13 C 31 17.4183 34.5817 21 39 21 C 43.4183 21 47 17.4183 47 13 C 47 8.5817 43.4183 5 39 5 C 34.5817 5 31 8.5817 31 13 Z" fill="#8cc63f"/>		<path d="M 9.7422 40.4781 C 8.4637 39.1986 8.4841 37.104 9.7876 35.7995 C 11.0911 34.4949 13.1842 34.4746 14.4626 35.754 C 15.7411 37.0335 15.7208 39.1281 14.4173 40.4326 C 13.1138 41.7372 11.0207 41.7575 9.7422 40.4781 ZM 7.722 42.3343 C 9.7281 44.3419 12.8351 44.5916 15.175 43.1024 L 18.09 46.0196 L 20 44.1079 L 17.085 41.1909 C 18.573 38.8493 18.3235 35.7399 16.3175 33.7324 C 13.9896 31.4026 10.1783 31.4397 7.8047 33.8151 C 5.4311 36.1905 5.3941 40.0046 7.722 42.3343 Z" fill="#e2e2e2"/>		<path d="M 35.7422 40.4781 C 34.4637 39.1986 34.4841 37.104 35.7876 35.7995 C 37.0911 34.4949 39.1842 34.4746 40.4626 35.754 C 41.7411 37.0335 41.7208 39.1281 40.4173 40.4326 C 39.1138 41.7372 37.0207 41.7575 35.7422 40.4781 ZM 33.722 42.3343 C 35.7281 44.3419 38.8351 44.5916 41.175 43.1024 L 44.09 46.0196 L 46 44.1079 L 43.085 41.1909 C 44.573 38.8493 44.3235 35.7399 42.3175 33.7324 C 39.9896 31.4026 36.1783 31.4397 33.8047 33.8151 C 31.4311 36.1905 31.3941 40.0046 33.722 42.3343 Z" fill="#f6f6f6"/>		<path d="M 11.2373 71 L 17 65 L 11.2373 59 L 10 60.2523 L 14.5644 65 L 10 69.7477 L 11.2373 71 Z" fill="#b6b6b6"/>		<path d="M 37.2373 71 L 43 65 L 37.2373 59 L 36 60.2523 L 40.5644 65 L 36 69.7477 L 37.2373 71 Z" fill="#e2e2e2"/>	</g></svg>