<?xml version="1.0" standalone="no"?><!-- Generator: Adobe Fireworks CS6, Export SVG Extension by Aaron Beall (http://fireworks.abeall.com) . Version: 0.6.0  --><!DOCTYPE svg PUBLIC "-//W3C//DTD SVG 1.1//EN" "http://www.w3.org/Graphics/SVG/1.1/DTD/svg11.dtd"><svg id="" viewBox="0 0 80 80" style="background-color:#ffffff" version="1.1"	xmlns="http://www.w3.org/2000/svg" xmlns:xlink="http://www.w3.org/1999/xlink" xml:space="preserve"	x="0px" y="0px" width="80px" height="80px">	<defs>		<linearGradient id="gradient1" x1="50%" y1="0%" x2="50%" y2="100%">			<stop stop-color="#000000" stop-opacity="1" offset="0%"/>			<stop stop-color="#3e1b2d" stop-opacity="1" offset="100%"/>		</linearGradient>		<linearGradient id="gradient2" x1="49.8848%" y1="0%" x2="49.8848%" y2="100.2623%">			<stop stop-color="#666666" stop-opacity="1" offset="0%"/>			<stop stop-color="#333333" stop-opacity="1" offset="100%"/>		</linearGradient>	</defs>	<g id="Layer%201">		<g>			<path d="M 0 0 L 80 0 L 80 80 L 0 80 L 0 0 Z" fill="url(#gradient1)"/>			<path d="M 56.0352 32.0485 C 56.0021 30.2115 55.6901 28.4438 55.1419 26.789 C 53.7285 16.7988 44.4909 12.0461 39.4502 11.716 C 34.3737 11.3837 34.21 9.7218 34.21 9.7218 C 34.21 9.7218 33.2274 9.888 32.8999 11.0513 C 32.5723 12.2145 32.736 12.8793 32.2448 14.375 C 31.7536 15.8707 29.6247 12.3807 29.6247 12.3807 C 29.6247 12.3807 28.806 16.3692 26.1857 19.8591 C 23.333 23.6588 22.9642 28.0304 22.989 30.2324 C 22.9173 30.8287 22.8763 31.435 22.8654 32.0485 C 21.0771 32.3372 20.7933 34.9324 20.7933 37.3277 C 20.7933 39.8681 22.4912 42.6351 24.5859 42.6351 C 24.7337 42.6351 24.8804 42.6228 25.0237 42.5961 C 25.4788 49.1413 27.0882 54.2029 30.3887 57.9389 C 29.7495 57.9079 29.1934 57.9677 29.1027 58.2467 C 28.8729 58.9543 29.1027 61.5491 26.3444 62.4927 C 24.1017 63.2599 9.0735 67.768 2.7907 71.4558 L 2.7907 80 L 76.279 80 L 76.279 71.5581 C 70.1014 67.8523 54.8193 63.2668 52.5563 62.4927 C 49.7979 61.5491 50.0276 58.9543 49.7979 58.2467 C 49.7073 57.9677 49.1511 57.9079 48.5117 57.9389 C 51.8125 54.2029 53.4216 49.1413 53.8768 42.5961 C 54.0202 42.6228 54.1668 42.6351 54.3148 42.6351 C 56.4095 42.6351 58.1074 39.8681 58.1074 37.3277 C 58.1074 34.9324 57.8235 32.3372 56.0352 32.0485 Z" fill="url(#gradient2)"/>		</g>	</g></svg>