<?xml version="1.0" standalone="no"?><!-- Generator: Adobe Fireworks CS6, Export SVG Extension by Aaron Beall (http://fireworks.abeall.com) . Version: 0.6.0  --><!DOCTYPE svg PUBLIC "-//W3C//DTD SVG 1.1//EN" "http://www.w3.org/Graphics/SVG/1.1/DTD/svg11.dtd"><svg id="" viewBox="0 0 34 102" style="background-color:#ffffff00" version="1.1"	xmlns="http://www.w3.org/2000/svg" xmlns:xlink="http://www.w3.org/1999/xlink" xml:space="preserve"	x="0px" y="0px" width="34px" height="102px">	<g id="Layer%201">		<g>			<path d="M 16 10 L 18 10 L 18 24 L 16 24 L 16 10 Z" fill="#52b7ce"/>			<path d="M 24 16 L 24 18 L 10 18 L 10 16 L 24 16 Z" fill="#52b7ce"/>			<path id="Ellipse" d="M 5 17 C 5 10.3725 10.3725 5 17 5 C 23.6275 5 29 10.3725 29 17 C 29 23.6275 23.6275 29 17 29 C 10.3725 29 5 23.6275 5 17 Z" stroke="#52b7ce" stroke-width="1" fill="none"/>		</g>		<path d="M 16 44 L 18 44 L 18 58 L 16 58 L 16 44 Z" fill="#2fa3e0"/>		<path d="M 24 50 L 24 52 L 10 52 L 10 50 L 24 50 Z" fill="#2fa3e0"/>		<path id="Ellipse2" d="M 5 51 C 5 44.3725 10.3725 39 17 39 C 23.6275 39 29 44.3725 29 51 C 29 57.6275 23.6275 63 17 63 C 10.3725 63 5 57.6275 5 51 Z" stroke="#2fa3e0" stroke-width="1" fill="none"/>		<path d="M 16 78 L 18 78 L 18 92 L 16 92 L 16 78 Z" fill="#4296ba"/>		<path d="M 24 84 L 24 86 L 10 86 L 10 84 L 24 84 Z" fill="#4296ba"/>		<path id="Ellipse3" d="M 5 85 C 5 78.3725 10.3725 73 17 73 C 23.6275 73 29 78.3725 29 85 C 29 91.6275 23.6275 97 17 97 C 10.3725 97 5 91.6275 5 85 Z" stroke="#4296ba" stroke-width="1" fill="none"/>	</g></svg>